<svg width="107" height="107" viewBox="0 0 107 107" fill="none" xmlns="http://www.w3.org/2000/svg">
<circle cx="53.5" cy="53.5" r="53.5" fill="#D4B2B2"/>
<path d="M18.2896 62.62C13.0296 52.59 7.40956 24.32 27.0796 11C25.1096 31.16 30.4196 55.45 35.0796 57.89C51.2496 57.45 96.8196 40.75 97.3896 42.68C97.6996 43.72 60.5396 56 61.7496 58.97C63.4096 63.07 99.0596 48.13 99.2996 48.8C99.8896 50.45 77.8296 58.73 68.7596 62.09C61.3096 64.85 49.3596 69.37 41.4196 70.87C46.3396 79.48 69.3796 93.5 74.7096 95.45C59.7596 97.19 31.1896 93.22 22.7496 74.7C17.6896 74.92 14.1596 73.76 12.8696 72.99C11.5896 72.22 11.4096 70.81 9.63956 70.94C9.40956 69.11 11.0496 64.07 18.2896 62.61" fill="#221815"/>
<path d="M9.64 70.96C8.72 71.71 8.26 72.45 8 73.08C10.39 72.52 11.97 72.32 11.97 72.32C11.97 72.32 11.09 70.74 9.64 70.96Z" fill="#FFE100"/>
<path d="M10.9704 66.9399C12.8004 66.6599 19.2204 70.7499 19.1304 74.6599C17.0004 74.7499 13.6404 73.9699 11.9704 72.3099C11.0504 71.3799 10.5204 70.9899 9.64042 70.9599C9.51042 69.2399 10.0104 67.9999 10.9804 66.9399" fill="#E61C17"/>
</svg>
