<svg width="61" height="62" viewBox="0 0 61 62" fill="none" xmlns="http://www.w3.org/2000/svg">
<ellipse cx="30.2566" cy="30.7368" rx="30.2566" ry="30.7368" fill="#3F599A"/>
<path d="M41.5573 42.5046C41.221 44.2494 40.3779 45.9312 39.0453 47.2797C38.1561 48.1771 37.1229 48.8601 36.0183 49.3112C34.3666 49.9895 32.564 50.1573 30.8363 49.8217C29.1109 49.4813 27.4489 48.6282 26.1163 47.2797L19.1779 40.2564C18.2886 39.3578 17.6172 38.31 17.1679 37.1969C16.4988 35.5221 16.3329 33.7016 16.6681 31.9521C16.9986 30.2062 17.843 28.5254 19.1779 27.177C20.0647 26.276 21.1002 25.5954 22.2036 25.1455C23.8577 24.4637 25.6567 24.297 27.3844 24.635C29.1109 24.9719 30.773 25.825 32.1056 27.177L32.6263 27.7003C32.6885 28.1828 32.6263 28.6875 32.4477 29.135C32.3072 29.48 32.1033 29.7958 31.8327 30.0651C31.433 30.4731 30.9458 30.7306 30.394 30.8437C30.1003 30.8997 29.7939 30.9078 29.4933 30.8694L28.975 30.3414C28.5097 29.8752 27.9833 29.5279 27.4178 29.2913C26.5678 28.944 25.6314 28.8543 24.7399 29.0337C23.8438 29.2074 23.0029 29.6375 22.3085 30.3414C21.842 30.8123 21.5022 31.3472 21.2707 31.9219C20.9275 32.7774 20.8411 33.7272 21.0115 34.6294C21.1889 35.5326 21.6105 36.3835 22.3085 37.0921L29.2481 44.1131C29.7111 44.5828 30.2397 44.9301 30.8053 45.1597C31.653 45.5105 32.5906 45.598 33.4821 45.422C34.3771 45.246 35.2167 44.8147 35.9147 44.1131C36.3801 43.6422 36.721 43.1061 36.9524 42.5338C37.2946 41.6772 37.3833 40.7285 37.2093 39.8264C37.0399 38.9418 36.6288 38.1107 35.9619 37.4149C36.5758 37.0012 37.1517 36.5244 37.6804 35.9907C38.2136 35.4534 38.6825 34.8695 39.089 34.2471C39.9552 35.134 40.614 36.162 41.0528 37.2599C41.722 38.9347 41.8902 40.7552 41.5573 42.5046Z" fill="white"/>
<path d="M36.3214 34.6107C35.4345 35.5093 34.4013 36.1911 33.2979 36.6421C31.6462 37.3193 29.8425 37.4871 28.1147 37.1491C26.3894 36.8134 24.7284 35.9603 23.3958 34.6107L22.8741 34.0838C22.8153 33.6002 22.874 33.1001 23.0561 32.6514C23.1931 32.3052 23.4004 31.9894 23.6711 31.7167C24.0696 31.3158 24.5557 31.0524 25.1086 30.9451C25.4 30.8857 25.7098 30.8786 26.007 30.9183L26.5265 31.4428C26.9907 31.9148 27.5171 32.2598 28.0849 32.4918C28.9326 32.8391 29.869 32.9277 30.7617 32.7564C31.6555 32.578 32.4952 32.1468 33.1943 31.4429C33.6585 30.9732 33.9994 30.4417 34.2286 29.8706C34.5742 29.0081 34.6594 28.0605 34.4889 27.1585C34.315 26.2517 33.8899 25.4021 33.1942 24.6957L26.2535 17.6759C25.7905 17.2027 25.2618 16.8589 24.6951 16.6258C23.8462 16.2796 22.911 16.1911 22.0183 16.3635C21.1233 16.5419 20.2837 16.9719 19.5857 17.6759C19.1215 18.1433 18.7806 18.6771 18.5514 19.2494C18.2058 20.1119 18.1172 21.0582 18.2911 21.9592C18.4639 22.845 18.8728 23.676 19.5408 24.3718C18.9246 24.7821 18.351 25.2599 17.82 25.7972L17.8143 25.8007C17.2844 26.3357 16.8179 26.9184 16.4114 27.5385C15.5452 26.6515 14.8864 25.6223 14.4487 24.528C13.7784 22.8543 13.6125 21.0292 13.9465 19.2832C14.2794 17.5326 15.1225 15.8531 16.4575 14.5069C17.3455 13.6071 18.3787 12.9289 19.4821 12.4731C21.1337 11.7971 22.9363 11.6292 24.664 11.9673C26.3917 12.3053 28.0514 13.1561 29.384 14.5069L36.3213 21.528C37.2129 22.4278 37.8855 23.4755 38.3313 24.5886C39.0016 26.2634 39.1675 28.0874 38.8335 29.8345C38.5018 31.5826 37.6586 33.2634 36.3214 34.6107Z" fill="white"/>
</svg>
