<svg width="61" height="62" viewBox="0 0 61 62" fill="none" xmlns="http://www.w3.org/2000/svg">
<ellipse cx="30.2566" cy="30.7368" rx="30.2566" ry="30.7368" fill="#BF4643"/>
<path d="M43.778 42.5153C43.4417 44.2601 42.5986 45.942 41.266 47.2905C40.3768 48.1879 39.3436 48.8709 38.239 49.3219C36.5873 50.0003 34.7848 50.1681 33.057 49.8324C31.3316 49.4921 29.6696 48.6389 28.337 47.2905L21.3986 40.2671C20.5093 39.3685 19.8379 38.3207 19.3886 37.2076C18.7195 35.5328 18.5536 33.7123 18.8888 31.9628C19.2193 30.2169 20.0637 28.5362 21.3986 27.1877C22.2854 26.2868 23.3209 25.6061 24.4243 25.1563C26.0784 24.4744 27.8774 24.3078 29.6051 24.6457C31.3316 24.9826 32.9937 25.8357 34.3263 27.1877L34.847 27.7111C34.9092 28.1936 34.847 28.6982 34.6684 29.1458C34.5279 29.4907 34.324 29.8066 34.0534 30.0759C33.6537 30.4838 33.1665 30.7414 32.6147 30.8545C32.3211 30.9104 32.0146 30.9185 31.714 30.8801L31.1957 30.3521C30.7304 29.8859 30.204 29.5386 29.6385 29.302C28.7885 28.9547 27.8521 28.865 26.9606 29.0445C26.0645 29.2181 25.2236 29.6482 24.5292 30.3521C24.0627 30.823 23.7229 31.358 23.4914 31.9326C23.1482 32.7881 23.0618 33.738 23.2322 34.6401C23.4096 35.5433 23.8312 36.3942 24.5292 37.1028L31.4688 44.1239C31.9318 44.5936 32.4604 44.9409 33.026 45.1705C33.8737 45.5213 34.8113 45.6087 35.7028 45.4327C36.5978 45.2568 37.4374 44.8255 38.1354 44.1239C38.6008 43.653 38.9417 43.1169 39.1732 42.5446C39.5153 41.688 39.604 40.7392 39.43 39.8371C39.2607 38.9525 38.8495 38.1215 38.1826 37.4257C38.7965 37.0119 39.3724 36.5352 39.9011 36.0014C40.4343 35.4641 40.9032 34.8802 41.3097 34.2578C42.1759 35.1448 42.8347 36.1727 43.2735 37.2707C43.9427 38.9454 44.1109 40.7659 43.778 42.5153Z" fill="white"/>
<path d="M38.5421 34.6214C37.6552 35.52 36.622 36.2019 35.5186 36.6529C33.8669 37.33 32.0632 37.4978 30.3354 37.1599C28.6101 36.8242 26.9491 35.971 25.6165 34.6214L25.0948 34.0946C25.036 33.6109 25.0948 33.1108 25.2768 32.6622C25.4138 32.316 25.6212 32.0001 25.8918 31.7274C26.2903 31.3265 26.7764 31.0631 27.3293 30.9558C27.6207 30.8964 27.9305 30.8894 28.2277 30.9291L28.7472 31.4535C29.2114 31.9256 29.7378 32.2705 30.3056 32.5025C31.1533 32.8498 32.0897 32.9384 32.9824 32.7671C33.8762 32.5888 34.7159 32.1575 35.415 31.4536C35.8792 30.9839 36.2201 30.4524 36.4493 29.8813C36.7949 29.0188 36.8801 28.0713 36.7096 27.1692C36.5357 26.2625 36.1106 25.4128 35.4149 24.7065L28.4742 17.6867C28.0112 17.2134 27.4825 16.8697 26.9158 16.6366C26.0669 16.2904 25.1317 16.2018 24.239 16.3743C23.344 16.5526 22.5044 16.9827 21.8064 17.6867C21.3422 18.1541 21.0013 18.6878 20.7721 19.2601C20.4265 20.1226 20.3379 21.069 20.5118 21.9699C20.6846 22.8557 21.0935 23.6867 21.7615 24.3825C21.1453 24.7928 20.5717 25.2706 20.0407 25.8079L20.035 25.8114C19.5051 26.3464 19.0386 26.9291 18.6321 27.5492C17.7659 26.6622 17.1071 25.6331 16.6694 24.5387C15.9991 22.865 15.8332 21.0399 16.1672 19.2939C16.5001 17.5433 17.3432 15.8638 18.6782 14.5177C19.5662 13.6179 20.5994 12.9396 21.7028 12.4838C23.3544 11.8078 25.157 11.64 26.8847 11.978C28.6124 12.3161 30.2721 13.1669 31.6047 14.5177L38.542 21.5387C39.4336 22.4385 40.1062 23.4862 40.552 24.5993C41.2223 26.2741 41.3882 28.0981 41.0542 29.8452C40.7225 31.5934 39.8793 33.2741 38.5421 34.6214Z" fill="white"/>
</svg>
