<svg width="719" height="714" viewBox="0 0 719 714" fill="none" xmlns="http://www.w3.org/2000/svg">
<path fill-rule="evenodd" clip-rule="evenodd" d="M240.614 708.104C240.647 707.83 240.895 707.637 241.168 707.673C241.503 707.717 241.839 707.761 242.174 707.805C242.448 707.84 242.644 708.092 242.613 708.366C242.581 708.64 242.333 708.834 242.059 708.798C241.723 708.755 241.387 708.71 241.052 708.666C240.778 708.63 240.582 708.378 240.614 708.104ZM232.598 706.967C232.56 707.24 232.308 707.428 232.035 707.387C231.703 707.337 231.372 707.286 231.04 707.235C230.767 707.193 230.576 706.937 230.615 706.664C230.653 706.39 230.905 706.203 231.178 706.245C231.509 706.296 231.84 706.346 232.171 706.396C232.444 706.438 232.635 706.693 232.598 706.967ZM250.594 709.329C250.621 709.054 250.865 708.856 251.139 708.887C251.473 708.924 251.806 708.961 252.14 708.998C252.415 709.028 252.616 709.275 252.59 709.55C252.564 709.825 252.32 710.023 252.046 709.993C251.711 709.957 251.377 709.92 251.043 709.883C250.768 709.852 250.568 709.604 250.594 709.329ZM222.656 705.358C222.612 705.63 222.356 705.813 222.084 705.765C221.751 705.707 221.417 705.648 221.084 705.59C220.812 705.541 220.627 705.282 220.672 705.009C220.716 704.737 220.972 704.555 221.244 704.603C221.576 704.662 221.909 704.72 222.242 704.778C222.514 704.826 222.699 705.085 222.656 705.358ZM260.641 710.359C260.662 710.084 260.902 709.881 261.177 709.906C261.509 709.936 261.841 709.967 262.174 709.996C262.449 710.021 262.655 710.264 262.634 710.54C262.613 710.815 262.374 711.019 262.099 710.994C261.766 710.964 261.433 710.934 261.1 710.904C260.825 710.878 260.619 710.635 260.641 710.359ZM212.734 703.52C212.685 703.792 212.424 703.968 212.153 703.914C211.825 703.849 211.497 703.783 211.169 703.717C210.898 703.663 210.719 703.399 210.77 703.128C210.82 702.856 211.081 702.681 211.352 702.735C211.679 702.801 212.006 702.866 212.334 702.931C212.605 702.985 212.784 703.249 212.734 703.52ZM270.659 711.191C270.675 710.915 270.911 710.708 271.187 710.728C271.522 710.752 271.857 710.776 272.192 710.8C272.467 710.819 272.678 711.059 272.662 711.335C272.647 711.611 272.411 711.819 272.136 711.799C271.8 711.775 271.464 711.751 271.128 711.727C270.853 711.707 270.643 711.467 270.659 711.191ZM202.848 701.444C202.791 701.714 202.527 701.884 202.257 701.823C201.927 701.749 201.598 701.675 201.269 701.6C201 701.539 200.827 701.271 200.885 701.001C200.942 700.731 201.207 700.562 201.476 700.623C201.805 700.698 202.133 700.772 202.462 700.846C202.731 700.906 202.904 701.174 202.848 701.444ZM280.718 711.838C280.729 711.562 280.961 711.35 281.236 711.365C281.57 711.383 281.904 711.401 282.238 711.418C282.514 711.432 282.728 711.668 282.718 711.944C282.707 712.221 282.475 712.433 282.2 712.419C281.865 712.401 281.531 712.383 281.196 712.365C280.921 712.35 280.707 712.114 280.718 711.838ZM193.063 699.13C193 699.399 192.731 699.561 192.463 699.494C192.134 699.411 191.806 699.328 191.479 699.245C191.211 699.177 191.046 698.904 191.11 698.636C191.174 698.368 191.444 698.206 191.712 698.274C192.038 698.357 192.365 698.44 192.693 698.522C192.961 698.59 193.127 698.862 193.063 699.13ZM290.771 712.302C290.777 712.025 291.005 711.809 291.281 711.819C291.617 711.832 291.953 711.843 292.289 711.855C292.564 711.865 292.783 712.097 292.777 712.373C292.772 712.649 292.544 712.866 292.268 712.856C291.932 712.845 291.595 712.833 291.259 712.82C290.983 712.81 290.765 712.578 290.771 712.302ZM300.832 712.589C300.833 712.312 301.058 712.092 301.333 712.098C301.668 712.104 302.003 712.11 302.337 712.116C302.613 712.121 302.836 712.349 302.835 712.625C302.834 712.902 302.61 713.122 302.334 713.117C301.999 713.112 301.663 713.106 301.328 713.099C301.053 713.094 300.83 712.865 300.832 712.589ZM183.262 696.534C183.191 696.801 182.917 696.956 182.651 696.881C182.327 696.79 182.004 696.698 181.681 696.606C181.414 696.531 181.257 696.254 181.329 695.988C181.4 695.721 181.674 695.567 181.94 695.643C182.263 695.734 182.585 695.826 182.908 695.917C183.174 695.991 183.333 696.268 183.262 696.534ZM310.899 712.703C310.895 712.426 311.116 712.203 311.392 712.203C311.728 712.204 312.064 712.204 312.4 712.204C312.675 712.205 312.902 712.429 312.905 712.706C312.909 712.982 312.689 713.206 312.413 713.206C312.077 713.206 311.74 713.206 311.404 713.205C311.128 713.205 310.902 712.98 310.899 712.703ZM173.587 693.675C173.508 693.939 173.23 694.086 172.966 694.003C172.642 693.901 172.318 693.799 171.995 693.697C171.731 693.613 171.581 693.332 171.661 693.068C171.741 692.804 172.019 692.658 172.283 692.742C172.605 692.844 172.928 692.946 173.251 693.047C173.515 693.13 173.666 693.411 173.587 693.675ZM320.954 712.648C320.946 712.372 321.163 712.144 321.439 712.14C321.773 712.135 322.108 712.13 322.443 712.124C322.719 712.12 322.949 712.341 322.957 712.617C322.965 712.894 322.749 713.122 322.473 713.126C322.138 713.132 321.802 713.137 321.467 713.142C321.191 713.146 320.962 712.925 320.954 712.648ZM163.996 690.52C163.909 690.782 163.627 690.92 163.365 690.828C163.049 690.718 162.734 690.608 162.419 690.497C162.158 690.405 162.017 690.119 162.105 689.858C162.193 689.597 162.476 689.46 162.738 689.552C163.052 689.663 163.366 689.773 163.681 689.883C163.942 689.974 164.084 690.259 163.996 690.52ZM331.017 712.427C331.004 712.15 331.218 711.919 331.493 711.911C331.828 711.9 332.163 711.889 332.498 711.879C332.774 711.87 333.007 712.086 333.02 712.363C333.033 712.639 332.82 712.871 332.545 712.88C332.209 712.891 331.873 712.901 331.538 712.912C331.262 712.92 331.029 712.703 331.017 712.427ZM154.476 687.041C154.38 687.299 154.093 687.427 153.834 687.327C153.519 687.206 153.205 687.083 152.891 686.96C152.633 686.86 152.502 686.569 152.599 686.311C152.696 686.054 152.984 685.927 153.242 686.028C153.555 686.15 153.868 686.272 154.182 686.393C154.44 686.493 154.572 686.783 154.476 687.041ZM341.06 712.042C341.043 711.765 341.252 711.531 341.528 711.518C341.862 711.502 342.197 711.486 342.531 711.47C342.806 711.456 343.043 711.669 343.06 711.946C343.078 712.222 342.869 712.457 342.593 712.47C342.258 712.487 341.923 712.503 341.588 712.519C341.313 712.532 341.077 712.318 341.06 712.042ZM351.102 711.495C351.08 711.219 351.286 710.981 351.561 710.963C351.895 710.942 352.229 710.921 352.563 710.899C352.838 710.881 353.078 711.091 353.1 711.367C353.121 711.643 352.916 711.881 352.641 711.899C352.307 711.921 351.972 711.942 351.638 711.963C351.363 711.981 351.123 711.771 351.102 711.495ZM145.127 683.248C145.022 683.503 144.73 683.62 144.475 683.511C144.162 683.376 143.849 683.241 143.536 683.105C143.282 682.995 143.162 682.7 143.269 682.446C143.375 682.192 143.668 682.076 143.922 682.187C144.233 682.322 144.545 682.456 144.857 682.59C145.112 682.7 145.233 682.994 145.127 683.248ZM361.127 710.788C361.102 710.512 361.304 710.271 361.578 710.249C361.912 710.223 362.245 710.196 362.579 710.169C362.853 710.147 363.097 710.352 363.123 710.628C363.149 710.904 362.947 711.145 362.673 711.167C362.455 711.185 362.238 711.202 362.02 711.22L361.671 711.248C361.396 711.269 361.153 711.064 361.127 710.788ZM135.898 679.091C135.783 679.341 135.486 679.446 135.236 679.327C134.933 679.182 134.632 679.038 134.33 678.892C134.081 678.772 133.973 678.472 134.089 678.223C134.206 677.974 134.503 677.87 134.752 677.99C135.052 678.135 135.353 678.279 135.654 678.423C135.904 678.542 136.014 678.842 135.898 679.091ZM371.14 709.921C371.11 709.646 371.308 709.401 371.582 709.375C371.915 709.343 372.249 709.311 372.582 709.279C372.856 709.253 373.102 709.454 373.133 709.73C373.163 710.005 372.965 710.25 372.692 710.276C372.358 710.309 372.024 710.341 371.69 710.373C371.416 710.399 371.169 710.197 371.14 709.921ZM126.827 674.548C126.701 674.793 126.4 674.885 126.155 674.755C125.856 674.596 125.558 674.437 125.261 674.277C125.016 674.146 124.921 673.842 125.049 673.599C125.176 673.355 125.478 673.264 125.722 673.395C126.018 673.554 126.315 673.713 126.612 673.871C126.857 674.001 126.954 674.304 126.827 674.548ZM381.135 708.896C381.101 708.621 381.295 708.373 381.569 708.343C381.901 708.306 382.233 708.268 382.565 708.231C382.839 708.2 383.089 708.398 383.123 708.673C383.158 708.947 382.964 709.195 382.691 709.226C382.358 709.264 382.025 709.301 381.692 709.338C381.419 709.369 381.17 709.171 381.135 708.896ZM391.112 707.711C391.073 707.437 391.263 707.186 391.536 707.151C391.869 707.109 392.201 707.066 392.533 707.023C392.806 706.988 393.059 707.182 393.097 707.456C393.136 707.73 392.947 707.982 392.674 708.017C392.341 708.06 392.009 708.103 391.676 708.145C391.403 708.18 391.15 707.986 391.112 707.711ZM118 669.624C117.862 669.862 117.557 669.94 117.318 669.799C117.024 669.625 116.731 669.45 116.439 669.275C116.201 669.132 116.12 668.824 116.259 668.587C116.398 668.35 116.704 668.274 116.942 668.417C117.233 668.591 117.524 668.764 117.817 668.938C118.055 669.079 118.138 669.386 118 669.624ZM401.062 706.368C401.019 706.094 401.205 705.84 401.478 705.801C401.808 705.753 402.138 705.705 402.469 705.657C402.741 705.618 402.997 705.807 403.04 706.081C403.083 706.355 402.898 706.609 402.625 706.649C402.295 706.697 401.964 706.745 401.633 706.793C401.361 706.832 401.105 706.642 401.062 706.368ZM109.411 664.273C109.261 664.503 108.953 664.565 108.721 664.412C108.442 664.227 108.163 664.041 107.886 663.855C107.655 663.7 107.59 663.389 107.741 663.159C107.892 662.93 108.201 662.87 108.432 663.024C108.708 663.209 108.985 663.394 109.263 663.578C109.495 663.732 109.561 664.043 109.411 664.273ZM410.997 704.863C410.949 704.589 411.131 704.333 411.403 704.289C411.733 704.236 412.064 704.182 412.394 704.129C412.665 704.085 412.924 704.27 412.972 704.543C413.02 704.817 412.838 705.074 412.567 705.118C412.236 705.171 411.905 705.225 411.574 705.278C411.302 705.322 411.044 705.136 410.997 704.863ZM420.884 703.198C420.833 702.926 421.01 702.666 421.281 702.618C421.609 702.56 421.937 702.501 422.265 702.442C422.535 702.394 422.797 702.575 422.849 702.848C422.901 703.12 422.724 703.38 422.453 703.429C422.125 703.488 421.797 703.546 421.468 703.605C421.198 703.653 420.936 703.471 420.884 703.198ZM101.081 658.451C100.918 658.672 100.606 658.716 100.383 658.55C100.112 658.348 99.8424 658.146 99.5731 657.942C99.3514 657.775 99.3044 657.461 99.4681 657.241C99.6318 657.02 99.9443 656.977 100.166 657.145C100.434 657.347 100.702 657.548 100.971 657.749C101.194 657.915 101.243 658.229 101.081 658.451ZM430.769 701.365C430.713 701.093 430.886 700.831 431.156 700.778C431.484 700.714 431.812 700.65 432.14 700.585C432.41 700.532 432.674 700.709 432.731 700.981C432.788 701.252 432.615 701.515 432.345 701.568C432.151 701.607 431.957 701.645 431.763 701.683C431.629 701.709 431.494 701.735 431.36 701.761C431.09 701.814 430.826 701.637 430.769 701.365ZM440.582 699.372C440.521 699.102 440.69 698.836 440.959 698.779C441.288 698.709 441.616 698.638 441.945 698.568C442.214 698.51 442.481 698.683 442.542 698.953C442.604 699.224 442.435 699.49 442.167 699.548C441.838 699.618 441.508 699.689 441.179 699.759C440.91 699.816 440.643 699.643 440.582 699.372ZM93.1194 652.175C92.9437 652.386 92.6291 652.411 92.4167 652.232C92.1566 652.013 91.8974 651.793 91.6392 651.572C91.4279 651.391 91.4001 651.075 91.5772 650.865C91.7541 650.656 92.069 650.632 92.2802 650.813C92.5369 651.032 92.7944 651.251 93.0528 651.469C93.2652 651.648 93.295 651.965 93.1194 652.175ZM450.402 697.2C450.336 696.931 450.5 696.662 450.768 696.6C451.093 696.525 451.418 696.449 451.742 696.373C452.01 696.311 452.28 696.479 452.346 696.748C452.412 697.018 452.249 697.287 451.981 697.349C451.656 697.425 451.331 697.501 451.005 697.576C450.737 697.638 450.467 697.47 450.402 697.2ZM85.5751 645.426C85.3858 645.624 85.0699 645.629 84.8695 645.436C84.6231 645.199 84.3776 644.961 84.1332 644.723C83.9342 644.529 83.9274 644.211 84.118 644.014C84.3087 643.817 84.6246 643.815 84.8237 644.009C85.0665 644.246 85.3103 644.482 85.5551 644.717C85.7554 644.91 85.7644 645.227 85.5751 645.426ZM460.145 694.862C460.075 694.593 460.234 694.321 460.501 694.255C460.639 694.22 460.776 694.186 460.914 694.151C461.102 694.104 461.289 694.056 461.477 694.009C461.744 693.942 462.017 694.105 462.088 694.373C462.158 694.641 462 694.913 461.733 694.981C461.408 695.063 461.081 695.145 460.755 695.227C460.489 695.294 460.216 695.13 460.145 694.862ZM469.859 692.34C469.784 692.073 469.938 691.799 470.203 691.727C470.524 691.64 470.845 691.553 471.165 691.465C471.43 691.393 471.707 691.551 471.782 691.818C471.858 692.085 471.705 692.36 471.439 692.432C471.118 692.52 470.797 692.607 470.475 692.694C470.21 692.766 469.934 692.608 469.859 692.34ZM78.4831 638.163C78.28 638.347 77.9643 638.329 77.7779 638.122C77.5518 637.872 77.3266 637.621 77.1025 637.369C76.9177 637.161 76.9335 636.845 77.138 636.662C77.3424 636.479 77.6581 636.5 77.8429 636.707C78.0653 636.957 78.2889 637.207 78.5134 637.455C78.6997 637.662 78.6862 637.978 78.4831 638.163ZM479.521 689.635C479.441 689.369 479.59 689.091 479.854 689.014C480.175 688.921 480.496 688.827 480.817 688.732C481.081 688.655 481.36 688.807 481.441 689.073C481.522 689.339 481.374 689.617 481.11 689.694C480.923 689.749 480.735 689.804 480.547 689.859C480.413 689.898 480.279 689.938 480.144 689.977C479.881 690.054 479.602 689.901 479.521 689.635ZM71.9337 630.401C71.717 630.569 71.4032 630.527 71.2329 630.307C71.0251 630.039 70.8185 629.77 70.613 629.501C70.4443 629.28 70.4844 628.966 70.7024 628.8C70.9204 628.633 71.2339 628.678 71.4026 628.899C71.6065 629.167 71.8115 629.433 72.0176 629.699C72.1879 629.919 72.1504 630.233 71.9337 630.401ZM489.098 686.748C489.012 686.484 489.155 686.203 489.417 686.121C489.733 686.022 490.049 685.922 490.364 685.822C490.626 685.74 490.908 685.887 490.994 686.151C491.08 686.415 490.938 686.696 490.676 686.778C490.36 686.878 490.043 686.978 489.727 687.077C489.465 687.159 489.183 687.012 489.098 686.748ZM498.662 683.647C498.571 683.384 498.708 683.101 498.968 683.013C499.284 682.906 499.6 682.799 499.916 682.692C500.176 682.604 500.461 682.745 500.552 683.007C500.644 683.269 500.507 683.553 500.247 683.641C499.931 683.749 499.615 683.856 499.298 683.963C499.038 684.051 498.753 683.909 498.662 683.647ZM66.0106 622.171C65.7809 622.32 65.4712 622.253 65.3189 622.021C65.1327 621.736 64.9476 621.451 64.7638 621.166C64.6134 620.932 64.6786 620.622 64.9096 620.475C65.1405 620.327 65.4497 620.397 65.6002 620.63C65.7825 620.914 65.966 621.197 66.1507 621.478C66.303 621.711 66.2403 622.021 66.0106 622.171ZM508.099 680.359C508.002 680.098 508.133 679.811 508.391 679.718C508.708 679.603 509.024 679.488 509.34 679.373C509.598 679.279 509.886 679.413 509.983 679.674C510.081 679.934 509.951 680.221 509.693 680.315C509.376 680.431 509.059 680.546 508.742 680.661C508.484 680.754 508.196 680.619 508.099 680.359ZM517.502 676.839C517.399 676.581 517.523 676.291 517.779 676.192C518.088 676.071 518.397 675.951 518.705 675.83C518.961 675.729 519.252 675.857 519.355 676.115C519.459 676.373 519.335 676.663 519.08 676.763C518.919 676.826 518.759 676.889 518.599 676.952C518.45 677.01 518.3 677.068 518.151 677.126C517.896 677.226 517.605 677.097 517.502 676.839ZM60.7727 613.489C60.5311 613.619 60.2277 613.526 60.0951 613.281C59.9333 612.983 59.7729 612.685 59.6136 612.385C59.483 612.14 59.574 611.837 59.8168 611.71C60.0596 611.582 60.3622 611.677 60.4927 611.923C60.6506 612.22 60.8098 612.516 60.9701 612.812C61.1028 613.056 61.0143 613.359 60.7727 613.489ZM526.802 673.098C526.693 672.843 526.81 672.549 527.063 672.444C527.372 672.314 527.681 672.185 527.989 672.055C528.241 671.948 528.535 672.069 528.645 672.324C528.755 672.579 528.639 672.873 528.386 672.979C528.077 673.109 527.768 673.239 527.458 673.369C527.205 673.475 526.911 673.354 526.802 673.098ZM56.2739 604.389C56.0218 604.498 55.7271 604.379 55.6157 604.124C55.5473 603.968 55.4792 603.812 55.4115 603.655L55.2155 603.202C55.1054 602.947 55.221 602.653 55.4737 602.546C55.7264 602.439 56.0205 602.559 56.1306 602.814L56.3263 603.267C56.3934 603.422 56.4609 603.577 56.5287 603.732C56.6401 603.987 56.526 604.281 56.2739 604.389ZM535.955 669.139C535.839 668.886 535.948 668.59 536.199 668.478C536.349 668.41 536.498 668.342 536.648 668.275C536.799 668.206 536.95 668.138 537.101 668.069C537.351 667.956 537.648 668.068 537.765 668.32C537.881 668.573 537.774 668.869 537.524 668.983C537.372 669.052 537.22 669.121 537.069 669.189C536.978 669.23 536.887 669.271 536.796 669.312C536.737 669.339 536.677 669.366 536.618 669.393C536.367 669.505 536.071 669.392 535.955 669.139ZM544.97 664.864C544.843 664.616 544.939 664.316 545.184 664.192C545.48 664.042 545.777 663.891 546.073 663.74C546.317 663.616 546.618 663.715 546.746 663.961C546.874 664.208 546.779 664.51 546.535 664.634C546.238 664.786 545.94 664.938 545.642 665.088C545.397 665.212 545.096 665.111 544.97 664.864ZM52.3719 595.226C52.1177 595.329 51.8252 595.205 51.7185 594.949C51.5901 594.64 51.4619 594.331 51.3338 594.022C51.2275 593.765 51.3475 593.473 51.6018 593.37C51.8561 593.267 52.1484 593.392 52.2548 593.648C52.3827 593.957 52.5107 594.266 52.6389 594.574C52.7456 594.83 52.6261 595.122 52.3719 595.226ZM553.791 660.184C553.654 659.942 553.737 659.637 553.976 659.503C554.265 659.34 554.554 659.177 554.843 659.014C555.081 658.878 555.386 658.964 555.525 659.205C555.663 659.447 555.581 659.752 555.343 659.887C555.053 660.052 554.763 660.216 554.473 660.379C554.234 660.513 553.929 660.426 553.791 660.184ZM48.6032 585.993C48.3475 586.092 48.0567 585.964 47.9538 585.706L47.5847 584.779C47.4822 584.52 47.6065 584.23 47.8623 584.131C48.1182 584.032 48.4087 584.161 48.5112 584.419C48.634 584.728 48.7568 585.036 48.8798 585.345C48.9827 585.603 48.8589 585.893 48.6032 585.993ZM562.403 655.124C562.256 654.888 562.325 654.58 562.558 654.435C562.841 654.26 563.124 654.084 563.406 653.907C563.639 653.762 563.947 653.835 564.095 654.07C564.244 654.306 564.175 654.614 563.943 654.76C563.659 654.937 563.375 655.114 563.091 655.29C562.858 655.434 562.55 655.36 562.403 655.124ZM570.783 649.713C570.626 649.483 570.684 649.172 570.91 649.019C571.185 648.832 571.46 648.645 571.734 648.458C571.961 648.303 572.272 648.363 572.429 648.593C572.586 648.822 572.53 649.133 572.304 649.288C572.029 649.476 571.753 649.664 571.477 649.851C571.25 650.005 570.939 649.943 570.783 649.713ZM44.9633 576.691C44.7062 576.787 44.4172 576.654 44.3181 576.395C44.1999 576.086 44.0819 575.776 43.964 575.467C43.8652 575.207 43.9937 574.919 44.2511 574.823C44.5084 574.728 44.7971 574.861 44.8959 575.121C45.0136 575.43 45.1314 575.739 45.2494 576.048C45.3486 576.307 45.2205 576.595 44.9633 576.691ZM578.95 643.959C578.785 643.735 578.83 643.422 579.05 643.259C579.317 643.062 579.583 642.865 579.849 642.668C580.069 642.504 580.382 642.552 580.548 642.775C580.714 642.998 580.67 643.312 580.45 643.475C580.183 643.674 579.916 643.872 579.649 644.069C579.428 644.232 579.115 644.182 578.95 643.959ZM41.4595 567.344C41.2009 567.436 40.9139 567.299 40.8184 567.039C40.7033 566.724 40.5884 566.409 40.4736 566.094C40.3785 565.833 40.5112 565.547 40.77 565.455C41.0287 565.364 41.3155 565.501 41.4106 565.762C41.5252 566.076 41.6399 566.391 41.7549 566.705C41.8503 566.966 41.7181 567.252 41.4595 567.344ZM586.875 637.898C586.702 637.68 586.735 637.365 586.949 637.194C587.209 636.987 587.469 636.778 587.728 636.57C587.942 636.398 588.256 636.434 588.431 636.651C588.605 636.868 588.573 637.183 588.359 637.355C588.099 637.564 587.838 637.773 587.577 637.982C587.363 638.153 587.049 638.115 586.875 637.898ZM38.0972 557.971C37.8373 558.06 37.5522 557.919 37.4605 557.657C37.3504 557.342 37.2404 557.028 37.1307 556.713C37.0393 556.45 37.1761 556.166 37.4361 556.078C37.6961 555.99 37.981 556.131 38.0724 556.394L38.4017 557.337C38.4935 557.599 38.3571 557.883 38.0972 557.971ZM594.569 631.542C594.388 631.33 594.409 631.014 594.617 630.836C594.868 630.619 595.12 630.402 595.371 630.185C595.578 630.005 595.893 630.03 596.075 630.241C596.257 630.451 596.236 630.767 596.029 630.947C595.777 631.165 595.525 631.383 595.273 631.6C595.065 631.779 594.75 631.753 594.569 631.542ZM34.8618 548.536C34.6006 548.621 34.3175 548.476 34.2295 548.212C34.1243 547.898 34.0192 547.583 33.9144 547.268C33.8268 547.004 33.9675 546.722 34.2289 546.638C34.4902 546.553 34.7731 546.699 34.8608 546.962C34.9655 547.277 35.0703 547.591 35.1754 547.906C35.2634 548.169 35.123 548.451 34.8618 548.536ZM602.041 624.898C601.853 624.694 601.863 624.377 602.065 624.191C602.308 623.966 602.551 623.74 602.794 623.514C602.995 623.327 603.311 623.341 603.5 623.545C603.689 623.749 603.679 624.066 603.478 624.253C603.235 624.48 602.991 624.706 602.746 624.932C602.545 625.118 602.229 625.103 602.041 624.898ZM609.255 618.019C609.06 617.821 609.06 617.504 609.255 617.311C609.492 617.077 609.728 616.842 609.963 616.607C610.157 616.414 610.473 616.417 610.669 616.615C610.865 616.812 610.866 617.13 610.672 617.323C610.524 617.471 610.375 617.618 610.227 617.765C610.139 617.853 610.05 617.941 609.961 618.029C609.766 618.222 609.45 618.217 609.255 618.019ZM31.7554 539.043C31.493 539.124 31.2119 538.975 31.1276 538.71C31.0272 538.395 30.927 538.08 30.8269 537.764C30.743 537.5 30.8878 537.22 31.1504 537.139C31.4129 537.059 31.6938 537.208 31.7777 537.473L31.8673 537.755C31.9374 537.976 32.0077 538.196 32.078 538.417C32.1622 538.682 32.0179 538.962 31.7554 539.043ZM616.25 610.885C616.049 610.693 616.039 610.376 616.227 610.176C616.455 609.936 616.682 609.694 616.91 609.452C617.097 609.253 617.413 609.246 617.615 609.437C617.817 609.628 617.828 609.945 617.64 610.145C617.412 610.388 617.184 610.63 616.956 610.871C616.767 611.071 616.451 611.077 616.25 610.885ZM28.793 529.539C28.5294 529.616 28.2504 529.463 28.1699 529.198C28.0731 528.879 27.9766 528.559 27.8802 528.24C27.8 527.974 27.9488 527.696 28.2125 527.62C28.4762 527.543 28.755 527.696 28.8352 527.962C28.9314 528.281 29.0278 528.6 29.1245 528.918C29.205 529.184 29.0566 529.462 28.793 529.539ZM623.007 603.53C622.8 603.344 622.78 603.028 622.962 602.822C623.183 602.573 623.404 602.323 623.624 602.073C623.806 601.867 624.121 601.851 624.329 602.036C624.536 602.22 624.557 602.537 624.376 602.743C624.155 602.994 623.933 603.244 623.711 603.494C623.529 603.7 623.214 603.715 623.007 603.53ZM25.9617 519.984C25.697 520.057 25.4201 519.9 25.3433 519.634C25.2514 519.314 25.1597 518.995 25.0682 518.675C24.9918 518.409 25.1446 518.133 25.4094 518.06C25.6743 517.987 25.9509 518.144 26.0273 518.411C26.1187 518.73 26.2102 519.049 26.302 519.368C26.3788 519.635 26.2264 519.91 25.9617 519.984ZM629.527 595.97C629.315 595.791 629.285 595.474 629.461 595.264C629.674 595.009 629.886 594.753 630.098 594.497C630.273 594.286 630.588 594.259 630.801 594.438C631.013 594.616 631.044 594.932 630.869 595.144C630.737 595.303 630.605 595.463 630.472 595.622C630.392 595.719 630.311 595.816 630.23 595.913C630.054 596.124 629.74 596.149 629.527 595.97ZM23.2626 510.377C22.9967 510.447 22.7221 510.286 22.6492 510.018C22.5621 509.699 22.4752 509.379 22.3885 509.059C22.316 508.791 22.4727 508.518 22.7385 508.449C23.0045 508.38 23.2789 508.541 23.3515 508.809C23.438 509.128 23.5248 509.447 23.6117 509.766C23.6847 510.034 23.5284 510.308 23.2626 510.377ZM635.828 588.199C635.611 588.026 635.572 587.711 635.741 587.495C635.946 587.234 636.15 586.973 636.354 586.711C636.522 586.495 636.836 586.459 637.054 586.631C637.272 586.804 637.312 587.119 637.143 587.335C636.939 587.597 636.734 587.859 636.529 588.121C636.36 588.337 636.046 588.372 635.828 588.199ZM20.7058 500.752C20.439 500.817 20.1666 500.653 20.0975 500.384C20.0145 500.061 19.9317 499.738 19.8491 499.415C19.7804 499.146 19.9411 498.876 20.208 498.81C20.4749 498.745 20.747 498.91 20.8158 499.179C20.8982 499.502 20.9809 499.824 21.0638 500.146C21.1329 500.415 20.9726 500.686 20.7058 500.752ZM641.883 580.265C641.661 580.099 641.612 579.785 641.775 579.564C641.973 579.296 642.171 579.028 642.368 578.759C642.53 578.538 642.842 578.493 643.065 578.659C643.288 578.826 643.337 579.14 643.174 579.361C643.036 579.55 642.897 579.738 642.758 579.927C642.699 580.007 642.64 580.087 642.58 580.167C642.417 580.388 642.105 580.432 641.883 580.265ZM18.2875 491.09C18.0196 491.151 17.7496 490.983 17.6844 490.713C17.6064 490.39 17.5285 490.067 17.4508 489.744C17.386 489.474 17.5507 489.206 17.8185 489.144C18.0864 489.083 18.3562 489.252 18.421 489.522C18.4986 489.845 18.5763 490.167 18.6543 490.49C18.7195 490.759 18.5553 491.028 18.2875 491.09ZM647.719 572.146C647.493 571.986 647.436 571.673 647.593 571.447C647.783 571.175 647.972 570.902 648.161 570.628C648.317 570.403 648.628 570.349 648.855 570.509C649.082 570.669 649.14 570.982 648.984 571.207C648.794 571.482 648.604 571.755 648.414 572.029C648.257 572.254 647.946 572.307 647.719 572.146ZM16.0075 481.383C15.7387 481.441 15.4712 481.268 15.41 480.998C15.3368 480.675 15.2638 480.351 15.1911 480.028C15.1303 479.757 15.2989 479.491 15.5677 479.434C15.8366 479.377 16.1038 479.549 16.1647 479.82C16.2373 480.143 16.3101 480.466 16.3832 480.789C16.4445 481.059 16.2763 481.325 16.0075 481.383ZM653.326 563.87C653.096 563.715 653.03 563.404 653.181 563.174C653.364 562.896 653.546 562.617 653.728 562.337C653.878 562.107 654.187 562.045 654.419 562.199C654.65 562.353 654.716 562.664 654.566 562.894C654.383 563.174 654.2 563.454 654.017 563.733C653.867 563.963 653.557 564.024 653.326 563.87ZM13.8735 471.657C13.6039 471.711 13.3389 471.534 13.2817 471.263C13.213 470.937 13.1446 470.611 13.0764 470.285C13.0196 470.014 13.1921 469.751 13.4619 469.697C13.7316 469.644 13.9963 469.821 14.0531 470.093C14.1212 470.418 14.1896 470.743 14.2581 471.069C14.3154 471.34 14.1432 471.604 13.8735 471.657ZM658.707 555.444C658.472 555.295 658.399 554.986 658.543 554.752C658.718 554.469 658.893 554.186 659.067 553.902C659.211 553.668 659.518 553.598 659.753 553.746C659.988 553.893 660.063 554.203 659.919 554.437C659.744 554.721 659.569 555.005 659.394 555.289C659.249 555.523 658.942 555.592 658.707 555.444ZM11.8852 461.902C11.6148 461.951 11.3524 461.771 11.2993 461.499C11.2357 461.173 11.1723 460.847 11.1092 460.52C11.0565 460.248 11.2331 459.988 11.5036 459.939C11.7742 459.889 12.0362 460.07 12.089 460.343C12.152 460.668 12.2153 460.994 12.2788 461.319C12.3319 461.591 12.1558 461.852 11.8852 461.902ZM663.868 546.867C663.63 546.725 663.548 546.418 663.687 546.18C663.854 545.893 664.021 545.605 664.188 545.317C664.326 545.079 664.631 545.001 664.87 545.143C665.108 545.284 665.19 545.591 665.053 545.829C664.886 546.118 664.718 546.407 664.55 546.695C664.412 546.932 664.106 547.01 663.868 546.867ZM10.0437 452.11C9.77248 452.155 9.5129 451.971 9.46393 451.698L9.28914 450.719C9.24062 450.446 9.42121 450.188 9.69258 450.143C9.9639 450.098 10.2232 450.283 10.2717 450.556C10.3297 450.882 10.3878 451.208 10.4463 451.534C10.4952 451.807 10.315 452.065 10.0437 452.11ZM668.799 538.169C668.557 538.033 668.468 537.728 668.6 537.487C668.76 537.195 668.92 536.902 669.08 536.61C669.211 536.369 669.514 536.283 669.756 536.418C669.999 536.553 670.088 536.859 669.957 537.1C669.797 537.393 669.637 537.686 669.476 537.979C669.344 538.22 669.041 538.305 668.799 538.169ZM8.35526 442.302C8.08325 442.343 7.82655 442.154 7.78185 441.881C7.72826 441.553 7.67493 441.224 7.62186 440.896C7.5776 440.622 7.76232 440.368 8.03434 440.327C8.30642 440.286 8.56283 440.475 8.60709 440.749C8.6601 441.077 8.71337 441.404 8.76684 441.732C8.81154 442.006 8.62728 442.261 8.35526 442.302ZM673.512 529.338C673.266 529.208 673.17 528.904 673.296 528.66C673.448 528.364 673.601 528.068 673.753 527.772C673.878 527.527 674.179 527.433 674.424 527.563C674.67 527.692 674.767 527.995 674.642 528.24C674.489 528.537 674.337 528.834 674.184 529.13C674.058 529.375 673.757 529.467 673.512 529.338ZM6.82112 432.469C6.54841 432.506 6.29472 432.313 6.25434 432.039C6.20607 431.71 6.15806 431.382 6.11024 431.053C6.07035 430.779 6.25913 430.527 6.53185 430.491C6.80463 430.455 7.05802 430.648 7.09791 430.922C7.14561 431.25 7.19356 431.578 7.24183 431.906C7.28215 432.18 7.09377 432.432 6.82112 432.469ZM678 520.391C677.751 520.267 677.647 519.967 677.767 519.719C677.913 519.419 678.058 519.119 678.202 518.818C678.322 518.571 678.62 518.47 678.868 518.593C679.117 518.716 679.222 519.017 679.102 519.265C678.957 519.566 678.812 519.867 678.666 520.167C678.546 520.415 678.248 520.515 678 520.391ZM5.44404 422.609C5.1707 422.641 4.92009 422.444 4.8842 422.169C4.84132 421.841 4.79864 421.512 4.75627 421.183C4.72082 420.908 4.91369 420.66 5.1871 420.628C5.46045 420.596 5.71076 420.793 5.74615 421.068C5.78847 421.396 5.83109 421.725 5.87391 422.053C5.9098 422.328 5.71732 422.577 5.44404 422.609ZM682.266 511.331C682.015 511.214 681.904 510.915 682.017 510.665C682.155 510.361 682.293 510.058 682.43 509.754C682.543 509.503 682.839 509.395 683.09 509.512C683.341 509.629 683.453 509.927 683.34 510.178C683.203 510.482 683.065 510.787 682.927 511.091C682.813 511.341 682.517 511.449 682.266 511.331ZM4.22938 412.736C3.95554 412.764 3.70814 412.563 3.67686 412.288C3.63929 411.958 3.60204 411.628 3.56504 411.298C3.53414 411.022 3.73122 410.777 4.00512 410.75C4.27902 410.723 4.52607 410.924 4.55691 411.199C4.59385 411.529 4.63105 411.859 4.66856 412.188C4.69984 412.463 4.50327 412.709 4.22938 412.736ZM686.308 502.169C686.054 502.057 685.936 501.761 686.044 501.508C686.174 501.201 686.304 500.894 686.434 500.587C686.541 500.334 686.834 500.218 687.088 500.329C687.342 500.44 687.461 500.736 687.354 500.989C687.224 501.297 687.093 501.605 686.963 501.912C686.855 502.165 686.562 502.28 686.308 502.169ZM3.17979 402.845C2.90542 402.868 2.6614 402.663 2.63478 402.387C2.60284 402.057 2.57121 401.727 2.53984 401.397C2.51365 401.121 2.71487 400.879 2.98924 400.857C3.26367 400.834 3.50733 401.04 3.53352 401.315C3.56484 401.645 3.59642 401.975 3.6283 402.304C3.65492 402.58 3.45416 402.822 3.17979 402.845ZM690.128 492.903C689.871 492.798 689.746 492.505 689.847 492.249C689.97 491.939 690.093 491.629 690.215 491.318C690.316 491.062 690.606 490.94 690.862 491.044C691.119 491.149 691.245 491.442 691.144 491.698C691.022 492.009 690.899 492.32 690.775 492.631C690.674 492.887 690.384 493.008 690.128 492.903ZM2.29926 392.936C2.02449 392.954 1.78399 392.745 1.76209 392.469C1.7359 392.139 1.71002 391.808 1.6844 391.478C1.66305 391.202 1.86844 390.964 2.14327 390.946C2.41811 390.928 2.65819 391.138 2.67959 391.414C2.70517 391.744 2.731 392.074 2.75713 392.404C2.77903 392.68 2.57403 392.918 2.29926 392.936ZM693.719 483.55C693.461 483.451 693.328 483.161 693.423 482.903C693.539 482.589 693.654 482.275 693.769 481.962C693.864 481.703 694.15 481.573 694.409 481.672C694.668 481.771 694.801 482.06 694.707 482.319C694.592 482.633 694.476 482.947 694.36 483.262C694.265 483.52 693.978 483.649 693.719 483.55ZM1.59263 383.021C1.31748 383.034 1.08074 382.821 1.06373 382.544C1.0434 382.213 1.02337 381.882 1.0036 381.551C0.987146 381.274 1.19681 381.04 1.47197 381.027C1.74713 381.015 1.9835 381.228 2.00001 381.505C2.01974 381.835 2.03971 382.166 2.06006 382.497C2.07701 382.773 1.86773 383.008 1.59263 383.021ZM697.085 474.103C696.825 474.01 696.685 473.724 696.774 473.463C696.882 473.147 696.989 472.832 697.096 472.516C697.184 472.255 697.468 472.118 697.729 472.211C697.99 472.303 698.13 472.589 698.042 472.85C697.935 473.167 697.827 473.483 697.719 473.8C697.63 474.06 697.346 474.196 697.085 474.103ZM1.06381 373.094C0.7884 373.102 0.555502 372.885 0.543558 372.608C0.532132 372.345 0.520951 372.082 0.510015 371.819L0.50154 371.615C0.490087 371.338 0.704061 371.108 0.979471 371.1C1.25488 371.092 1.48741 371.31 1.49881 371.587C1.5125 371.918 1.52649 372.248 1.5408 372.579C1.55275 372.855 1.33916 373.086 1.06381 373.094ZM700.22 464.576C699.957 464.49 699.811 464.207 699.894 463.944C699.994 463.625 700.094 463.306 700.193 462.987C700.275 462.724 700.555 462.58 700.818 462.666C701.081 462.752 701.228 463.035 701.146 463.298C701.047 463.618 700.947 463.937 700.846 464.257C700.764 464.52 700.483 464.663 700.22 464.576ZM0.71751 363.162C0.441992 363.165 0.213057 362.943 0.206285 362.666L0.193658 362.143L0.182809 361.672C0.176532 361.395 0.394866 361.169 0.670446 361.167C0.946022 361.164 1.17448 361.387 1.18075 361.663C1.18823 361.994 1.19606 362.325 1.20415 362.655C1.21099 362.932 0.993092 363.159 0.71751 363.162ZM703.12 454.978C702.855 454.898 702.702 454.619 702.778 454.354C702.87 454.033 702.962 453.713 703.053 453.393C703.129 453.128 703.405 452.977 703.67 453.057C703.935 453.136 704.089 453.415 704.013 453.68C703.922 454.001 703.83 454.323 703.738 454.644C703.662 454.909 703.385 455.058 703.12 454.978ZM0.55866 353.228C0.282983 353.226 0.0583208 353 0.0568384 352.723C0.0550476 352.392 0.0535629 352.06 0.0523843 351.729C0.0514535 351.452 0.274122 351.23 0.549732 351.233C0.825404 351.236 1.04964 351.463 1.05058 351.739C1.05135 351.951 1.05219 352.163 1.05322 352.375L1.05502 352.732C1.0565 353.008 0.834276 353.231 0.55866 353.228ZM705.786 445.295C705.52 445.221 705.36 444.945 705.429 444.679C705.514 444.355 705.598 444.032 705.681 443.708C705.75 443.441 706.022 443.284 706.289 443.357C706.556 443.43 706.716 443.705 706.648 443.972C706.564 444.296 706.48 444.621 706.395 444.945C706.326 445.211 706.053 445.368 705.786 445.295ZM0.592035 343.296C0.316407 343.288 0.0961417 343.057 0.100119 342.781C0.102754 342.594 0.105517 342.406 0.108401 342.219L0.11523 341.787C0.119695 341.51 0.346732 341.293 0.622358 341.301C0.897981 341.31 1.11776 341.541 1.11324 341.817C1.10793 342.148 1.10287 342.479 1.09818 342.809C1.09427 343.086 0.867607 343.304 0.592035 343.296ZM708.206 435.564C707.937 435.497 707.771 435.226 707.834 434.957C707.91 434.63 707.986 434.304 708.062 433.977C708.124 433.708 708.392 433.544 708.66 433.61C708.929 433.676 709.096 433.948 709.034 434.216C708.958 434.544 708.882 434.872 708.806 435.199C708.743 435.467 708.474 435.631 708.206 435.564ZM0.822731 333.369C0.547286 333.356 0.331667 333.121 0.34115 332.845C0.352531 332.514 0.364283 332.183 0.376337 331.852C0.386429 331.575 0.617873 331.363 0.893312 331.377C1.16881 331.39 1.38394 331.626 1.37385 331.902C1.36182 332.232 1.35009 332.563 1.33873 332.893C1.32925 333.17 1.09824 333.383 0.822731 333.369ZM710.384 425.75C710.114 425.69 709.94 425.422 709.996 425.152C710.064 424.825 710.131 424.498 710.198 424.171C710.253 423.901 710.517 423.73 710.787 423.789C711.057 423.848 711.231 424.116 711.176 424.386C711.109 424.714 711.042 425.041 710.974 425.369C710.918 425.639 710.654 425.809 710.384 425.75ZM1.25605 323.451C0.980809 323.432 0.770086 323.193 0.785305 322.917C0.803523 322.586 0.822103 322.256 0.841047 321.925C0.856878 321.649 1.09276 321.442 1.36793 321.461C1.64317 321.481 1.85341 321.721 1.83764 321.997C1.81872 322.326 1.80016 322.656 1.78197 322.986C1.76675 323.262 1.53129 323.471 1.25605 323.451ZM712.306 415.89C712.035 415.837 711.854 415.574 711.903 415.303C711.963 414.973 712.022 414.643 712.08 414.313C712.128 414.041 712.387 413.863 712.659 413.915C712.93 413.967 713.111 414.23 713.063 414.501C713.004 414.832 712.945 415.163 712.886 415.494C712.837 415.765 712.577 415.943 712.306 415.89ZM1.89719 313.549C1.62235 313.524 1.41671 313.28 1.43777 313.004C1.46306 312.674 1.48871 312.344 1.51473 312.014C1.5364 311.739 1.77676 311.536 2.05152 311.562C2.32629 311.587 2.53151 311.831 2.50977 312.107C2.48385 312.436 2.45828 312.766 2.43302 313.095C2.41196 313.371 2.17202 313.574 1.89719 313.549ZM713.967 405.988C713.694 405.942 713.507 405.684 713.549 405.411C713.599 405.082 713.649 404.753 713.698 404.423C713.739 404.15 713.994 403.965 714.266 404.01C714.539 404.055 714.727 404.313 714.686 404.586C714.636 404.916 714.586 405.246 714.536 405.576C714.494 405.849 714.239 406.034 713.967 405.988ZM2.7515 303.666C2.47721 303.635 2.27684 303.387 2.30398 303.112C2.33647 302.782 2.36927 302.453 2.40249 302.124C2.43024 301.849 2.67505 301.652 2.94926 301.684C3.22354 301.715 3.42337 301.964 3.39563 302.238C3.36249 302.567 3.32972 302.895 3.29731 303.224C3.27018 303.499 3.0258 303.697 2.7515 303.666ZM715.364 396.017C715.091 395.979 714.897 395.726 714.931 395.452C714.972 395.119 715.013 394.787 715.054 394.455C715.087 394.181 715.336 393.989 715.609 394.027C715.883 394.064 716.078 394.316 716.044 394.591C716.004 394.924 715.963 395.257 715.921 395.59C715.887 395.864 715.638 396.055 715.364 396.017ZM3.82466 293.806C3.55099 293.768 3.35619 293.516 3.3895 293.242C3.4294 292.913 3.46966 292.585 3.51028 292.257C3.5442 291.982 3.79342 291.791 4.06701 291.829C4.34054 291.867 4.5348 292.12 4.50088 292.394C4.46035 292.721 4.42018 293.049 4.38038 293.377C4.34706 293.651 4.09826 293.843 3.82466 293.806ZM716.481 386.037C716.207 386.007 716.006 385.759 716.032 385.484C716.064 385.149 716.096 384.814 716.127 384.479C716.153 384.204 716.396 384.005 716.671 384.035C716.945 384.065 717.147 384.311 717.121 384.587C717.09 384.922 717.058 385.258 717.026 385.594C716.999 385.869 716.755 386.068 716.481 386.037ZM5.12162 283.977C4.84885 283.934 4.65986 283.677 4.69946 283.404C4.74691 283.076 4.79479 282.749 4.84302 282.421C4.88328 282.148 5.13696 281.963 5.40965 282.007C5.68235 282.051 5.87079 282.308 5.83053 282.582C5.78239 282.908 5.73467 283.235 5.68731 283.561C5.64765 283.835 5.3944 284.021 5.12162 283.977ZM717.315 376C717.04 375.978 716.832 375.736 716.85 375.46C716.872 375.127 716.894 374.794 716.915 374.461C716.933 374.185 717.17 373.979 717.445 374.001C717.721 374.022 717.929 374.263 717.912 374.539C717.89 374.873 717.868 375.207 717.846 375.541C717.828 375.817 717.59 376.022 717.315 376ZM6.64805 274.185C6.3763 274.135 6.19332 273.874 6.23941 273.602L6.31385 273.164C6.34455 272.984 6.37537 272.804 6.40625 272.624C6.45295 272.352 6.7111 272.173 6.9827 272.223C7.25437 272.274 7.43669 272.536 7.38999 272.808C7.3341 273.133 7.27862 273.458 7.22357 273.783C7.17747 274.055 6.91979 274.235 6.64805 274.185ZM717.851 365.943C717.575 365.929 717.36 365.694 717.37 365.418C717.382 365.082 717.394 364.747 717.405 364.411C717.415 364.135 717.645 363.921 717.921 363.935C718.196 363.948 718.412 364.182 718.403 364.459C718.392 364.795 718.38 365.132 718.368 365.468C718.358 365.744 718.126 365.957 717.851 365.943ZM8.40915 264.435C8.13858 264.379 7.96201 264.113 8.01471 263.842C8.07786 263.518 8.14137 263.193 8.20535 262.869C8.25871 262.598 8.52118 262.425 8.79162 262.483C9.06205 262.54 9.23801 262.806 9.18464 263.077C9.12082 263.4 9.05747 263.724 8.99449 264.047C8.94178 264.318 8.67973 264.492 8.40915 264.435ZM718.077 355.905C717.801 355.899 717.579 355.671 717.58 355.394C717.582 355.057 717.583 354.719 717.584 354.382C717.585 354.105 717.809 353.885 718.084 353.889C718.36 353.893 718.583 354.121 718.582 354.398C718.582 354.736 718.58 355.075 718.579 355.413C718.577 355.69 718.353 355.91 718.077 355.905ZM10.4098 254.736C10.1407 254.673 9.97066 254.403 10.0301 254.134C10.0661 253.971 10.1022 253.807 10.1384 253.644C10.1739 253.485 10.2094 253.325 10.2451 253.166C10.3052 252.897 10.572 252.731 10.841 252.795C11.1101 252.859 11.2794 253.129 11.2192 253.398C11.1473 253.72 11.0759 254.042 11.0049 254.363C10.9454 254.633 10.679 254.8 10.4098 254.736ZM717.981 345.801C717.706 345.805 717.476 345.584 717.468 345.307C717.459 344.973 717.449 344.638 717.439 344.304C717.43 344.028 717.647 343.8 717.922 343.795C718.198 343.79 718.428 344.011 718.437 344.287C718.447 344.622 718.457 344.958 718.466 345.293C718.474 345.57 718.257 345.797 717.981 345.801ZM12.6553 245.094C12.3877 245.024 12.2246 244.75 12.2909 244.482C12.3346 244.306 12.3785 244.129 12.4224 243.953C12.4584 243.809 12.4945 243.665 12.5307 243.52C12.5977 243.253 12.8688 243.094 13.1361 243.165C13.4035 243.236 13.5659 243.51 13.4989 243.777C13.4187 244.097 13.3391 244.417 13.2598 244.737C13.1934 245.004 12.9228 245.164 12.6553 245.094ZM717.548 335.734C717.273 335.748 717.036 335.535 717.019 335.258C716.998 334.922 716.977 334.586 716.955 334.251C716.937 333.974 717.145 333.739 717.42 333.724C717.695 333.71 717.933 333.922 717.951 334.199C717.973 334.535 717.994 334.873 718.015 335.21C718.032 335.486 717.823 335.721 717.548 335.734ZM15.1495 235.518C14.8838 235.44 14.7278 235.162 14.8011 234.897C14.8446 234.739 14.8881 234.582 14.9317 234.425C14.9764 234.264 15.0212 234.103 15.0661 233.942C15.1402 233.677 15.4154 233.525 15.6809 233.603C15.9464 233.681 16.1017 233.959 16.0276 234.225C15.9391 234.542 15.851 234.859 15.7634 235.177C15.69 235.442 15.4152 235.595 15.1495 235.518ZM716.764 325.702C716.49 325.726 716.245 325.521 716.218 325.245C716.186 324.913 716.153 324.582 716.119 324.251C716.091 323.975 716.29 323.732 716.564 323.708C716.839 323.683 717.084 323.887 717.112 324.162C717.146 324.495 717.179 324.828 717.212 325.161C717.239 325.436 717.038 325.679 716.764 325.702ZM17.8974 226.014C17.6337 225.929 17.4852 225.647 17.5657 225.384C17.6621 225.068 17.7589 224.753 17.8561 224.437C17.9373 224.174 18.2166 224.03 18.48 224.115C18.7435 224.2 18.8912 224.483 18.81 224.746C18.713 225.06 18.6165 225.375 18.5204 225.69C18.4399 225.953 18.161 226.098 17.8974 226.014ZM715.604 315.655C715.331 315.688 715.08 315.493 715.042 315.219C714.997 314.887 714.951 314.555 714.904 314.224C714.865 313.949 715.055 313.698 715.328 313.664C715.601 313.629 715.854 313.823 715.892 314.097C715.939 314.43 715.985 314.763 716.031 315.096C716.068 315.371 715.878 315.621 715.604 315.655ZM20.9022 216.592C20.6409 216.501 20.5001 216.215 20.5878 215.954C20.635 215.813 20.6823 215.673 20.7297 215.532C20.7879 215.36 20.8461 215.187 20.9044 215.015C20.9928 214.754 21.2762 214.618 21.5372 214.71C21.7983 214.802 21.9383 215.089 21.8499 215.35C21.7442 215.661 21.639 215.973 21.5341 216.286C21.4465 216.547 21.1636 216.684 20.9022 216.592ZM714.059 305.686C713.788 305.731 713.528 305.546 713.48 305.273C713.421 304.941 713.361 304.609 713.301 304.278C713.251 304.005 713.431 303.747 713.702 303.701C713.973 303.654 714.233 303.838 714.283 304.111C714.343 304.444 714.403 304.777 714.462 305.11C714.511 305.383 714.33 305.641 714.059 305.686ZM24.1667 207.264C23.9079 207.165 23.7751 206.875 23.8701 206.617C23.923 206.473 23.9759 206.329 24.029 206.185C24.0901 206.02 24.1514 205.854 24.2128 205.688C24.3085 205.43 24.5956 205.302 24.8541 205.401C25.1126 205.501 25.2446 205.791 25.1489 206.049C25.0346 206.358 24.9206 206.666 24.8072 206.975C24.7122 207.233 24.4254 207.363 24.1667 207.264ZM712.108 295.801C711.839 295.858 711.573 295.684 711.513 295.413C711.44 295.086 711.367 294.759 711.293 294.432C711.231 294.161 711.4 293.895 711.668 293.838C711.937 293.78 712.205 293.952 712.266 294.223C712.34 294.551 712.414 294.88 712.487 295.208C712.547 295.479 712.377 295.745 712.108 295.801ZM27.6958 198.031C27.4398 197.924 27.3153 197.631 27.4176 197.376C27.5401 197.07 27.663 196.765 27.7864 196.459C27.8894 196.204 28.1802 196.084 28.4358 196.191C28.6915 196.298 28.8152 196.591 28.7122 196.846C28.5891 197.151 28.4666 197.456 28.3445 197.761C28.2422 198.016 27.9517 198.137 27.6958 198.031ZM709.717 285.959C709.451 286.028 709.177 285.866 709.105 285.598C709.017 285.275 708.93 284.951 708.841 284.629C708.767 284.361 708.923 284.087 709.189 284.017C709.455 283.947 709.73 284.107 709.803 284.375C709.892 284.699 709.98 285.024 710.068 285.349C710.14 285.617 709.983 285.89 709.717 285.959ZM31.488 188.912C31.2351 188.798 31.1191 188.502 31.2288 188.249C31.3604 187.947 31.4925 187.644 31.6251 187.342C31.7356 187.09 32.0298 186.979 32.2823 187.093C32.5349 187.207 32.6501 187.504 32.5397 187.756C32.4074 188.058 32.2758 188.359 32.1445 188.661C32.0348 188.913 31.7408 189.026 31.488 188.912ZM706.88 276.259C706.618 276.341 706.337 276.193 706.252 275.928C706.149 275.607 706.045 275.287 705.94 274.967C705.854 274.703 705.996 274.422 706.258 274.339C706.52 274.256 706.802 274.403 706.888 274.667C706.993 274.988 707.098 275.31 707.201 275.633C707.286 275.897 707.143 276.178 706.88 276.259ZM35.5459 179.913C35.2964 179.792 35.189 179.492 35.3062 179.243C35.4465 178.945 35.5873 178.647 35.7286 178.35C35.8464 178.101 36.144 177.999 36.3931 178.12C36.6423 178.242 36.7488 178.542 36.6308 178.791C36.49 179.088 36.3496 179.385 36.2098 179.682C36.0926 179.93 35.7954 180.034 35.5459 179.913ZM703.578 266.726C703.321 266.821 703.032 266.687 702.934 266.427C702.814 266.11 702.694 265.794 702.572 265.478C702.473 265.219 702.6 264.93 702.857 264.834C703.114 264.738 703.403 264.87 703.503 265.129C703.625 265.447 703.746 265.765 703.867 266.083C703.965 266.343 703.836 266.631 703.578 266.726ZM39.8749 171.033C39.629 170.905 39.5307 170.602 39.6552 170.357C39.8041 170.064 39.9535 169.771 40.1033 169.479C40.2286 169.234 40.5292 169.141 40.7747 169.27C41.0202 169.399 41.1177 169.702 40.9924 169.947C40.9066 170.114 40.821 170.282 40.7356 170.449C40.6722 170.573 40.6089 170.698 40.5457 170.822C40.4211 171.067 40.1208 171.162 39.8749 171.033ZM699.77 257.338C699.518 257.447 699.223 257.329 699.111 257.074C698.976 256.768 698.84 256.462 698.703 256.157C698.59 255.903 698.701 255.608 698.953 255.497C699.204 255.387 699.499 255.503 699.613 255.757C699.75 256.064 699.887 256.372 700.023 256.68C700.135 256.934 700.022 257.229 699.77 257.338ZM44.463 162.306C44.221 162.17 44.1318 161.865 44.2637 161.624C44.3582 161.451 44.4529 161.278 44.5477 161.106C44.6118 160.989 44.676 160.873 44.7402 160.756C44.8729 160.516 45.1763 160.431 45.4179 160.568C45.6595 160.704 45.7479 161.01 45.6152 161.251C45.4564 161.539 45.298 161.827 45.1401 162.115C45.0082 162.356 44.705 162.442 44.463 162.306ZM695.453 248.18C695.208 248.303 694.907 248.203 694.78 247.955C694.627 247.655 694.473 247.356 694.319 247.058C694.191 246.811 694.285 246.51 694.53 246.385C694.774 246.26 695.075 246.359 695.203 246.605C695.359 246.906 695.513 247.207 695.667 247.508C695.794 247.756 695.698 248.056 695.453 248.18ZM49.3183 153.721C49.0804 153.578 49.0005 153.27 49.1398 153.034C49.3065 152.75 49.4737 152.467 49.6414 152.184C49.7815 151.948 50.0874 151.873 50.3249 152.016C50.5623 152.16 50.6413 152.468 50.5013 152.705C50.3341 152.987 50.1674 153.269 50.0011 153.552C49.8619 153.789 49.5561 153.864 49.3183 153.721ZM690.615 239.299C690.378 239.437 690.072 239.355 689.931 239.115C689.76 238.824 689.588 238.534 689.415 238.245C689.273 238.006 689.348 237.699 689.584 237.56C689.82 237.42 690.127 237.5 690.269 237.739C690.443 238.03 690.616 238.322 690.789 238.615C690.93 238.854 690.852 239.161 690.615 239.299ZM54.4437 145.282C54.2103 145.131 54.1398 144.821 54.2863 144.589C54.3746 144.449 54.4629 144.309 54.5513 144.17L54.82 143.746C54.9672 143.514 55.2754 143.448 55.5085 143.599C55.7416 143.75 55.8113 144.06 55.6641 144.292L55.3959 144.716C55.3077 144.855 55.2197 144.994 55.1318 145.133C54.9852 145.366 54.6772 145.432 54.4437 145.282ZM685.24 230.728C685.013 230.881 684.702 230.819 684.547 230.588C684.453 230.45 684.359 230.311 684.264 230.173L683.981 229.757C683.824 229.527 683.881 229.216 684.108 229.062C684.335 228.908 684.646 228.97 684.802 229.199L685.086 229.615C685.133 229.685 685.181 229.755 685.228 229.825C685.276 229.894 685.323 229.964 685.37 230.033C685.526 230.264 685.468 230.575 685.24 230.728ZM679.579 222.444C679.353 222.599 679.042 222.539 678.884 222.309L678.318 221.485C678.16 221.256 678.216 220.945 678.442 220.79C678.668 220.635 678.979 220.695 679.137 220.924L679.704 221.748C679.861 221.978 679.805 222.289 679.579 222.444ZM59.8089 136.946C59.5783 136.791 59.5139 136.48 59.6649 136.251C59.8446 135.978 60.0243 135.706 60.2041 135.434C60.3555 135.205 60.665 135.145 60.8953 135.3C61.1256 135.455 61.1895 135.767 61.038 135.996C60.8586 136.267 60.6792 136.539 60.4999 136.811C60.3489 137.041 60.0395 137.101 59.8089 136.946ZM673.887 214.195C673.662 214.351 673.35 214.293 673.192 214.064L672.62 213.241C672.462 213.013 672.516 212.701 672.741 212.545C672.966 212.389 673.278 212.447 673.436 212.676L674.008 213.499C674.167 213.728 674.112 214.039 673.887 214.195ZM65.2837 128.792C65.0561 128.633 64.9978 128.32 65.1533 128.094C65.3409 127.821 65.5285 127.549 65.7162 127.277C65.8723 127.051 66.1829 126.998 66.4102 127.158C66.6374 127.317 66.6951 127.63 66.5392 127.856C66.3519 128.127 66.1646 128.399 65.9774 128.671C65.8218 128.897 65.5113 128.951 65.2837 128.792ZM668.157 205.981C667.933 206.139 667.621 206.082 667.461 205.854C667.269 205.58 667.077 205.306 666.884 205.032C666.724 204.805 666.777 204.493 667.001 204.336C667.226 204.178 667.537 204.235 667.697 204.463C667.89 204.736 668.082 205.01 668.275 205.285C668.435 205.512 668.382 205.824 668.157 205.981ZM70.9086 120.776C70.6844 120.612 70.6326 120.298 70.7929 120.075C70.9825 119.812 71.1721 119.549 71.3618 119.286C71.5226 119.064 71.8344 119.017 72.0583 119.182C72.2822 119.346 72.3334 119.66 72.1725 119.882C71.9833 120.144 71.7941 120.406 71.6049 120.669C71.4446 120.892 71.1329 120.94 70.9086 120.776ZM662.38 197.8C662.156 197.959 661.844 197.904 661.683 197.677C661.49 197.406 661.297 197.135 661.104 196.865C660.943 196.638 660.993 196.326 661.216 196.167C661.44 196.008 661.752 196.063 661.913 196.289C662.106 196.56 662.299 196.831 662.492 197.103C662.654 197.329 662.603 197.642 662.38 197.8ZM76.7608 112.816C76.5403 112.647 76.4955 112.332 76.6609 112.113C76.8576 111.853 77.0544 111.593 77.2511 111.334C77.417 111.115 77.7299 111.075 77.9501 111.245C78.1702 111.414 78.2142 111.729 78.0483 111.948C77.852 112.206 77.6557 112.466 77.4595 112.725C77.2941 112.944 76.9813 112.985 76.7608 112.816ZM656.54 189.648C656.318 189.808 656.005 189.755 655.842 189.53C655.647 189.259 655.452 188.989 655.257 188.719C655.094 188.494 655.142 188.181 655.364 188.021C655.586 187.86 655.898 187.913 656.062 188.138C656.257 188.408 656.452 188.679 656.648 188.949C656.811 189.175 656.762 189.487 656.54 189.648ZM82.7682 105.039C82.5518 104.864 82.5147 104.549 82.6854 104.334C82.8906 104.076 83.0959 103.818 83.3011 103.561C83.4724 103.347 83.7863 103.315 84.0023 103.49C84.2183 103.664 84.2546 103.98 84.0834 104.194C83.8786 104.451 83.6738 104.708 83.4692 104.965C83.2985 105.18 82.9846 105.213 82.7682 105.039ZM650.643 181.544C650.422 181.706 650.109 181.656 649.945 181.432C649.825 181.269 649.705 181.106 649.586 180.944L649.351 180.625C649.186 180.401 649.232 180.088 649.453 179.925C649.674 179.763 649.986 179.813 650.151 180.037C650.349 180.306 650.547 180.575 650.745 180.845C650.91 181.069 650.864 181.382 650.643 181.544ZM644.682 173.496C644.463 173.66 644.15 173.613 643.983 173.39C643.782 173.122 643.582 172.854 643.381 172.587C643.214 172.364 643.257 172.051 643.476 171.886C643.696 171.722 644.009 171.769 644.176 171.992C644.377 172.259 644.577 172.527 644.778 172.796C644.945 173.018 644.902 173.332 644.682 173.496ZM88.9473 97.4449C88.7353 97.2651 88.7063 96.9489 88.8826 96.7387C89.0965 96.4835 89.3105 96.229 89.5245 95.9751C89.7013 95.7653 90.0161 95.7415 90.2276 95.9219C90.439 96.1023 90.4671 96.4186 90.2903 96.6283C90.1446 96.8012 89.9989 96.9744 89.8532 97.1479L89.6501 97.3899C89.4739 97.6001 89.1592 97.6248 88.9473 97.4449ZM638.648 165.505C638.43 165.672 638.117 165.628 637.948 165.407L637.34 164.611C637.17 164.39 637.21 164.076 637.428 163.91C637.645 163.743 637.959 163.787 638.128 164.008L638.737 164.804C638.906 165.025 638.866 165.339 638.648 165.505ZM95.3641 89.9819C95.1572 89.7963 95.137 89.4795 95.3191 89.2744C95.5343 89.0319 95.7496 88.79 95.9649 88.5488C96.1476 88.3442 96.463 88.3292 96.6694 88.5154C96.8759 88.7016 96.8951 89.0184 96.7125 89.223C96.4977 89.4636 96.2831 89.7047 96.0685 89.9465C95.8865 90.1516 95.5711 90.1675 95.3641 89.9819ZM632.522 157.565C632.306 157.733 631.992 157.693 631.82 157.473C631.615 157.211 631.41 156.949 631.205 156.686C631.034 156.467 631.07 156.153 631.285 155.984C631.501 155.815 631.815 155.855 631.987 156.074C632.192 156.337 632.397 156.599 632.603 156.862C632.774 157.081 632.738 157.396 632.522 157.565ZM101.997 82.7064C101.796 82.5148 101.785 82.1977 101.973 81.9982C102.107 81.8566 102.24 81.7153 102.374 81.5742C102.464 81.4783 102.555 81.3824 102.646 81.2867C102.835 81.0877 103.151 81.0823 103.351 81.2745C103.552 81.4668 103.562 81.7839 103.373 81.9828C103.279 82.0824 103.184 82.1821 103.09 82.2819C102.961 82.4184 102.832 82.5551 102.703 82.692C102.514 82.8916 102.199 82.898 101.997 82.7064ZM626.31 149.698C626.096 149.87 625.781 149.833 625.607 149.616C625.399 149.355 625.19 149.095 624.981 148.835C624.807 148.618 624.84 148.303 625.053 148.131C625.267 147.959 625.581 147.996 625.755 148.213C625.902 148.396 626.049 148.578 626.195 148.761L626.382 148.995C626.556 149.212 626.524 149.527 626.31 149.698ZM108.836 75.6572C108.64 75.4594 108.639 75.1422 108.834 74.9488C109.067 74.7168 109.3 74.4854 109.534 74.2546C109.729 74.0619 110.045 74.0665 110.24 74.265C110.435 74.4634 110.434 74.7806 110.239 74.9733C110.007 75.2032 109.774 75.4339 109.541 75.6652C109.347 75.8586 109.031 75.855 108.836 75.6572ZM620.004 141.914C619.793 142.088 619.478 142.055 619.301 141.841C619.089 141.582 618.877 141.324 618.664 141.066C618.487 140.852 618.515 140.536 618.726 140.362C618.938 140.187 619.253 140.22 619.43 140.434C619.642 140.692 619.855 140.951 620.068 141.209C620.244 141.424 620.216 141.74 620.004 141.914ZM115.892 68.8466C115.703 68.6424 115.713 68.3256 115.914 68.1389C116.156 67.9137 116.398 67.6892 116.641 67.4653C116.842 67.2794 117.158 67.2947 117.346 67.4995C117.534 67.7043 117.523 68.0212 117.322 68.2071C117.08 68.4301 116.839 68.6539 116.597 68.8783C116.396 69.0649 116.081 69.0507 115.892 68.8466ZM613.598 134.22C613.389 134.397 613.074 134.369 612.895 134.156C612.678 133.9 612.462 133.645 612.245 133.39C612.065 133.178 612.089 132.862 612.297 132.684C612.506 132.506 612.821 132.534 613.001 132.746C613.13 132.898 613.258 133.049 613.387 133.201L613.652 133.514C613.831 133.726 613.807 134.042 613.598 134.22ZM123.176 62.2899C122.994 62.0792 123.015 61.7631 123.223 61.5837C123.474 61.3665 123.725 61.15 123.977 60.9342C124.185 60.7557 124.5 60.7822 124.681 60.9936C124.861 61.2048 124.839 61.5209 124.631 61.6995C124.381 61.9145 124.131 62.1302 123.88 62.3466C123.673 62.5259 123.358 62.5005 123.176 62.2899ZM607.074 126.612C606.868 126.793 606.552 126.769 606.37 126.56L606.121 126.275C605.985 126.119 605.849 125.964 605.713 125.809C605.53 125.6 605.549 125.283 605.755 125.102C605.96 124.921 606.276 124.944 606.459 125.154C606.678 125.404 606.897 125.655 607.116 125.906C607.299 126.115 607.28 126.432 607.074 126.612ZM130.72 55.9855C130.546 55.7683 130.579 55.4533 130.793 55.2819C131.046 55.079 131.3 54.8767 131.554 54.6751C131.768 54.5046 132.082 54.543 132.255 54.7608C132.428 54.9787 132.394 55.2935 132.18 55.464C131.927 55.6648 131.674 55.8663 131.422 56.0684C131.208 56.2398 130.893 56.2026 130.72 55.9855ZM600.428 119.106C600.225 119.291 599.909 119.272 599.723 119.066C599.499 118.818 599.276 118.571 599.053 118.325C598.866 118.118 598.879 117.802 599.082 117.617C599.285 117.433 599.601 117.45 599.787 117.657C600.011 117.904 600.235 118.151 600.458 118.399C600.645 118.606 600.631 118.922 600.428 119.106ZM593.658 111.719C593.458 111.907 593.142 111.894 592.952 111.691C592.724 111.447 592.496 111.204 592.268 110.961C592.078 110.758 592.085 110.441 592.284 110.253C592.484 110.065 592.8 110.077 592.99 110.279C593.14 110.439 593.29 110.599 593.44 110.759L593.675 111.011C593.865 111.214 593.857 111.531 593.658 111.719ZM138.501 49.9767C138.336 49.753 138.381 49.4397 138.602 49.277C138.864 49.0833 139.127 48.8905 139.389 48.6983C139.61 48.5364 139.923 48.5871 140.087 48.8114C140.252 49.0357 140.206 49.3489 139.984 49.5107C139.723 49.7021 139.461 49.8942 139.2 50.087C138.979 50.2498 138.667 50.2004 138.501 49.9767ZM586.756 104.461C586.56 104.652 586.244 104.646 586.05 104.446C585.817 104.207 585.584 103.967 585.351 103.728C585.157 103.529 585.158 103.212 585.354 103.02C585.55 102.828 585.866 102.834 586.06 103.033C586.293 103.272 586.527 103.512 586.76 103.752C586.954 103.952 586.952 104.269 586.756 104.461ZM146.512 44.2897C146.356 44.0596 146.413 43.7486 146.641 43.5949C146.912 43.4117 147.183 43.2291 147.454 43.0474C147.682 42.8947 147.992 42.9579 148.147 43.1887C148.303 43.4194 148.244 43.7302 148.016 43.8828C147.746 44.0639 147.476 44.2457 147.206 44.4281C146.979 44.5818 146.668 44.5198 146.512 44.2897ZM579.716 97.3421C579.524 97.5379 579.208 97.5381 579.01 97.3427C578.772 97.1075 578.534 96.8726 578.295 96.638C578.097 96.443 578.092 96.1258 578.283 95.9296C578.475 95.7335 578.791 95.7325 578.989 95.9275C579.228 96.1626 579.467 96.398 579.705 96.6337C579.903 96.8292 579.908 97.1463 579.716 97.3421ZM154.749 38.9419C154.603 38.7057 154.673 38.3975 154.906 38.2536C155.185 38.0815 155.465 37.9101 155.744 37.7395C155.978 37.5965 156.286 37.6727 156.431 37.9096C156.577 38.1465 156.506 38.4543 156.272 38.5973C155.993 38.7671 155.715 38.9378 155.437 39.1091C155.204 39.2531 154.896 39.1782 154.749 38.9419ZM572.524 90.3711C572.337 90.5712 572.021 90.5784 571.819 90.3874C571.577 90.1586 571.335 89.9302 571.093 89.7021C570.891 89.5115 570.878 89.1945 571.065 88.994C571.253 88.7935 571.568 88.7855 571.771 88.9761C572.013 89.2047 572.256 89.4336 572.498 89.6629C572.7 89.854 572.712 90.1711 572.524 90.3711ZM163.206 33.9495C163.069 33.7073 163.152 33.4025 163.392 33.2688C163.678 33.1086 163.965 32.9491 164.252 32.7904C164.492 32.6576 164.796 32.7468 164.932 32.9895C165.068 33.2322 164.983 33.5365 164.743 33.6693C164.457 33.8273 164.172 33.9862 163.886 34.1456C163.647 34.2794 163.342 34.1916 163.206 33.9495ZM565.174 83.5596C564.991 83.7641 564.676 83.7789 564.469 83.5926C564.222 83.3695 563.975 83.1469 563.728 82.9245C563.521 82.7387 563.501 82.4219 563.683 82.217C563.866 82.012 564.181 81.9965 564.388 82.1823C564.546 82.3245 564.704 82.4667 564.862 82.6091L565.131 82.852C565.338 83.0383 565.357 83.3551 565.174 83.5596ZM171.87 29.3256C171.744 29.078 171.84 28.7773 172.085 28.6539C172.27 28.5609 172.455 28.4683 172.64 28.3758C172.748 28.3213 172.857 28.267 172.966 28.2128C173.212 28.0905 173.512 28.1926 173.638 28.4407C173.763 28.6889 173.665 28.9892 173.42 29.1114C173.127 29.2572 172.835 29.4036 172.543 29.5507C172.298 29.674 171.997 29.5732 171.87 29.3256ZM557.667 76.9289C557.489 77.138 557.174 77.1607 556.963 76.9795C556.711 76.7624 556.458 76.5457 556.204 76.3293C555.993 76.1487 555.965 75.8324 556.142 75.6229C556.319 75.4133 556.634 75.3898 556.846 75.5704C557.099 75.7873 557.353 76.0046 557.606 76.2223C557.817 76.4034 557.844 76.7198 557.667 76.9289ZM180.729 25.0801C180.613 24.8274 180.722 24.5312 180.972 24.4186C181.114 24.3547 181.256 24.2909 181.398 24.2273C181.556 24.1566 181.714 24.0861 181.872 24.0157C182.123 23.9042 182.419 24.0189 182.534 24.272C182.648 24.5251 182.538 24.8208 182.288 24.9324C181.989 25.0655 181.69 25.1992 181.392 25.3336C181.141 25.4462 180.845 25.3328 180.729 25.0801ZM549.997 70.493C549.825 70.7068 549.511 70.7378 549.295 70.5623C549.037 70.3517 548.778 70.1415 548.519 69.9317C548.303 69.7567 548.267 69.4412 548.438 69.2269C548.61 69.0126 548.924 68.9807 549.14 69.1556C549.399 69.366 549.659 69.5768 549.918 69.788C550.133 69.9635 550.169 70.2791 549.997 70.493ZM189.765 21.2179C189.66 20.9607 189.782 20.6696 190.036 20.5677C190.342 20.4456 190.647 20.3242 190.952 20.2034C191.208 20.1026 191.499 20.2297 191.603 20.4873C191.707 20.7449 191.585 21.0355 191.329 21.1363C191.025 21.2566 190.721 21.3775 190.417 21.499C190.162 21.6009 189.87 21.4751 189.765 21.2179ZM198.96 17.7392C198.866 17.478 198.999 17.1923 199.258 17.101C199.568 16.9918 199.878 16.8833 200.188 16.7753C200.447 16.6851 200.733 16.824 200.827 17.0855C200.92 17.347 200.786 17.6321 200.527 17.7223C200.218 17.8299 199.909 17.938 199.6 18.0468C199.341 18.138 199.055 18.0003 198.96 17.7392ZM542.16 64.2665C541.994 64.4851 541.681 64.5249 541.461 64.3554C541.236 64.1821 541.011 64.0091 540.785 63.8364L540.668 63.7462C540.447 63.5773 540.402 63.2628 540.567 63.0437C540.733 62.8245 541.045 62.7838 541.266 62.9527C541.531 63.156 541.797 63.3596 542.062 63.5637C542.282 63.7332 542.326 64.0479 542.16 64.2665ZM208.294 14.6389C208.21 14.3743 208.354 14.0943 208.617 14.0135C208.931 13.9169 209.245 13.8208 209.559 13.7254C209.822 13.6457 210.102 13.7957 210.185 14.0606C210.269 14.3255 210.123 14.6049 209.86 14.6847C209.547 14.7797 209.234 14.8754 208.922 14.9716C208.659 15.0524 208.378 14.9035 208.294 14.6389ZM534.153 58.2644C533.994 58.4879 533.683 58.5369 533.458 58.3738C533.188 58.178 532.917 57.9827 532.647 57.7878C532.421 57.6254 532.367 57.3122 532.526 57.0883C532.685 56.8643 532.996 56.8144 533.221 56.9768C533.493 57.1722 533.764 57.3681 534.035 57.5644C534.26 57.7275 534.313 58.0409 534.153 58.2644ZM217.748 11.9073C217.673 11.6398 217.828 11.3657 218.094 11.295C218.267 11.249 218.44 11.2031 218.612 11.1574C218.757 11.1193 218.901 11.0813 219.046 11.0433C219.312 10.9736 219.586 11.134 219.659 11.4018C219.733 11.6695 219.576 11.943 219.311 12.0128C218.994 12.0958 218.678 12.1794 218.363 12.2635C218.097 12.3342 217.822 12.1747 217.748 11.9073ZM525.973 52.5012C525.821 52.7295 525.511 52.7881 525.282 52.632C525.006 52.4447 524.731 52.258 524.455 52.0716C524.225 51.9162 524.161 51.6047 524.313 51.3758C524.464 51.147 524.774 51.0874 525.004 51.2429C525.281 51.4298 525.557 51.6172 525.834 51.8049C526.063 51.9611 526.126 52.2728 525.973 52.5012ZM227.302 9.53023C227.237 9.2604 227.402 8.99213 227.67 8.93106C227.99 8.85827 228.309 8.78594 228.629 8.7142C228.898 8.65409 229.167 8.82424 229.23 9.09425C229.294 9.36428 229.128 9.63192 228.86 9.6921C228.541 9.76356 228.222 9.83561 227.904 9.90818C227.636 9.96925 227.366 9.80001 227.302 9.53023ZM517.621 46.993C517.476 47.2262 517.168 47.2946 516.934 47.1459C516.653 46.9675 516.371 46.7897 516.09 46.6123C515.855 46.4643 515.782 46.1548 515.926 45.921C516.07 45.6874 516.377 45.6179 516.612 45.7659C516.801 45.8848 516.989 46.0039 517.178 46.1232L517.459 46.3013C517.693 46.4501 517.766 46.7598 517.621 46.993ZM236.939 7.49016C236.884 7.21842 237.057 6.95605 237.327 6.90407L237.709 6.83093C237.903 6.79376 238.098 6.75678 238.292 6.72C238.563 6.6689 238.826 6.84794 238.881 7.11982C238.935 7.3917 238.761 7.65351 238.49 7.70455C238.17 7.76522 237.849 7.82641 237.529 7.88807C237.259 7.93999 236.995 7.76185 236.939 7.49016ZM509.1 41.7575C508.963 41.9956 508.658 42.0741 508.419 41.9331C508.305 41.8659 508.191 41.7989 508.077 41.7319C507.904 41.6302 507.731 41.5287 507.558 41.4273C507.319 41.2871 507.235 40.9801 507.371 40.7416C507.508 40.5031 507.813 40.4235 508.052 40.5637C508.238 40.6723 508.423 40.7811 508.608 40.8901C508.711 40.9504 508.813 41.0108 508.916 41.0712C509.155 41.2123 509.237 41.5195 509.1 41.7575ZM246.636 5.76807C246.589 5.49489 246.771 5.23819 247.043 5.19473C247.202 5.16938 247.36 5.1441 247.519 5.11895C247.686 5.09252 247.853 5.06622 248.02 5.03999C248.292 4.99736 248.549 5.1844 248.596 5.45772C248.642 5.7311 248.459 5.98721 248.187 6.02984C247.862 6.08084 247.538 6.13225 247.213 6.18412C246.942 6.22757 246.683 6.04132 246.636 5.76807ZM256.384 4.34089C256.345 4.06654 256.534 3.81534 256.807 3.77975C257.134 3.737 257.462 3.69473 257.79 3.65291C258.063 3.61808 258.316 3.81234 258.354 4.08677C258.393 4.36119 258.203 4.61193 257.93 4.64671C257.707 4.67522 257.483 4.70393 257.26 4.73284L256.949 4.77323C256.676 4.80882 256.423 4.61529 256.384 4.34089ZM500.415 36.8089C500.286 37.0516 499.984 37.1406 499.741 37.0077C499.449 36.8484 499.156 36.6896 498.864 36.5314C498.62 36.3993 498.526 36.0952 498.654 35.8521C498.782 35.609 499.084 35.519 499.328 35.6509C499.536 35.7635 499.744 35.8762 499.951 35.9892L500.208 36.129C500.451 36.2619 500.544 36.5663 500.415 36.8089ZM266.17 3.18527C266.138 2.91005 266.334 2.66399 266.608 2.63561C266.936 2.6016 267.265 2.568 267.594 2.53474C267.868 2.50711 268.115 2.70784 268.146 2.98308C268.178 3.25833 267.981 3.50387 267.707 3.53157C267.379 3.56469 267.051 3.59822 266.724 3.63216C266.45 3.66054 266.202 3.46042 266.17 3.18527ZM491.57 32.1602C491.449 32.4073 491.151 32.5068 490.903 32.3825C490.606 32.2335 490.308 32.0851 490.011 31.9371C489.762 31.8137 489.658 31.5129 489.777 31.2653C489.897 31.0177 490.195 30.9171 490.444 31.0406C490.742 31.1891 491.041 31.3381 491.339 31.4875C491.587 31.6119 491.69 31.913 491.57 32.1602ZM275.986 2.27756C275.96 2.00175 276.162 1.76055 276.436 1.73873C276.765 1.71265 277.094 1.68687 277.424 1.66148C277.698 1.64028 277.941 1.84678 277.966 2.12262C277.991 2.39841 277.789 2.63917 277.514 2.66036C277.185 2.68566 276.857 2.71137 276.529 2.73742C276.254 2.75924 276.011 2.5533 275.986 2.27756ZM285.824 1.59448C285.804 1.31824 286.011 1.0815 286.286 1.06566C286.615 1.04667 286.944 1.02803 287.274 1.00966C287.549 0.994381 287.787 1.20589 287.806 1.48212C287.825 1.75834 287.618 1.99465 287.343 2.00999L286.957 2.03158C286.757 2.04287 286.557 2.05428 286.357 2.06583C286.082 2.08167 285.843 1.87066 285.824 1.59448ZM482.569 27.823C482.458 28.0744 482.163 28.1846 481.911 28.0691C481.769 28.0041 481.627 27.9392 481.485 27.8745C481.325 27.8016 481.165 27.7287 481.005 27.6561C480.753 27.5415 480.638 27.2445 480.748 26.9927C480.859 26.7409 481.153 26.6296 481.406 26.7443C481.709 26.8819 482.012 27.0201 482.315 27.1587C482.567 27.2742 482.681 27.5717 482.569 27.823ZM295.679 1.11336C295.665 0.83691 295.876 0.60429 296.152 0.593729C296.48 0.581105 296.809 0.568818 297.138 0.556753C297.413 0.546689 297.648 0.762643 297.662 1.03915C297.676 1.31559 297.464 1.54784 297.188 1.5579C296.86 1.56993 296.532 1.58223 296.204 1.59482C295.928 1.60538 295.694 1.3898 295.679 1.11336ZM473.421 23.8077C473.318 24.0631 473.028 24.1839 472.772 24.0775C472.466 23.9505 472.16 23.824 471.854 23.698C471.598 23.5926 471.472 23.2998 471.574 23.044C471.675 22.7882 471.965 22.6664 472.222 22.7718C472.529 22.8983 472.836 23.0252 473.143 23.1527C473.399 23.2591 473.523 23.5523 473.421 23.8077ZM305.548 0.812546C305.538 0.535997 305.754 0.307062 306.029 0.301208L307.014 0.28111C307.29 0.275689 307.52 0.495531 307.53 0.77208C307.539 1.04869 307.323 1.27727 307.048 1.28269C306.72 1.28912 306.392 1.29583 306.064 1.30276C305.789 1.30862 305.558 1.08916 305.548 0.812546ZM315.428 0.671494C315.423 0.394892 315.642 0.169258 315.917 0.167546C316.245 0.165566 316.572 0.163745 316.9 0.162198C317.175 0.160919 317.403 0.384079 317.408 0.660753C317.413 0.937366 317.194 1.16271 316.918 1.16399C316.711 1.16499 316.504 1.16606 316.297 1.16727L315.937 1.16934C315.662 1.17106 315.434 0.948161 315.428 0.671494ZM464.146 20.1276C464.052 20.3867 463.767 20.518 463.507 20.421C463.195 20.3043 462.883 20.1881 462.57 20.0725C462.31 19.9764 462.174 19.6882 462.266 19.4287C462.359 19.1693 462.644 19.0369 462.904 19.133C463.217 19.2491 463.531 19.3657 463.844 19.4829C464.104 19.5799 464.239 19.8686 464.146 20.1276ZM325.311 0.670799C325.309 0.394197 325.531 0.17149 325.807 0.173419C326.136 0.175705 326.465 0.178274 326.794 0.180941C327.069 0.183238 327.294 0.409338 327.296 0.68596C327.297 0.962582 327.075 1.18501 326.799 1.1827L325.814 1.17523C325.538 1.1733 325.313 0.947466 325.311 0.670799ZM335.172 0.791734C335.173 0.515183 335.398 0.295038 335.673 0.300107C336.004 0.306176 336.336 0.312464 336.667 0.31891C336.943 0.324229 337.165 0.552821 337.164 0.829396C337.162 1.10597 336.938 1.3259 336.662 1.32052C336.331 1.31406 336 1.30782 335.669 1.30174C335.393 1.29667 335.171 1.06835 335.172 0.791734ZM454.752 16.7875C454.669 17.0499 454.388 17.1917 454.125 17.1041C453.81 16.9989 453.494 16.8942 453.177 16.7901C452.914 16.7035 452.768 16.4203 452.851 16.1576C452.934 15.8948 453.214 15.752 453.477 15.8386C453.626 15.888 453.776 15.9374 453.926 15.9869C454.093 16.0424 454.261 16.098 454.428 16.1538C454.691 16.2413 454.836 16.5251 454.752 16.7875ZM345.038 1.01739C345.042 0.740833 345.269 0.522948 345.544 0.530723C345.874 0.539958 346.204 0.549407 346.535 0.558953C346.81 0.566915 347.03 0.797555 347.026 1.07408C347.022 1.35061 346.795 1.56834 346.52 1.56032L345.53 1.53209C345.255 1.52438 345.034 1.29395 345.038 1.01739ZM445.247 13.7894C445.173 14.0547 444.898 14.2067 444.632 14.1287C444.441 14.0724 444.249 14.0163 444.057 13.9604C443.93 13.9234 443.803 13.8865 443.676 13.8497C443.41 13.7726 443.254 13.4948 443.327 13.2291C443.4 12.9634 443.675 12.8104 443.941 12.8875C444.261 12.9803 444.581 13.0737 444.9 13.1675C445.166 13.2456 445.321 13.5239 445.247 13.7894ZM354.912 1.33221C354.918 1.05577 355.146 0.839734 355.422 0.849784L356.408 0.885909C356.684 0.896081 356.902 1.12851 356.896 1.40492C356.889 1.68139 356.661 1.89723 356.385 1.88706C356.056 1.87489 355.728 1.86282 355.4 1.85091C355.124 1.84092 354.906 1.60871 354.912 1.33221ZM364.794 1.72199C364.802 1.44562 365.032 1.2312 365.308 1.24303L366.29 1.28566C366.565 1.29767 366.782 1.53143 366.774 1.80784C366.766 2.08425 366.536 2.29854 366.26 2.28652L365.279 2.24391C365.003 2.23209 364.786 1.99837 364.794 1.72199ZM435.64 11.1344C435.576 11.4025 435.306 11.5643 435.038 11.4959C434.718 11.414 434.397 11.3328 434.076 11.252C433.808 11.1845 433.642 10.9123 433.705 10.6441C433.769 10.3758 434.038 10.213 434.306 10.2804C434.628 10.3615 434.95 10.4431 435.272 10.5252C435.54 10.5936 435.705 10.8664 435.64 11.1344ZM374.679 2.17302C374.688 1.89673 374.919 1.68357 375.195 1.69693L376.196 1.74611C376.472 1.75997 376.687 1.99518 376.677 2.27147C376.667 2.54775 376.435 2.76055 376.16 2.74664L375.16 2.69757C374.885 2.68421 374.669 2.44937 374.679 2.17302ZM425.94 8.8218C425.885 9.09211 425.622 9.26348 425.352 9.20459C425.03 9.13445 424.708 9.06488 424.386 8.99576C424.115 8.93777 423.94 8.6715 423.994 8.401C424.048 8.1305 424.311 7.95819 424.581 8.01618C424.905 8.08552 425.228 8.15537 425.551 8.22578C425.821 8.28467 425.995 8.55149 425.94 8.8218ZM384.635 2.78245C384.653 2.50664 384.89 2.30049 385.165 2.32205C385.494 2.34782 385.823 2.3741 386.152 2.40082C386.427 2.42324 386.635 2.66492 386.616 2.94067C386.598 3.21642 386.36 3.42174 386.085 3.39938C385.757 3.37268 385.429 3.34654 385.101 3.32085C384.826 3.29929 384.617 3.05824 384.635 2.78245ZM416.173 6.8521C416.128 7.1243 415.871 7.30482 415.599 7.25537C415.271 7.19563 414.942 7.13647 414.613 7.07781C414.341 7.02932 414.157 6.76915 414.202 6.49682C414.246 6.22449 414.503 6.04302 414.775 6.09151C415.105 6.15039 415.434 6.20977 415.764 6.26966C416.035 6.31917 416.219 6.57989 416.173 6.8521ZM394.538 3.69984C394.565 3.42491 394.809 3.22655 395.083 3.25682C395.223 3.27239 395.364 3.288 395.504 3.30373C395.694 3.32491 395.884 3.34625 396.073 3.36783C396.347 3.39902 396.548 3.64711 396.52 3.92203C396.493 4.1969 396.249 4.39443 395.974 4.36325C395.646 4.32586 395.317 4.28898 394.987 4.25261C394.713 4.22234 394.512 3.97482 394.538 3.69984ZM406.374 5.22319C406.338 5.49689 406.087 5.68616 405.814 5.64594C405.485 5.59754 405.155 5.54959 404.826 5.50221C404.552 5.4629 404.359 5.20903 404.395 4.9352C404.43 4.66138 404.68 4.47122 404.954 4.51053C405.285 4.55812 405.615 4.60616 405.945 4.65477C406.218 4.69499 406.41 4.94949 406.374 5.22319Z" fill="#BF4643"/>
</svg>
