<svg width="729" height="718" viewBox="0 0 729 718" fill="none" xmlns="http://www.w3.org/2000/svg">
<path fill-rule="evenodd" clip-rule="evenodd" d="M440.653 691.665C534.489 659.871 626.767 600.621 676.41 533.37C725.992 466.202 737.314 369.007 719.877 280.405C702.435 191.779 656.292 112.088 591.343 79.7356C460.637 14.6285 340.563 -32.208 211.402 32.0611C150.054 62.587 99.8712 91.3731 63.8856 133.105C27.9322 174.799 6.07946 229.507 1.61536 312.014C-7.30619 476.905 85.0073 600.355 196.399 685.405C224.048 706.515 261.61 716.05 304.061 716.311C346.504 716.571 393.747 707.557 440.653 691.665ZM195.79 686.19C307.331 771.353 577.631 668.879 677.223 533.962C776.816 399.046 722.483 143.949 591.787 78.8477C461.092 13.7461 340.589 -33.3391 210.943 31.1711C88.2399 92.227 9.55766 146.61 0.611794 311.951C-8.33408 477.292 84.2499 601.027 195.79 686.19Z" fill="#BF4643"/>
</svg>
