<svg width="1600" height="2267" viewBox="0 0 1600 2267" fill="none" xmlns="http://www.w3.org/2000/svg">
<path d="M1113.63 1577.9C1284.04 1482.09 1606.25 1448.54 1690.37 1577.9C1774.49 1707.27 1841.52 1905.46 1757 2067.55C1672.47 2229.64 1561.43 2253.04 1398.98 2265.73C1227.35 2279.14 1116.17 2184.38 1001.94 2067.55C887.701 1950.71 943.222 1673.72 1113.63 1577.9Z" fill="#ECE8DD"/>
<path d="M1329.59 539.956C1492.02 448.601 1799.14 416.607 1879.32 539.956C1959.5 663.305 2023.39 852.271 1942.82 1006.82C1862.26 1161.38 1756.41 1183.69 1601.58 1195.79C1437.98 1208.58 1332.02 1118.22 1223.13 1006.82C1114.24 895.422 1167.16 631.311 1329.59 539.956Z" fill="white"/>
<path d="M-138.111 1421.91C-37.9412 1365.59 151.462 1345.86 200.91 1421.91C250.358 1497.96 289.757 1614.46 240.072 1709.75C190.387 1805.04 125.112 1818.79 29.624 1826.25C-71.2664 1834.14 -136.616 1778.43 -203.767 1709.75C-270.918 1641.07 -238.282 1478.23 -138.111 1421.91Z" fill="#FFC2BE" fill-opacity="0.32"/>
<path d="M-61.1224 1680.48C-60.5476 1680.15 -59.9711 1679.82 -59.393 1679.49L-59.1459 1679.92C-58.8575 1679.76 -58.5687 1679.6 -58.2795 1679.43C-57.9943 1679.27 -57.7085 1679.11 -57.4222 1678.95L-57.6661 1678.52C-57.092 1678.2 -56.5159 1677.88 -55.9376 1677.56L-55.6961 1678C-55.1186 1677.68 -54.5391 1677.36 -53.9575 1677.04L-54.1967 1676.6C-53.6143 1676.29 -53.0299 1675.97 -52.4435 1675.65L-52.2066 1676.1C-51.6209 1675.78 -51.0332 1675.47 -50.4435 1675.15L-50.6781 1674.71C-50.0876 1674.4 -49.4951 1674.08 -48.9007 1673.77L-48.6683 1674.22C-48.0746 1673.9 -47.479 1673.59 -46.8813 1673.28L-47.1114 1672.84C-46.513 1672.53 -45.9126 1672.22 -45.3103 1671.91L-45.0825 1672.36C-44.4971 1672.06 -43.91 1671.76 -43.321 1671.46L-43.5467 1671.01C-42.9581 1670.72 -42.3678 1670.42 -41.7756 1670.12L-41.5521 1670.57C-40.9606 1670.28 -40.3674 1669.98 -39.7724 1669.69L-39.9939 1669.24C-39.3982 1668.94 -38.8007 1668.65 -38.2015 1668.36L-37.9822 1668.81C-37.3837 1668.52 -36.7834 1668.22 -36.1815 1667.93L-36.3987 1667.48C-35.7961 1667.19 -35.1917 1666.9 -34.5856 1666.61L-34.3704 1667.07C-33.765 1666.78 -33.1579 1666.49 -32.549 1666.2L-32.7622 1665.75C-32.1549 1665.46 -31.546 1665.18 -30.9354 1664.89L-30.7243 1665.35C-30.128 1665.07 -29.53 1664.79 -28.9305 1664.52L-29.1396 1664.06C-28.5394 1663.79 -27.9377 1663.51 -27.3344 1663.24L-27.1273 1663.69C-26.5246 1663.42 -25.9205 1663.14 -25.3148 1662.87L-25.52 1662.41C-24.9136 1662.14 -24.3058 1661.87 -23.6964 1661.6L-23.4931 1662.05C-22.8844 1661.78 -22.2742 1661.51 -21.6625 1661.24L-21.8638 1660.79C-21.2515 1660.52 -20.6376 1660.25 -20.0223 1659.98L-19.8229 1660.44C-19.2082 1660.17 -18.5921 1659.91 -17.9745 1659.64L-18.172 1659.18C-17.5559 1658.92 -16.9382 1658.65 -16.3192 1658.39L-16.1236 1658.85C-15.5172 1658.59 -14.9094 1658.33 -14.3003 1658.08L-14.4942 1657.62C-13.8845 1657.36 -13.2734 1657.1 -12.661 1656.85L-12.469 1657.31C-11.8572 1657.06 -11.2441 1656.8 -10.6297 1656.55L-10.8199 1656.09C-10.2049 1655.84 -9.58855 1655.58 -8.97092 1655.33L-8.78249 1655.8C-8.16547 1655.54 -7.54715 1655.29 -6.92755 1655.04L-7.11418 1654.58C-6.49399 1654.33 -5.87251 1654.08 -5.24979 1653.83L-5.06494 1654.3C-4.44281 1654.05 -3.81941 1653.81 -3.19478 1653.56L-3.37787 1653.09C-2.75264 1652.85 -2.12617 1652.6 -1.49849 1652.36L-1.31717 1652.82C-0.70195 1652.59 -0.085556 1652.35 0.531998 1652.11L0.352402 1651.64C0.970078 1651.4 1.58891 1651.17 2.20889 1650.93L2.38678 1651.4C3.0062 1651.16 3.62675 1650.93 4.24844 1650.69L4.07225 1650.23C4.69449 1649.99 5.31786 1649.76 5.94234 1649.53L6.11684 1649.99C6.74075 1649.76 7.36578 1649.53 7.99191 1649.3L7.81911 1648.83C8.44579 1648.6 9.07355 1648.37 9.70239 1648.14L9.87352 1648.61C10.5018 1648.38 11.1312 1648.15 11.7616 1647.93L11.5921 1647.46C12.2231 1647.23 12.8551 1647 13.4882 1646.78L13.656 1647.25C14.282 1647.03 14.909 1646.8 15.5371 1646.58L15.3709 1646.11C15.9954 1645.89 16.6209 1645.67 17.2474 1645.45L17.4119 1645.93C18.0379 1645.71 18.6648 1645.49 19.2927 1645.27L19.1298 1644.8C19.7582 1644.58 20.3876 1644.37 21.0179 1644.15L21.1792 1644.63C21.809 1644.41 22.4397 1644.2 23.0713 1643.99L22.9116 1643.51C23.5438 1643.3 24.1769 1643.09 24.811 1642.88L24.9691 1643.35C25.6026 1643.14 26.237 1642.93 26.8723 1642.72L26.7158 1642.24C27.3516 1642.03 27.9884 1641.83 28.626 1641.62L28.7809 1642.09C29.4168 1641.89 30.0537 1641.68 30.6913 1641.47L30.538 1641C31.1685 1640.8 31.7999 1640.59 32.4321 1640.39L32.5839 1640.87C33.2155 1640.67 33.848 1640.47 34.4813 1640.27L34.3311 1639.79C34.9649 1639.59 35.5996 1639.39 36.235 1639.19L36.3837 1639.67C37.0186 1639.47 37.6543 1639.28 38.2908 1639.08L38.1437 1638.6C38.7807 1638.41 39.4185 1638.21 40.057 1638.02L40.2026 1638.5C40.8406 1638.3 41.4794 1638.11 42.119 1637.92L41.9749 1637.44C42.615 1637.24 43.2558 1637.05 43.8974 1636.86L44.0399 1637.34C44.6809 1637.15 45.3227 1636.96 45.9652 1636.77L45.8242 1636.29C46.4635 1636.1 47.1036 1635.92 47.7443 1635.73L47.8838 1636.21C48.5206 1636.03 49.1581 1635.84 49.7963 1635.66L49.6583 1635.18C50.297 1634.99 50.9364 1634.81 51.5764 1634.63L51.7129 1635.11C52.3524 1634.93 52.9926 1634.75 53.6335 1634.57L53.4985 1634.09C54.1398 1633.91 54.7818 1633.73 55.4245 1633.55L55.5579 1634.03C56.2 1633.86 56.8428 1633.68 57.4861 1633.5L57.3542 1633.02C57.998 1632.84 58.6425 1632.67 59.2876 1632.49L59.4181 1632.98C60.0626 1632.8 60.7078 1632.63 61.3536 1632.46L61.2246 1631.97C61.8709 1631.8 62.5177 1631.63 63.1652 1631.46L63.2926 1631.94C63.9352 1631.77 64.5783 1631.61 65.222 1631.44L65.096 1630.95C65.7392 1630.79 66.383 1630.62 67.0273 1630.45L67.1518 1630.94C67.7956 1630.77 68.44 1630.61 69.0848 1630.44L68.9618 1629.96C69.6071 1629.8 70.253 1629.63 70.8994 1629.47L71.0209 1629.96C71.6668 1629.79 72.3132 1629.63 72.9601 1629.47L72.84 1628.99C73.4873 1628.83 74.1352 1628.67 74.7836 1628.51L74.9022 1628.99C75.55 1628.84 76.1984 1628.68 76.8472 1628.52L76.73 1628.04C77.3793 1627.88 78.029 1627.72 78.6792 1627.57L78.7949 1628.06C79.4444 1627.9 80.0944 1627.75 80.7448 1627.6L80.6306 1627.11C81.2781 1626.96 81.9261 1626.81 82.5744 1626.66L82.6872 1627.14C83.3351 1626.99 83.9833 1626.84 84.632 1626.7L84.5207 1626.21C85.1698 1626.06 85.8194 1625.91 86.4693 1625.77L86.5792 1626.25C87.2286 1626.11 87.8785 1625.96 88.5287 1625.82L88.4203 1625.33C89.071 1625.19 89.7221 1625.04 90.3735 1624.9L90.4805 1625.39C91.1314 1625.24 91.7827 1625.1 92.4344 1624.96L92.3289 1624.47C92.981 1624.33 93.6335 1624.19 94.2863 1624.05L94.3904 1624.54C95.0427 1624.4 95.6954 1624.27 96.3484 1624.13L96.2458 1623.64C96.8988 1623.5 97.5522 1623.37 98.2059 1623.23L98.307 1623.72C98.9588 1623.59 99.6108 1623.45 100.263 1623.32L100.164 1622.83C100.816 1622.7 101.47 1622.57 102.123 1622.44L102.221 1622.93C102.874 1622.8 103.527 1622.67 104.181 1622.54L104.084 1622.05C104.738 1621.92 105.392 1621.79 106.047 1621.66L106.142 1622.15C106.796 1622.03 107.45 1621.9 108.104 1621.78L108.011 1621.28C108.666 1621.16 109.321 1621.04 109.976 1620.91L110.068 1621.4C110.723 1621.28 111.378 1621.16 112.034 1621.04L111.943 1620.55C112.599 1620.42 113.255 1620.3 113.911 1620.18L114 1620.68C114.656 1620.56 115.312 1620.44 115.968 1620.32L115.88 1619.83C116.536 1619.71 117.193 1619.6 117.85 1619.48L117.936 1619.97C118.592 1619.86 119.249 1619.74 119.906 1619.63L119.821 1619.14C120.478 1619.03 121.135 1618.91 121.792 1618.8L121.876 1619.29C122.533 1619.18 123.19 1619.07 123.847 1618.96L123.765 1618.47C124.423 1618.36 125.081 1618.25 125.738 1618.15L125.819 1618.64C126.476 1618.53 127.134 1618.43 127.791 1618.32L127.712 1617.83C128.37 1617.72 129.029 1617.62 129.687 1617.51L129.764 1618.01C130.422 1617.9 131.08 1617.8 131.738 1617.7L131.662 1617.21C132.321 1617.1 132.98 1617 133.64 1616.91L133.714 1617.4C134.374 1617.3 135.034 1617.2 135.693 1617.1L135.62 1616.61C136.281 1616.51 136.941 1616.42 137.601 1616.32L137.673 1616.82C138.333 1616.72 138.993 1616.63 139.652 1616.53L139.582 1616.04C140.243 1615.94 140.903 1615.85 141.564 1615.76L141.632 1616.26C142.292 1616.16 142.952 1616.07 143.612 1615.98L143.545 1615.49C144.205 1615.4 144.865 1615.31 145.526 1615.22L145.591 1615.72C146.251 1615.63 146.91 1615.55 147.57 1615.46L147.506 1614.97C148.166 1614.88 148.827 1614.8 149.487 1614.71L149.549 1615.21C150.211 1615.13 150.873 1615.04 151.535 1614.96L151.474 1614.47C152.137 1614.39 152.801 1614.31 153.464 1614.23L153.523 1614.72C154.186 1614.64 154.848 1614.57 155.511 1614.49L155.453 1613.99C156.116 1613.92 156.779 1613.84 157.442 1613.76L157.498 1614.26C158.16 1614.19 158.823 1614.11 159.485 1614.04L159.43 1613.54C160.093 1613.47 160.755 1613.4 161.417 1613.33L161.47 1613.83C162.132 1613.76 162.794 1613.69 163.455 1613.62L163.404 1613.12C164.066 1613.05 164.727 1612.98 165.389 1612.92L165.439 1613.42C166.1 1613.35 166.761 1613.28 167.421 1613.22L167.373 1612.72C168.039 1612.66 168.705 1612.6 169.371 1612.53L169.417 1613.03C170.083 1612.97 170.748 1612.91 171.413 1612.85L171.368 1612.35C172.034 1612.29 172.699 1612.23 173.365 1612.17L173.408 1612.67C174.072 1612.61 174.737 1612.56 175.401 1612.5L175.359 1612C176.024 1611.95 176.688 1611.89 177.352 1611.84L177.392 1612.34C178.056 1612.28 178.719 1612.23 179.382 1612.18L179.344 1611.68C180.008 1611.63 180.671 1611.58 181.334 1611.53L181.371 1612.03C182.033 1611.98 182.695 1611.94 183.357 1611.89L183.322 1611.39C183.986 1611.34 184.649 1611.3 185.313 1611.25L185.346 1611.75C186.014 1611.71 186.682 1611.66 187.349 1611.62L187.318 1611.12C187.986 1611.08 188.654 1611.04 189.321 1611L189.351 1611.5C190.018 1611.46 190.684 1611.42 191.35 1611.38L191.322 1610.88C191.989 1610.85 192.655 1610.81 193.321 1610.77L193.347 1611.27C194.012 1611.24 194.677 1611.2 195.342 1611.17L195.317 1610.67C195.982 1610.64 196.647 1610.61 197.311 1610.58L197.334 1611.08C197.997 1611.05 198.661 1611.02 199.323 1610.99L199.302 1610.49C199.965 1610.46 200.628 1610.43 201.291 1610.41L201.31 1610.91C201.977 1610.88 202.644 1610.86 203.31 1610.83L203.292 1610.33C203.962 1610.31 204.632 1610.29 205.301 1610.27L205.317 1610.77C205.986 1610.75 206.654 1610.73 207.322 1610.71L207.308 1610.21C207.976 1610.19 208.644 1610.17 209.311 1610.16L209.323 1610.66C209.99 1610.64 210.656 1610.62 211.321 1610.61L211.311 1610.11C211.977 1610.1 212.643 1610.08 213.308 1610.07L213.316 1610.57C213.981 1610.56 214.645 1610.55 215.308 1610.54L215.301 1610.04C215.965 1610.04 216.629 1610.03 217.291 1610.02L217.296 1610.52C217.959 1610.52 218.621 1610.51 219.283 1610.51L219.28 1610.01C219.952 1610 220.624 1610 221.295 1610L221.295 1610.5C221.966 1610.5 222.635 1610.5 223.304 1610.5L223.305 1610C223.975 1610 224.643 1610.01 225.312 1610.01L225.308 1610.51C225.976 1610.51 226.643 1610.52 227.309 1610.53L227.314 1610.03C227.981 1610.03 228.647 1610.04 229.312 1610.05L229.305 1610.55C229.97 1610.56 230.634 1610.57 231.297 1610.58L231.306 1610.09C231.97 1610.1 232.634 1610.11 233.296 1610.13L233.285 1610.63C233.947 1610.64 234.608 1610.66 235.268 1610.67L235.281 1610.17C235.951 1610.19 236.62 1610.21 237.288 1610.23L237.272 1610.73C237.943 1610.75 238.613 1610.78 239.283 1610.8L239.3 1610.3C239.97 1610.32 240.64 1610.35 241.308 1610.37L241.288 1610.87C241.956 1610.9 242.623 1610.93 243.289 1610.96L243.311 1610.46C243.977 1610.49 244.643 1610.52 245.308 1610.55L245.284 1611.05C245.948 1611.08 246.612 1611.11 247.274 1611.15L247.3 1610.65C247.963 1610.68 248.626 1610.72 249.287 1610.76L249.259 1611.26C249.919 1611.29 250.579 1611.33 251.238 1611.37L251.269 1610.88C251.935 1610.92 252.6 1610.96 253.265 1611L253.232 1611.5C253.902 1611.55 254.572 1611.59 255.241 1611.64L255.276 1611.14C255.946 1611.19 256.615 1611.24 257.282 1611.29L257.245 1611.79C257.911 1611.84 258.577 1611.89 259.242 1611.94L259.282 1611.44C259.948 1611.5 260.612 1611.55 261.276 1611.61L261.233 1612.11C261.896 1612.16 262.557 1612.22 263.218 1612.28L263.263 1611.78C263.924 1611.84 264.584 1611.9 265.243 1611.96L265.196 1612.46C265.854 1612.52 266.512 1612.59 267.168 1612.65L267.217 1612.16C267.881 1612.22 268.544 1612.29 269.205 1612.36L269.153 1612.86C269.822 1612.93 270.49 1613 271.157 1613.07L271.212 1612.57C271.88 1612.65 272.546 1612.72 273.212 1612.8L273.155 1613.3C273.819 1613.37 274.482 1613.45 275.144 1613.53L275.204 1613.03C275.867 1613.11 276.529 1613.2 277.189 1613.28L277.127 1613.78C277.786 1613.86 278.445 1613.94 279.102 1614.03L279.167 1613.53C279.825 1613.62 280.481 1613.71 281.136 1613.8L281.069 1614.29C281.723 1614.38 282.376 1614.47 283.028 1614.57L283.098 1614.07C283.761 1614.17 284.422 1614.26 285.081 1614.36L285.008 1614.86C285.674 1614.95 286.338 1615.05 287.002 1615.16L287.078 1614.66C287.742 1614.77 288.405 1614.87 289.066 1614.98L288.987 1615.47C289.647 1615.57 290.306 1615.68 290.963 1615.79L291.045 1615.3C291.703 1615.41 292.36 1615.52 293.015 1615.63L292.931 1616.12C293.585 1616.24 294.238 1616.35 294.889 1616.47L294.977 1615.98C295.629 1616.09 296.28 1616.21 296.929 1616.33L296.838 1616.82C297.486 1616.94 298.133 1617.06 298.778 1617.19L298.872 1616.7C299.535 1616.82 300.196 1616.95 300.855 1617.08L300.758 1617.57C301.418 1617.7 302.077 1617.83 302.733 1617.97L302.834 1617.48C303.491 1617.61 304.147 1617.75 304.802 1617.89L304.698 1618.38C305.352 1618.52 306.003 1618.66 306.653 1618.8L306.76 1618.31C307.41 1618.45 308.06 1618.6 308.707 1618.74L308.597 1619.23C309.243 1619.38 309.888 1619.52 310.53 1619.67L310.644 1619.19C311.287 1619.34 311.929 1619.49 312.569 1619.64L312.453 1620.13C313.101 1620.28 313.747 1620.44 314.391 1620.6L314.511 1620.11C315.167 1620.28 315.821 1620.44 316.473 1620.61L316.349 1621.09C317 1621.26 317.648 1621.43 318.295 1621.6L318.422 1621.11C319.07 1621.28 319.716 1621.46 320.36 1621.63L320.229 1622.11C320.872 1622.29 321.512 1622.46 322.151 1622.64L322.285 1622.16C322.925 1622.34 323.563 1622.52 324.198 1622.7L324.06 1623.18C324.695 1623.37 325.327 1623.55 325.957 1623.74L326.099 1623.26C326.735 1623.45 327.369 1623.64 328 1623.83L327.854 1624.31C328.5 1624.51 329.144 1624.71 329.785 1624.91L329.935 1624.43C330.578 1624.63 331.218 1624.84 331.856 1625.04L331.702 1625.52C332.339 1625.72 332.973 1625.93 333.605 1626.14L333.763 1625.67C334.397 1625.88 335.028 1626.09 335.656 1626.31L335.494 1626.78C336.121 1627 336.746 1627.21 337.368 1627.43L337.535 1626.96C338.158 1627.18 338.78 1627.4 339.399 1627.63L339.228 1628.1C339.85 1628.32 340.47 1628.55 341.086 1628.78L341.261 1628.31C341.896 1628.55 342.527 1628.79 343.156 1629.03L342.977 1629.5C343.604 1629.74 344.229 1629.98 344.851 1630.23L345.035 1629.76C345.658 1630.01 346.279 1630.26 346.897 1630.51L346.709 1630.97C347.325 1631.22 347.939 1631.48 348.55 1631.73L348.743 1631.27C349.355 1631.53 349.965 1631.79 350.572 1632.05L350.375 1632.51C350.98 1632.77 351.583 1633.03 352.182 1633.3L352.385 1632.84C352.995 1633.11 353.602 1633.38 354.206 1633.66L353.999 1634.11C354.613 1634.39 355.223 1634.67 355.831 1634.96L356.043 1634.51C356.652 1634.79 357.258 1635.08 357.861 1635.37L357.644 1635.82C358.245 1636.11 358.843 1636.4 359.438 1636.7L359.661 1636.25C360.257 1636.55 360.851 1636.85 361.441 1637.15L361.213 1637.59C361.802 1637.89 362.387 1638.2 362.97 1638.5L363.202 1638.06C363.786 1638.37 364.367 1638.68 364.944 1638.99L364.706 1639.43C365.298 1639.75 365.886 1640.07 366.471 1640.4L366.715 1639.96C367.303 1640.29 367.889 1640.62 368.471 1640.96L368.222 1641.39C368.802 1641.72 369.378 1642.06 369.951 1642.4L370.206 1641.97C370.78 1642.31 371.351 1642.65 371.919 1642.99L371.659 1643.42C372.224 1643.77 372.786 1644.11 373.345 1644.46L373.61 1644.04C374.171 1644.39 374.727 1644.75 375.28 1645.1L375.008 1645.52C375.568 1645.88 376.123 1646.25 376.675 1646.62L376.952 1646.2C377.513 1646.57 378.07 1646.95 378.624 1647.33L378.341 1647.74C378.892 1648.12 379.439 1648.5 379.982 1648.89L380.271 1648.48C380.817 1648.87 381.358 1649.26 381.895 1649.65L381.6 1650.05C382.135 1650.45 382.666 1650.84 383.193 1651.24L383.494 1650.84C384.023 1651.24 384.548 1651.64 385.068 1652.05L384.761 1652.44C385.284 1652.85 385.803 1653.26 386.317 1653.67L386.63 1653.28C387.155 1653.7 387.675 1654.13 388.191 1654.56L387.872 1654.94C388.385 1655.37 388.895 1655.8 389.399 1656.23L389.725 1655.86C390.232 1656.29 390.734 1656.73 391.232 1657.17L390.9 1657.55C391.396 1657.99 391.887 1658.43 392.374 1658.88L392.712 1658.51C393.201 1658.96 393.685 1659.41 394.164 1659.87L393.82 1660.23C394.3 1660.68 394.775 1661.14 395.246 1661.61L395.597 1661.25C396.075 1661.72 396.549 1662.2 397.017 1662.67L396.66 1663.02C397.127 1663.5 397.588 1663.98 398.045 1664.46L398.408 1664.12C398.867 1664.6 399.321 1665.09 399.77 1665.58L399.401 1665.92C399.847 1666.41 400.289 1666.9 400.726 1667.4L401.102 1667.07C401.541 1667.57 401.975 1668.07 402.403 1668.58L402.022 1668.9C402.45 1669.41 402.873 1669.92 403.291 1670.43L403.678 1670.12C404.101 1670.63 404.517 1671.16 404.929 1671.68L404.535 1671.99C404.945 1672.51 405.349 1673.04 405.749 1673.57L406.148 1673.27C406.549 1673.8 406.945 1674.34 407.335 1674.88L406.93 1675.17C407.318 1675.71 407.702 1676.25 408.079 1676.79L408.49 1676.51C408.87 1677.06 409.244 1677.61 409.613 1678.16L409.197 1678.44C409.38 1678.72 409.562 1678.99 409.743 1679.27L409.988 1679.65C410.086 1679.8 410.185 1679.95 410.283 1680.1L410.703 1679.83C411.063 1680.39 411.422 1680.94 411.781 1681.5L411.361 1681.77C411.719 1682.33 412.078 1682.89 412.435 1683.45L412.857 1683.18C413.215 1683.75 413.573 1684.31 413.93 1684.87L413.508 1685.14C413.865 1685.7 414.221 1686.27 414.578 1686.84L415.001 1686.57C415.357 1687.14 415.713 1687.71 416.069 1688.28L415.645 1688.54C415.996 1689.11 416.347 1689.67 416.698 1690.24L417.123 1689.98C417.472 1690.54 417.82 1691.11 418.167 1691.67L417.741 1691.94C418.088 1692.5 418.434 1693.07 418.78 1693.64L419.208 1693.38C419.554 1693.95 419.9 1694.52 420.245 1695.09L419.817 1695.35C420.162 1695.92 420.507 1696.49 420.851 1697.07L421.28 1696.81C421.624 1697.38 421.968 1697.96 422.311 1698.54L421.881 1698.79C422.221 1699.37 422.561 1699.94 422.9 1700.51L423.33 1700.26C423.667 1700.83 424.003 1701.4 424.339 1701.98L423.907 1702.23C424.243 1702.8 424.578 1703.38 424.912 1703.95L425.344 1703.7C425.679 1704.28 426.013 1704.85 426.346 1705.43L425.913 1705.68C426.246 1706.26 426.578 1706.84 426.91 1707.42L427.344 1707.17C427.676 1707.76 428.008 1708.34 428.339 1708.92L427.904 1709.17C428.233 1709.75 428.561 1710.33 428.888 1710.91L429.324 1710.67C429.649 1711.24 429.974 1711.82 430.297 1712.4L429.861 1712.65C430.184 1713.23 430.507 1713.81 430.829 1714.39L431.267 1714.15C431.589 1714.73 431.911 1715.32 432.232 1715.9L431.794 1716.14C432.115 1716.73 432.435 1717.31 432.755 1717.9L433.194 1717.66C433.514 1718.25 433.833 1718.84 434.152 1719.43L433.712 1719.66C434.029 1720.25 434.346 1720.84 434.663 1721.43L435.103 1721.2C435.417 1721.78 435.729 1722.37 436.041 1722.95L435.599 1723.19C435.911 1723.77 436.222 1724.36 436.532 1724.95L436.974 1724.72C437.285 1725.31 437.594 1725.9 437.903 1726.49L437.46 1726.72C437.769 1727.31 438.077 1727.9 438.384 1728.5L438.828 1728.27C439.136 1728.86 439.443 1729.45 439.749 1730.05L439.304 1730.28C439.61 1730.87 439.915 1731.47 440.219 1732.07L440.665 1731.84C440.966 1732.43 441.267 1733.02 441.567 1733.62L441.121 1733.84C441.297 1734.19 441.472 1734.54 441.647 1734.89C441.771 1735.13 441.894 1735.38 442.017 1735.62L442.464 1735.4C442.762 1736 443.06 1736.59 443.356 1737.19L442.908 1737.41C443.205 1738.01 443.5 1738.61 443.795 1739.2L444.244 1738.98C444.539 1739.58 444.833 1740.18 445.126 1740.78L444.677 1741C444.821 1741.3 444.965 1741.59 445.108 1741.89C445.257 1742.19 445.406 1742.5 445.554 1742.81L446.004 1742.59C446.295 1743.19 446.584 1743.79 446.873 1744.39L446.422 1744.61C446.709 1745.21 446.996 1745.81 447.281 1746.41L447.733 1746.19C448.018 1746.8 448.303 1747.4 448.587 1748L448.135 1748.21C448.419 1748.82 448.702 1749.42 448.984 1750.02L449.437 1749.81C449.719 1750.42 450.001 1751.02 450.282 1751.63L449.828 1751.84C450.108 1752.44 450.388 1753.05 450.666 1753.66L451.121 1753.45C451.4 1754.06 451.677 1754.67 451.954 1755.28L451.499 1755.48C451.774 1756.09 452.047 1756.69 452.32 1757.3L452.776 1757.1C453.049 1757.7 453.321 1758.31 453.593 1758.92L453.136 1759.12C453.407 1759.73 453.677 1760.34 453.946 1760.95L454.404 1760.75C454.673 1761.36 454.942 1761.97 455.209 1762.58L454.751 1762.78C455.018 1763.39 455.285 1764 455.55 1764.62L456.009 1764.42C456.275 1765.03 456.54 1765.64 456.804 1766.26L456.344 1766.46C456.426 1766.65 456.508 1766.84 456.59 1767.03C456.77 1767.45 456.95 1767.87 457.129 1768.3L457.589 1768.1C457.849 1768.71 458.108 1769.33 458.366 1769.94L457.905 1770.13C458.163 1770.75 458.42 1771.36 458.676 1771.98L459.138 1771.78C459.394 1772.4 459.649 1773.02 459.904 1773.63L459.441 1773.82C459.695 1774.44 459.949 1775.06 460.201 1775.67L460.664 1775.49C460.916 1776.1 461.167 1776.72 461.417 1777.34L460.954 1777.53C461.037 1777.74 461.12 1777.94 461.204 1778.15C461.37 1778.56 461.535 1778.98 461.701 1779.39L462.165 1779.2C462.412 1779.82 462.658 1780.44 462.902 1781.06L462.437 1781.24C462.682 1781.86 462.925 1782.48 463.168 1783.1L463.633 1782.92C463.876 1783.54 464.118 1784.16 464.359 1784.78L463.892 1784.97C464.133 1785.59 464.372 1786.21 464.61 1786.83L465.077 1786.65C465.316 1787.28 465.553 1787.9 465.79 1788.53L465.322 1788.7C465.558 1789.33 465.793 1789.95 466.027 1790.58L466.496 1790.4C466.729 1791.03 466.962 1791.65 467.193 1792.28L466.724 1792.45C466.955 1793.08 467.185 1793.7 467.414 1794.33L467.883 1794.15C468.112 1794.78 468.34 1795.41 468.566 1796.03L468.096 1796.2C468.322 1796.83 468.548 1797.46 468.772 1798.08L469.243 1797.92C469.467 1798.55 469.69 1799.17 469.912 1799.8L469.441 1799.97C469.663 1800.6 469.884 1801.23 470.103 1801.86L470.575 1801.69C470.795 1802.33 471.014 1802.96 471.232 1803.59L470.759 1803.75C470.975 1804.38 471.191 1805.01 471.405 1805.64L471.879 1805.48C472.093 1806.11 472.306 1806.74 472.518 1807.37L472.044 1807.53C472.256 1808.16 472.467 1808.8 472.677 1809.43L473.151 1809.27C473.361 1809.91 473.57 1810.54 473.777 1811.17L473.302 1811.33C473.509 1811.96 473.715 1812.6 473.92 1813.23L474.396 1813.08C474.601 1813.71 474.805 1814.35 475.007 1814.99L474.531 1815.14C474.618 1815.41 474.706 1815.69 474.793 1815.96C474.907 1816.32 475.021 1816.68 475.134 1817.04L475.611 1816.9C475.81 1817.53 476.009 1818.17 476.206 1818.8L475.728 1818.95C475.925 1819.59 476.121 1820.22 476.316 1820.86L476.794 1820.72C476.989 1821.35 477.182 1821.99 477.374 1822.63L476.895 1822.77C476.958 1822.98 477.02 1823.19 477.082 1823.4C477.211 1823.83 477.34 1824.26 477.468 1824.69L477.947 1824.55C478.137 1825.19 478.325 1825.83 478.512 1826.47L478.032 1826.61C478.219 1827.25 478.405 1827.89 478.589 1828.53L479.07 1828.39C479.254 1829.03 479.437 1829.68 479.619 1830.32L479.138 1830.45C479.32 1831.1 479.5 1831.74 479.679 1832.38L480.16 1832.24C480.339 1832.89 480.517 1833.53 480.694 1834.17L480.211 1834.3C480.388 1834.95 480.563 1835.59 480.736 1836.23L481.219 1836.1C481.393 1836.75 481.565 1837.39 481.736 1838.04L481.253 1838.17C481.424 1838.81 481.594 1839.45 481.762 1840.1L482.246 1839.97C482.414 1840.62 482.581 1841.27 482.747 1841.91L482.263 1842.04C482.428 1842.68 482.592 1843.33 482.755 1843.97L483.24 1843.85C483.403 1844.5 483.564 1845.15 483.724 1845.79L483.239 1845.91C483.305 1846.18 483.371 1846.45 483.437 1846.72C483.53 1847.1 483.622 1847.48 483.714 1847.85L484.2 1847.74C484.357 1848.38 484.513 1849.03 484.668 1849.68L484.182 1849.8C484.263 1850.14 484.345 1850.49 484.426 1850.83C484.498 1851.13 484.569 1851.44 484.64 1851.74L485.127 1851.63C485.279 1852.28 485.429 1852.93 485.578 1853.58L485.091 1853.69C485.239 1854.34 485.387 1854.99 485.533 1855.64L486.02 1855.53C486.166 1856.18 486.311 1856.84 486.454 1857.49L485.966 1857.59C486.108 1858.24 486.25 1858.9 486.39 1859.55L486.879 1859.44C487.019 1860.09 487.158 1860.75 487.295 1861.4L486.805 1861.5C486.943 1862.16 487.078 1862.81 487.212 1863.46L487.702 1863.36C487.836 1864.01 487.969 1864.67 488.1 1865.32L487.61 1865.42C487.741 1866.07 487.871 1866.73 487.999 1867.38L488.49 1867.28C488.618 1867.94 488.745 1868.59 488.87 1869.25L488.379 1869.34C488.504 1870 488.628 1870.65 488.75 1871.31L489.242 1871.22C489.364 1871.87 489.485 1872.53 489.604 1873.18L489.112 1873.27C489.231 1873.93 489.349 1874.59 489.465 1875.24L489.957 1875.15C490.073 1875.81 490.188 1876.47 490.301 1877.13L489.808 1877.21C489.921 1877.87 490.032 1878.52 490.142 1879.18L490.635 1879.1C490.745 1879.76 490.853 1880.42 490.96 1881.07L490.467 1881.15C490.573 1881.81 490.678 1882.47 490.782 1883.13L491.276 1883.05C491.379 1883.71 491.481 1884.37 491.582 1885.03L491.088 1885.1C491.188 1885.76 491.287 1886.42 491.384 1887.08L491.878 1887.01C491.976 1887.67 492.071 1888.33 492.165 1888.99L491.67 1889.06C491.764 1889.72 491.856 1890.38 491.947 1891.04L492.442 1890.97C492.533 1891.63 492.622 1892.29 492.709 1892.95L492.214 1893.02C492.301 1893.68 492.387 1894.34 492.471 1895L492.967 1894.94C493.051 1895.6 493.133 1896.26 493.214 1896.93L492.718 1896.99C492.799 1897.65 492.878 1898.31 492.955 1898.97L493.452 1898.91C493.529 1899.58 493.605 1900.24 493.679 1900.9L493.182 1900.96C493.222 1901.32 493.262 1901.67 493.301 1902.03C493.334 1902.34 493.367 1902.64 493.399 1902.94L493.896 1902.89C493.967 1903.55 494.036 1904.22 494.103 1904.88L493.606 1904.93L493.648 1905.35C493.701 1905.88 493.752 1906.4 493.802 1906.92L494.3 1906.87C494.364 1907.54 494.426 1908.2 494.486 1908.87L493.988 1908.91C494.049 1909.57 494.107 1910.24 494.164 1910.9L494.662 1910.86C494.719 1911.52 494.774 1912.19 494.828 1912.85L494.329 1912.89C494.382 1913.56 494.434 1914.22 494.484 1914.89L494.982 1914.85C495.032 1915.51 495.08 1916.18 495.126 1916.85L494.628 1916.88C494.674 1917.54 494.718 1918.21 494.761 1918.87L495.26 1918.84C495.302 1919.51 495.343 1920.17 495.382 1920.84L494.883 1920.87C494.922 1921.53 494.96 1922.2 494.995 1922.86L495.494 1922.84C495.53 1923.5 495.563 1924.17 495.595 1924.84L495.096 1924.86C495.116 1925.29 495.136 1925.71 495.154 1926.14C495.165 1926.38 495.175 1926.62 495.185 1926.86L495.685 1926.84C495.713 1927.5 495.739 1928.17 495.764 1928.84L495.264 1928.85C495.277 1929.2 495.289 1929.55 495.301 1929.9C495.311 1930.22 495.322 1930.54 495.331 1930.85L495.831 1930.84C495.852 1931.5 495.871 1932.17 495.887 1932.84L495.388 1932.85C495.404 1933.52 495.419 1934.18 495.433 1934.85L495.932 1934.84C495.946 1935.5 495.957 1936.17 495.966 1936.84L495.466 1936.85C495.475 1937.51 495.483 1938.18 495.488 1938.84L495.988 1938.84C495.994 1939.51 495.997 1940.17 495.999 1940.84L495.499 1940.84C495.5 1941.18 495.5 1941.52 495.5 1941.85C495.5 1942.18 495.499 1942.51 495.498 1942.84L495.998 1942.84C495.996 1943.51 495.992 1944.18 495.985 1944.84L495.485 1944.84C495.479 1945.51 495.471 1946.17 495.461 1946.84L495.961 1946.84C495.951 1947.51 495.939 1948.18 495.925 1948.85L495.425 1948.84C495.411 1949.5 495.395 1950.17 495.377 1950.83L495.877 1950.85C495.859 1951.51 495.839 1952.18 495.817 1952.85L495.317 1952.83C495.295 1953.5 495.271 1954.16 495.245 1954.83L495.745 1954.85C495.719 1955.51 495.691 1956.18 495.661 1956.85L495.161 1956.82C495.131 1957.49 495.099 1958.16 495.065 1958.82L495.564 1958.85C495.53 1959.51 495.494 1960.18 495.456 1960.84L494.957 1960.82C494.919 1961.48 494.878 1962.15 494.836 1962.81L495.335 1962.84C495.293 1963.51 495.249 1964.17 495.202 1964.84L494.703 1964.8C494.657 1965.47 494.608 1966.13 494.558 1966.8L495.056 1966.84C495.006 1967.5 494.953 1968.17 494.898 1968.83L494.4 1968.79C494.345 1969.45 494.289 1970.12 494.23 1970.78L494.728 1970.82C494.669 1971.49 494.608 1972.15 494.544 1972.82L494.047 1972.77C493.984 1973.43 493.918 1974.1 493.851 1974.76L494.349 1974.81C494.281 1975.47 494.212 1976.14 494.14 1976.8L493.643 1976.75C493.571 1977.41 493.498 1978.07 493.422 1978.73L493.919 1978.79C493.843 1979.45 493.764 1980.11 493.684 1980.78L493.188 1980.72C493.108 1981.38 493.025 1982.04 492.941 1982.7L493.437 1982.76C493.352 1983.42 493.266 1984.08 493.177 1984.75L492.681 1984.68C492.592 1985.34 492.501 1986 492.408 1986.66L492.903 1986.73C492.81 1987.39 492.715 1988.05 492.617 1988.71L492.122 1988.64C492.025 1989.29 491.925 1989.95 491.823 1990.61L492.318 1990.69C492.216 1991.35 492.112 1992.01 492.005 1992.66L491.511 1992.58C491.405 1993.24 491.297 1993.9 491.186 1994.56L491.679 1994.64C491.568 1995.3 491.455 1995.95 491.34 1996.61L490.847 1996.52C490.732 1997.18 490.615 1997.84 490.495 1998.49L490.987 1998.58C490.867 1999.24 490.745 1999.9 490.621 2000.55L490.13 2000.46C490.006 2001.11 489.88 2001.77 489.751 2002.42L490.242 2002.51C490.113 2003.17 489.983 2003.82 489.849 2004.48L489.359 2004.38C489.227 2005.03 489.091 2005.68 488.954 2006.33L489.443 2006.43C489.306 2007.09 489.166 2007.74 489.023 2008.39L488.535 2008.28C488.449 2008.68 488.361 2009.08 488.273 2009.47C488.217 2009.73 488.159 2009.98 488.102 2010.24L488.59 2010.35C488.443 2011 488.294 2011.65 488.142 2012.3L487.655 2012.19C487.504 2012.83 487.351 2013.48 487.195 2014.13L487.681 2014.25C487.526 2014.89 487.368 2015.54 487.208 2016.19L486.723 2016.07C486.563 2016.71 486.4 2017.36 486.236 2018L486.72 2018.13C486.555 2018.77 486.388 2019.42 486.219 2020.06L485.735 2019.94C485.566 2020.58 485.394 2021.23 485.22 2021.87L485.703 2022C485.529 2022.64 485.352 2023.29 485.173 2023.93L484.691 2023.8C484.513 2024.44 484.332 2025.08 484.148 2025.72L484.629 2025.86C484.446 2026.5 484.261 2027.14 484.073 2027.78L483.593 2027.64C483.406 2028.28 483.217 2028.91 483.025 2029.55L483.504 2029.7C483.311 2030.33 483.117 2030.97 482.92 2031.61L482.442 2031.46C482.245 2032.1 482.046 2032.73 481.845 2033.37L482.322 2033.52C482.12 2034.15 481.916 2034.79 481.709 2035.42L481.234 2035.27C481.027 2035.9 480.819 2036.54 480.608 2037.17L481.082 2037.33C480.871 2037.96 480.657 2038.6 480.441 2039.23L479.967 2039.07C479.753 2039.7 479.536 2040.32 479.317 2040.95L479.789 2041.12C479.57 2041.74 479.348 2042.37 479.123 2043L478.652 2042.83C478.428 2043.46 478.202 2044.08 477.973 2044.71L478.443 2044.88C478.214 2045.51 477.982 2046.13 477.748 2046.76L477.279 2046.58C477.046 2047.2 476.81 2047.83 476.571 2048.45L477.038 2048.63C476.799 2049.25 476.558 2049.88 476.314 2050.5L475.848 2050.32C475.605 2050.94 475.36 2051.56 475.112 2052.18L475.576 2052.37C475.329 2052.98 475.08 2053.6 474.829 2054.21L474.366 2054.02C474.115 2054.64 473.861 2055.25 473.605 2055.87L474.067 2056.06C473.811 2056.67 473.552 2057.29 473.29 2057.9L472.83 2057.71C472.569 2058.32 472.306 2058.93 472.04 2059.54L472.499 2059.74C472.233 2060.35 471.964 2060.97 471.693 2061.58L471.236 2061.37C470.965 2061.99 470.692 2062.59 470.416 2063.2L470.872 2063.41C470.597 2064.02 470.319 2064.62 470.039 2065.23L469.585 2065.02C469.308 2065.62 469.028 2066.22 468.745 2066.82L469.198 2067.04C468.915 2067.64 468.629 2068.24 468.341 2068.84L467.89 2068.62C467.603 2069.22 467.313 2069.82 467.021 2070.42L467.47 2070.64C467.177 2071.24 466.882 2071.84 466.584 2072.44L466.136 2072.21C466.031 2072.43 465.925 2072.64 465.819 2072.85C465.626 2073.23 465.432 2073.62 465.237 2074L465.683 2074.23C465.38 2074.83 465.075 2075.42 464.767 2076.02L464.323 2075.79C464.248 2075.93 464.173 2076.08 464.098 2076.22C464.019 2076.38 463.939 2076.53 463.86 2076.68C463.703 2076.98 463.546 2077.28 463.389 2077.58L463.831 2077.81C463.517 2078.41 463.201 2079.01 462.886 2079.61L462.444 2079.37C462.128 2079.97 461.813 2080.56 461.496 2081.15L461.937 2081.39C461.621 2081.98 461.303 2082.57 460.986 2083.15L460.546 2082.92C460.229 2083.5 459.911 2084.09 459.593 2084.67L460.032 2084.91C459.714 2085.49 459.395 2086.07 459.075 2086.65L458.638 2086.4C458.319 2086.98 457.999 2087.55 457.679 2088.13L458.116 2088.37C457.787 2088.96 457.458 2089.54 457.129 2090.12L456.694 2089.88C456.361 2090.47 456.028 2091.05 455.694 2091.64L456.128 2091.88C455.793 2092.47 455.458 2093.05 455.123 2093.63L454.69 2093.38C454.355 2093.96 454.02 2094.53 453.684 2095.11L454.115 2095.36C453.779 2095.94 453.442 2096.51 453.105 2097.08L452.675 2096.82C452.338 2097.39 452 2097.96 451.662 2098.52L452.091 2098.78C451.752 2099.35 451.411 2099.91 451.071 2100.47L450.643 2100.21C450.521 2100.41 450.4 2100.62 450.278 2100.82C450.048 2101.19 449.818 2101.57 449.588 2101.95L450.014 2102.21C449.661 2102.78 449.307 2103.35 448.953 2103.93L448.529 2103.66C448.175 2104.23 447.821 2104.8 447.466 2105.36L447.89 2105.63C447.534 2106.19 447.179 2106.76 446.823 2107.32L446.401 2107.05C446.045 2107.61 445.689 2108.16 445.332 2108.72L445.752 2108.99C445.395 2109.54 445.037 2110.1 444.678 2110.65L444.259 2110.37C444.112 2110.6 443.965 2110.82 443.818 2111.05C443.598 2111.39 443.377 2111.72 443.156 2112.06L443.573 2112.33C443.201 2112.9 442.828 2113.46 442.454 2114.02L442.038 2113.74C441.666 2114.3 441.292 2114.85 440.918 2115.4L441.332 2115.68C440.957 2116.24 440.582 2116.79 440.206 2117.34L439.793 2117.05C439.512 2117.46 439.231 2117.87 438.95 2118.28C438.855 2118.42 438.76 2118.55 438.665 2118.69L439.076 2118.97C438.699 2119.52 438.321 2120.06 437.942 2120.59L437.534 2120.31C437.148 2120.85 436.762 2121.4 436.375 2121.94L436.782 2122.23C436.39 2122.78 435.997 2123.33 435.603 2123.88L435.198 2123.58C434.805 2124.13 434.411 2124.67 434.017 2125.21L434.42 2125.5C434.025 2126.04 433.629 2126.58 433.233 2127.11L432.831 2126.81C432.436 2127.35 432.039 2127.88 431.642 2128.4L432.042 2128.7C431.644 2129.23 431.245 2129.76 430.846 2130.28L430.449 2129.98C430.042 2130.51 429.634 2131.04 429.226 2131.57L429.622 2131.88C429.208 2132.41 428.795 2132.94 428.38 2133.47L427.987 2133.16C427.573 2133.69 427.159 2134.21 426.743 2134.73L427.134 2135.04C426.718 2135.57 426.302 2136.09 425.884 2136.6L425.495 2136.29C425.078 2136.81 424.661 2137.32 424.243 2137.83L424.63 2138.15C424.211 2138.66 423.791 2139.17 423.371 2139.67L422.986 2139.35C422.555 2139.87 422.124 2140.39 421.691 2140.9L422.073 2141.22C421.639 2141.74 421.204 2142.25 420.768 2142.76L420.389 2142.43C419.954 2142.94 419.518 2143.45 419.081 2143.95L419.459 2144.28C419.021 2144.78 418.583 2145.28 418.144 2145.78L417.769 2145.45C417.331 2145.94 416.892 2146.44 416.452 2146.93L416.825 2147.26C416.38 2147.76 415.935 2148.25 415.489 2148.74L415.119 2148.4C414.666 2148.9 414.212 2149.4 413.757 2149.89L414.125 2150.23C413.669 2150.72 413.212 2151.21 412.755 2151.7L412.39 2151.36C411.934 2151.85 411.477 2152.33 411.018 2152.81L411.38 2153.15C410.921 2153.64 410.461 2154.11 410 2154.59L409.641 2154.24C409.181 2154.72 408.72 2155.19 408.259 2155.66L408.615 2156.01C408.143 2156.49 407.67 2156.97 407.196 2157.44L406.843 2157.09C406.368 2157.56 405.893 2158.03 405.417 2158.5L405.767 2158.86C405.29 2159.33 404.812 2159.79 404.333 2160.26L403.985 2159.9C403.507 2160.36 403.028 2160.82 402.548 2161.28L402.893 2161.64C402.412 2162.1 401.93 2162.55 401.447 2163L401.105 2162.64C400.86 2162.87 400.615 2163.1 400.37 2163.32C400.127 2163.55 399.884 2163.77 399.641 2164L399.979 2164.37C399.485 2164.82 398.989 2165.27 398.492 2165.72L398.157 2165.35C397.945 2165.54 397.733 2165.73 397.521 2165.93C397.236 2166.18 396.952 2166.44 396.667 2166.69L396.999 2167.06C396.501 2167.51 396.001 2167.95 395.5 2168.38L395.171 2168.01C394.672 2168.44 394.171 2168.88 393.67 2169.31L393.995 2169.69C393.49 2170.12 392.983 2170.55 392.476 2170.98L392.153 2170.6C391.641 2171.03 391.128 2171.46 390.613 2171.89L390.932 2172.27C390.417 2172.7 389.9 2173.13 389.382 2173.55L389.067 2173.16C388.86 2173.33 388.654 2173.5 388.447 2173.66C388.137 2173.91 387.826 2174.16 387.514 2174.41L387.826 2174.8C387.307 2175.22 386.786 2175.63 386.264 2176.04L385.955 2175.65C385.433 2176.06 384.91 2176.47 384.385 2176.87L384.691 2177.27C384.159 2177.68 383.627 2178.09 383.093 2178.49L382.791 2178.09C382.577 2178.25 382.363 2178.41 382.149 2178.58C381.83 2178.82 381.51 2179.05 381.191 2179.29L381.489 2179.69C380.953 2180.09 380.416 2180.49 379.878 2180.88L379.583 2180.48C379.047 2180.87 378.509 2181.26 377.97 2181.64L378.261 2182.05C377.72 2182.44 377.177 2182.82 376.634 2183.2L376.347 2182.8C375.799 2183.18 375.251 2183.56 374.702 2183.94L374.986 2184.35C374.435 2184.73 373.883 2185.11 373.33 2185.48L373.05 2185.07C372.498 2185.44 371.945 2185.81 371.391 2186.18L371.668 2186.6C371.112 2186.97 370.556 2187.33 369.998 2187.69L369.726 2187.28C369.169 2187.64 368.611 2188 368.051 2188.35L368.32 2188.78C367.756 2189.14 367.191 2189.49 366.624 2189.85L366.359 2189.42C365.794 2189.78 365.227 2190.13 364.66 2190.48L364.921 2190.9C364.352 2191.25 363.782 2191.6 363.211 2191.94L362.953 2191.51C362.383 2191.86 361.812 2192.2 361.239 2192.53L361.493 2192.97C360.919 2193.3 360.344 2193.64 359.767 2193.97L359.517 2193.54C358.94 2193.87 358.361 2194.2 357.781 2194.53L358.027 2194.97C357.446 2195.3 356.864 2195.62 356.281 2195.95L356.038 2195.51C355.456 2195.83 354.872 2196.15 354.287 2196.47L354.526 2196.91C353.94 2197.23 353.353 2197.54 352.765 2197.86L352.53 2197.42C352.272 2197.55 352.014 2197.69 351.755 2197.83C351.425 2198 351.095 2198.17 350.764 2198.35L350.995 2198.79C350.403 2199.1 349.81 2199.4 349.216 2199.71L348.988 2199.26C348.395 2199.57 347.801 2199.87 347.206 2200.16L347.429 2200.61C346.833 2200.91 346.235 2201.21 345.635 2201.5L345.416 2201.05C344.818 2201.34 344.218 2201.63 343.618 2201.92L343.834 2202.37C343.232 2202.66 342.63 2202.95 342.026 2203.23L341.813 2202.78C341.211 2203.06 340.608 2203.34 340.003 2203.62L340.212 2204.07C339.606 2204.35 338.999 2204.63 338.39 2204.9L338.185 2204.44C337.578 2204.72 336.969 2204.99 336.36 2205.26L336.561 2205.71C335.95 2205.98 335.338 2206.25 334.724 2206.51L334.526 2206.05C333.915 2206.32 333.302 2206.58 332.688 2206.84L332.882 2207.3C332.269 2207.56 331.654 2207.81 331.038 2208.07L330.847 2207.6C330.232 2207.86 329.616 2208.11 328.999 2208.36L329.186 2208.82C328.567 2209.07 327.947 2209.32 327.326 2209.56L327.142 2209.1C326.522 2209.34 325.901 2209.59 325.278 2209.83L325.458 2210.29C324.836 2210.53 324.212 2210.77 323.588 2211.01L323.411 2210.54C322.79 2210.77 322.168 2211.01 321.544 2211.24L321.717 2211.71C321.092 2211.94 320.466 2212.17 319.839 2212.39L319.669 2211.92C319.042 2212.15 318.415 2212.37 317.786 2212.59L317.952 2213.07C317.322 2213.29 316.691 2213.51 316.058 2213.73L315.895 2213.25C315.266 2213.47 314.635 2213.69 314.003 2213.9L314.163 2214.37C313.534 2214.59 312.903 2214.8 312.27 2215.01L312.114 2214.53C311.483 2214.74 310.85 2214.95 310.216 2215.15L310.37 2215.63C309.735 2215.83 309.099 2216.03 308.462 2216.24L308.311 2215.76C308.02 2215.85 307.729 2215.94 307.437 2216.03C307.091 2216.14 306.745 2216.25 306.398 2216.36L306.545 2216.83C305.908 2217.03 305.269 2217.22 304.629 2217.42L304.485 2216.94C303.85 2217.13 303.214 2217.32 302.577 2217.51L302.718 2217.99C302.08 2218.18 301.44 2218.36 300.799 2218.55L300.661 2218.07C300.368 2218.15 300.074 2218.23 299.781 2218.32C299.433 2218.42 299.085 2218.52 298.737 2218.61L298.873 2219.09C298.229 2219.28 297.585 2219.46 296.938 2219.63L296.806 2219.15C296.163 2219.33 295.519 2219.5 294.873 2219.68L295.003 2220.16C294.362 2220.33 293.72 2220.5 293.077 2220.67L292.95 2220.19C292.598 2220.28 292.246 2220.37 291.894 2220.46C291.602 2220.54 291.311 2220.61 291.019 2220.69L291.144 2221.17C290.498 2221.34 289.851 2221.5 289.203 2221.67L289.081 2221.18C288.434 2221.34 287.785 2221.5 287.135 2221.66L287.254 2222.15C286.604 2222.31 285.953 2222.47 285.3 2222.62L285.184 2222.14C284.54 2222.29 283.895 2222.44 283.249 2222.6L283.363 2223.08C282.716 2223.23 282.068 2223.38 281.419 2223.53L281.307 2223.04C280.659 2223.19 280.009 2223.34 279.357 2223.49L279.467 2223.97C278.814 2224.12 278.161 2224.26 277.507 2224.41L277.4 2223.92C276.746 2224.06 276.091 2224.2 275.435 2224.34L275.539 2224.83C274.89 2224.97 274.241 2225.11 273.59 2225.24L273.488 2224.75C272.839 2224.89 272.188 2225.02 271.537 2225.16L271.637 2225.65C270.984 2225.78 270.331 2225.91 269.676 2226.04L269.578 2225.55C268.924 2225.68 268.269 2225.81 267.613 2225.94L267.708 2226.43C267.051 2226.56 266.392 2226.68 265.732 2226.81L265.639 2226.32C264.986 2226.44 264.331 2226.57 263.676 2226.69L263.767 2227.18C263.115 2227.3 262.462 2227.42 261.808 2227.54L261.719 2227.05C261.065 2227.17 260.41 2227.28 259.755 2227.4L259.842 2227.89C259.185 2228.01 258.527 2228.12 257.868 2228.24L257.783 2227.75C257.124 2227.86 256.465 2227.97 255.804 2228.09L255.887 2228.58C255.227 2228.69 254.566 2228.8 253.904 2228.91L253.822 2228.42C253.579 2228.46 253.336 2228.5 253.093 2228.54C252.683 2228.61 252.272 2228.67 251.862 2228.74L251.942 2229.23C251.286 2229.34 250.63 2229.45 249.972 2229.55L249.894 2229.06C249.236 2229.16 248.578 2229.26 247.918 2229.37L247.995 2229.86C247.335 2229.96 246.673 2230.06 246.011 2230.16L245.936 2229.67C245.274 2229.77 244.61 2229.87 243.946 2229.97L244.019 2230.46C243.362 2230.56 242.703 2230.66 242.044 2230.75L241.972 2230.26C241.317 2230.35 240.66 2230.45 240.002 2230.54L240.073 2231.04C239.414 2231.13 238.755 2231.22 238.094 2231.31L238.026 2230.82C237.366 2230.91 236.704 2231 236.042 2231.09L236.109 2231.59C235.446 2231.68 234.782 2231.77 234.116 2231.85L234.051 2231.36C233.386 2231.45 232.721 2231.54 232.055 2231.62L232.119 2232.12C231.464 2232.2 230.807 2232.29 230.149 2232.37L230.085 2231.88C229.428 2231.96 228.769 2232.04 228.109 2232.12L228.171 2232.62C227.51 2232.7 226.849 2232.79 226.186 2232.87L226.125 2232.37C225.463 2232.45 224.799 2232.53 224.135 2232.61L224.194 2233.11C223.529 2233.19 222.863 2233.27 222.195 2233.34L222.137 2232.85C221.766 2232.89 221.394 2232.93 221.022 2232.98C220.73 2233.01 220.438 2233.05 220.146 2233.08L220.203 2233.58C219.546 2233.65 218.887 2233.73 218.227 2233.8L218.171 2233.3C217.512 2233.38 216.851 2233.45 216.19 2233.52L216.245 2234.02C215.582 2234.09 214.919 2234.17 214.255 2234.24L214.201 2233.74C213.537 2233.81 212.872 2233.89 212.205 2233.96L212.258 2234.45C211.592 2234.52 210.924 2234.59 210.255 2234.66L210.203 2234.17L209.706 2234.22C209.209 2234.27 208.713 2234.32 208.215 2234.37L208.266 2234.87C207.607 2234.94 206.948 2235 206.287 2235.07L206.237 2234.57C205.576 2234.64 204.914 2234.71 204.251 2234.77L204.301 2235.27C203.637 2235.33 202.973 2235.4 202.308 2235.46L202.259 2234.97C201.594 2235.03 200.928 2235.09 200.26 2235.16L200.308 2235.66C199.64 2235.72 198.971 2235.78 198.301 2235.84L198.255 2235.35C197.594 2235.41 196.931 2235.47 196.268 2235.53L196.314 2236.03C195.654 2236.09 194.993 2236.15 194.332 2236.21L194.287 2235.71C193.625 2235.77 192.963 2235.83 192.299 2235.89L192.344 2236.39C191.68 2236.45 191.015 2236.51 190.349 2236.57L190.305 2236.07C189.639 2236.13 188.972 2236.18 188.304 2236.24L188.347 2236.74C187.679 2236.8 187.01 2236.85 186.339 2236.91L186.297 2236.41C185.635 2236.47 184.972 2236.53 184.307 2236.58L184.349 2237.08C183.689 2237.14 183.028 2237.19 182.366 2237.25L182.325 2236.75C181.663 2236.8 181.001 2236.86 180.337 2236.91L180.377 2237.41C179.713 2237.46 179.048 2237.52 178.382 2237.57L178.342 2237.07C177.675 2237.13 177.008 2237.18 176.34 2237.23L176.38 2237.73C175.711 2237.78 175.042 2237.84 174.371 2237.89L174.332 2237.39L173.326 2237.47C172.991 2237.5 172.657 2237.52 172.324 2237.55L172.361 2238.05C171.692 2238.1 171.024 2238.14 170.358 2238.19L170.323 2237.69C169.657 2237.74 168.993 2237.78 168.33 2237.82L168.361 2238.32C167.697 2238.37 167.034 2238.41 166.372 2238.44L166.343 2237.95C165.681 2237.98 165.021 2238.02 164.362 2238.05L164.388 2238.55C163.728 2238.59 163.07 2238.62 162.412 2238.65L162.389 2238.15C161.732 2238.18 161.077 2238.21 160.422 2238.24L160.442 2238.74C159.771 2238.76 159.102 2238.79 158.433 2238.81L158.416 2238.31C157.748 2238.33 157.082 2238.35 156.416 2238.37L156.43 2238.87C155.764 2238.89 155.099 2238.91 154.435 2238.92L154.424 2238.42C153.76 2238.44 153.098 2238.45 152.438 2238.46L152.446 2238.96C151.784 2238.97 151.123 2238.98 150.463 2238.98L150.458 2238.48C150.179 2238.49 149.9 2238.49 149.622 2238.49C149.243 2238.49 148.864 2238.5 148.486 2238.5L148.488 2239C147.821 2239 147.156 2239 146.492 2239L146.493 2238.5C145.824 2238.5 145.157 2238.49 144.491 2238.49L144.487 2238.99C143.82 2238.98 143.154 2238.97 142.489 2238.96L142.496 2238.46C141.833 2238.45 141.17 2238.44 140.509 2238.43L140.498 2238.93C139.835 2238.91 139.174 2238.9 138.514 2238.88L138.527 2238.38C137.868 2238.36 137.21 2238.34 136.553 2238.32L136.536 2238.82C135.873 2238.79 135.21 2238.77 134.549 2238.74L134.569 2238.24C133.902 2238.21 133.235 2238.19 132.57 2238.15L132.546 2238.65C131.88 2238.62 131.214 2238.59 130.55 2238.55L130.577 2238.05C129.914 2238.02 129.252 2237.98 128.591 2237.94L128.561 2238.44C127.899 2238.4 127.238 2238.36 126.579 2238.31L126.612 2237.81C125.953 2237.77 125.296 2237.72 124.64 2237.68L124.603 2238.17C123.942 2238.13 123.282 2238.07 122.623 2238.02L122.663 2237.52C122.286 2237.49 121.91 2237.46 121.533 2237.43C121.245 2237.41 120.957 2237.38 120.669 2237.36L120.626 2237.86C119.962 2237.8 119.298 2237.74 118.636 2237.68L118.683 2237.18C118.334 2237.15 117.985 2237.11 117.637 2237.08C117.325 2237.05 117.014 2237.02 116.703 2236.99L116.653 2237.48C115.993 2237.42 115.334 2237.35 114.676 2237.28L114.73 2236.78C114.073 2236.71 113.418 2236.64 112.763 2236.56L112.707 2237.06C112.048 2236.99 111.39 2236.91 110.733 2236.83L110.793 2236.33C110.131 2236.25 109.47 2236.17 108.81 2236.09L108.746 2236.58C108.085 2236.5 107.425 2236.41 106.766 2236.32L106.833 2235.83C106.175 2235.74 105.518 2235.65 104.863 2235.55L104.793 2236.05C104.136 2235.96 103.48 2235.86 102.826 2235.76L102.899 2235.27C102.246 2235.17 101.594 2235.07 100.943 2234.97L100.866 2235.47C100.21 2235.36 99.555 2235.26 98.9012 2235.15L98.9814 2234.66C98.3237 2234.55 97.667 2234.44 97.0115 2234.33L96.9279 2234.83C96.2712 2234.71 95.6157 2234.6 94.9613 2234.48L95.0483 2233.99C94.7441 2233.94 94.4401 2233.88 94.1363 2233.83C93.7878 2233.77 93.4397 2233.7 93.0919 2233.64L93.0014 2234.13C92.3492 2234.01 91.6982 2233.89 91.0482 2233.76L91.142 2233.27C90.4932 2233.15 89.8455 2233.02 89.1988 2232.9L89.1016 2233.39C88.4492 2233.26 87.7979 2233.13 87.1478 2232.99L87.2484 2232.5C86.5964 2232.37 85.9456 2232.23 85.2958 2232.09L85.1918 2232.58C84.5409 2232.44 83.8911 2232.3 83.2425 2232.16L83.3499 2231.67C82.7023 2231.53 82.0558 2231.39 81.4105 2231.24L81.2997 2231.73C80.6532 2231.58 80.0078 2231.43 79.3634 2231.28L79.4776 2230.79C78.8344 2230.64 78.1922 2230.49 77.5511 2230.33L77.4336 2230.82C76.7861 2230.66 76.1398 2230.51 75.4944 2230.34L75.6153 2229.86C74.9702 2229.7 74.3262 2229.54 73.6833 2229.37L73.5591 2229.86C72.9151 2229.69 72.2721 2229.52 71.6302 2229.35L71.7578 2228.87C71.117 2228.7 70.4773 2228.53 69.8387 2228.36L69.7078 2228.84C69.068 2228.67 68.4293 2228.49 67.7916 2228.31L67.9258 2227.83C67.7816 2227.79 67.6373 2227.75 67.4932 2227.71C67.0004 2227.57 66.5084 2227.43 66.0169 2227.29L65.8794 2227.77C65.239 2227.59 64.5997 2227.4 63.9614 2227.22L64.1022 2226.74C63.465 2226.55 62.8288 2226.36 62.1937 2226.17L62.0496 2226.65C61.4134 2226.46 60.7782 2226.26 60.1441 2226.07L60.2914 2225.59C59.6584 2225.4 59.0263 2225.2 58.3953 2225L58.2448 2225.48C57.6127 2225.28 56.9816 2225.07 56.3515 2224.87L56.5053 2224.39C55.8745 2224.19 55.2447 2223.98 54.6159 2223.78L54.4589 2224.25C53.8273 2224.04 53.1967 2223.83 52.5672 2223.62L52.7274 2223.15C52.0988 2222.93 51.4713 2222.72 50.8448 2222.5L50.6814 2222.97C50.0538 2222.76 49.4272 2222.54 48.8017 2222.32L48.9682 2221.85C48.3437 2221.62 47.7201 2221.4 47.0975 2221.18L46.9278 2221.65C46.3042 2221.42 45.6816 2221.2 45.0599 2220.97L45.2327 2220.5C44.6099 2220.27 43.9881 2220.04 43.3673 2219.8L43.1914 2220.27C42.5692 2220.04 41.9481 2219.8 41.3279 2219.56L41.5069 2219.1C40.8877 2218.86 40.2695 2218.62 39.6522 2218.38L39.4702 2218.85C38.8519 2218.6 38.2346 2218.36 37.6182 2218.11L37.8032 2217.65C37.1878 2217.4 36.5734 2217.16 35.9599 2216.91L35.7718 2217.37C35.1569 2217.12 34.543 2216.87 33.9299 2216.62L34.1209 2216.16C33.5079 2215.9 32.8959 2215.65 32.2847 2215.39L32.0908 2215.85C31.4786 2215.59 30.8674 2215.33 30.2571 2215.07L30.454 2214.61C29.8447 2214.35 29.2363 2214.09 28.6288 2213.82L28.4289 2214.28C27.8204 2214.02 27.2129 2213.75 26.6062 2213.48L26.8089 2213.02C26.2031 2212.75 25.5983 2212.48 24.9943 2212.21L24.7888 2212.67C24.1836 2212.39 23.5793 2212.12 22.9759 2211.84L23.1843 2211.39C22.5817 2211.11 21.98 2210.83 21.3791 2210.55L21.168 2211.01C20.5662 2210.73 19.9653 2210.44 19.3653 2210.16L19.5792 2209.71C18.98 2209.43 18.3818 2209.14 17.7843 2208.85L17.5677 2209.3C16.9693 2209.02 16.3719 2208.73 15.7752 2208.43L15.9945 2207.99C15.3988 2207.69 14.804 2207.4 14.2099 2207.11L13.9879 2207.56C13.3934 2207.26 12.7998 2206.96 12.2069 2206.67L12.4316 2206.22C11.8397 2205.92 11.2485 2205.62 10.6582 2205.32L10.4309 2205.77C9.83968 2205.46 9.24928 2205.16 8.65968 2204.86L8.88957 2204.41C8.30084 2204.11 7.71291 2203.8 7.12576 2203.49L6.89331 2203.93C6.30531 2203.63 5.71811 2203.32 5.13168 2203L5.36667 2202.56C4.78174 2202.25 4.19759 2201.94 3.6142 2201.62L3.37672 2202.06C2.79309 2201.75 2.21024 2201.43 1.62814 2201.11L1.86809 2200.67C1.2868 2200.36 0.706299 2200.04 0.126526 2199.71L-0.115845 2200.15C-0.696411 2199.83 -1.27625 2199.51 -1.85532 2199.18L-1.61053 2198.75C-2.18881 2198.42 -2.76636 2198.09 -3.34317 2197.77L-3.59035 2198.2C-4.16794 2197.87 -4.7448 2197.54 -5.32092 2197.21L-5.07141 2196.78C-5.64503 2196.45 -6.21794 2196.12 -6.79015 2195.78L-7.04198 2196.21C-7.61481 2195.88 -8.18692 2195.54 -8.75833 2195.21L-8.50421 2194.78C-9.07487 2194.44 -9.64482 2194.1 -10.2141 2193.76L-10.4705 2194.19C-11.0405 2193.85 -11.6098 2193.51 -12.1784 2193.16L-11.9198 2192.74C-12.4877 2192.39 -13.0549 2192.05 -13.6215 2191.7L-13.8822 2192.13C-14.4488 2191.78 -15.0146 2191.43 -15.5798 2191.09L-15.3169 2190.66C-15.8797 2190.31 -16.4418 2189.96 -17.0034 2189.61L-17.2684 2190.04C-17.8306 2189.68 -18.3922 2189.33 -18.9531 2188.98L-18.6859 2188.55C-19.2461 2188.2 -19.8057 2187.84 -20.3647 2187.49L-20.6339 2187.91C-21.1935 2187.55 -21.7525 2187.19 -22.3109 2186.83L-22.0396 2186.41C-22.5973 2186.05 -23.1543 2185.69 -23.7108 2185.32L-23.9841 2185.74C-24.5394 2185.38 -25.094 2185.02 -25.648 2184.65L-25.3727 2184.23C-25.9251 2183.87 -26.477 2183.5 -27.0282 2183.14L-27.3054 2183.55C-27.8573 2183.19 -28.4086 2182.82 -28.9592 2182.45L-28.6801 2182.03C-29.2301 2181.66 -29.7796 2181.29 -30.3285 2180.92L-30.6095 2181.33C-31.1591 2180.96 -31.708 2180.58 -32.2564 2180.21L-31.9735 2179.79C-32.5212 2179.42 -33.0684 2179.04 -33.6151 2178.66L-33.8998 2179.07C-34.4439 2178.7 -34.9875 2178.32 -35.5305 2177.94L-35.244 2177.53C-35.5217 2177.33 -35.7993 2177.14 -36.0767 2176.94C-36.3411 2176.76 -36.6054 2176.57 -36.8695 2176.39L-37.1578 2176.79C-37.6997 2176.41 -38.2411 2176.03 -38.7819 2175.64L-38.4919 2175.23C-39.0321 2174.85 -39.5718 2174.46 -40.1111 2174.08L-40.4028 2174.48C-40.9426 2174.09 -41.4819 2173.71 -42.0206 2173.31L-41.7271 2172.91C-42.2644 2172.52 -42.8011 2172.13 -43.3373 2171.74L-43.6324 2172.14C-44.1667 2171.75 -44.7006 2171.36 -45.2339 2170.97L-44.9371 2170.56C-45.4699 2170.17 -46.0022 2169.78 -46.5341 2169.38L-46.8324 2169.78C-47.3648 2169.39 -47.8967 2168.99 -48.4281 2168.59L-48.1281 2168.19C-48.659 2167.79 -49.1895 2167.39 -49.7194 2166.99L-50.0209 2167.39C-50.5514 2166.99 -51.0814 2166.59 -51.6109 2166.18L-51.3079 2165.79C-51.835 2165.38 -52.3617 2164.98 -52.8879 2164.58L-53.1924 2164.97C-53.7175 2164.57 -54.2421 2164.17 -54.7663 2163.76L-54.4603 2163.37C-54.9839 2162.96 -55.5072 2162.55 -56.03 2162.15L-56.3375 2162.54C-56.8608 2162.13 -57.3837 2161.72 -57.9062 2161.31L-57.5973 2160.92C-58.1193 2160.51 -58.6409 2160.1 -59.1621 2159.69L-59.4724 2160.08C-59.994 2159.67 -60.5153 2159.25 -61.0361 2158.84L-60.7245 2158.45C-61.242 2158.03 -61.7592 2157.62 -62.276 2157.2L-62.589 2157.59C-63.1053 2157.18 -63.6212 2156.76 -64.1368 2156.35L-63.8225 2155.96C-64.0611 2155.77 -64.2997 2155.57 -64.5381 2155.38C-64.8145 2155.16 -65.0907 2154.93 -65.3668 2154.71L-65.6824 2155.09C-66.1972 2154.67 -66.7116 2154.25 -67.2257 2153.83L-66.9088 2153.45C-67.4225 2153.03 -67.9358 2152.6 -68.4488 2152.18L-68.7669 2152.57C-69.2803 2152.14 -69.7933 2151.72 -70.3059 2151.29L-69.9866 2150.91C-70.4953 2150.49 -71.0036 2150.06 -71.5117 2149.64L-71.8322 2150.02C-72.3404 2149.6 -72.8483 2149.17 -73.3558 2148.75L-73.0341 2148.36C-73.5412 2147.94 -74.048 2147.51 -74.5545 2147.08L-74.8774 2147.46C-75.3843 2147.03 -75.8909 2146.6 -76.3971 2146.17L-76.0731 2145.79C-76.579 2145.36 -77.0845 2144.93 -77.5898 2144.5L-77.915 2144.88C-78.4203 2144.45 -78.9254 2144.01 -79.4302 2143.58L-79.1039 2143.2C-79.6048 2142.77 -80.1054 2142.33 -80.6057 2141.9L-80.933 2142.28C-81.4336 2141.85 -81.934 2141.41 -82.4341 2140.98L-82.1057 2140.6C-82.6055 2140.16 -83.1049 2139.73 -83.6041 2139.29L-83.9335 2139.67C-84.4331 2139.23 -84.9323 2138.79 -85.4314 2138.35L-85.101 2137.98C-85.5997 2137.54 -86.0981 2137.1 -86.5963 2136.66L-86.9277 2137.03C-87.4256 2136.59 -87.9232 2136.15 -88.4206 2135.71L-88.0883 2135.33C-88.5821 2134.89 -89.0758 2134.45 -89.5692 2134.01L-89.9025 2134.38C-90.3962 2133.94 -90.8897 2133.5 -91.3829 2133.06L-91.0487 2132.68C-91.5417 2132.24 -92.0344 2131.8 -92.5269 2131.35L-92.862 2131.72C-93.3549 2131.28 -93.8475 2130.83 -94.3399 2130.39L-94.0038 2130.02C-94.2123 2129.83 -94.4207 2129.64 -94.629 2129.45C-94.9126 2129.19 -95.1961 2128.93 -95.4795 2128.67L-95.8164 2129.04C-96.3076 2128.6 -96.7986 2128.15 -97.2894 2127.7L-96.9517 2127.33C-97.4392 2126.88 -97.9265 2126.43 -98.4137 2125.99L-98.7522 2126.35C-99.2397 2125.91 -99.7269 2125.46 -100.214 2125.01L-99.8746 2124.64C-100.361 2124.19 -100.848 2123.74 -101.334 2123.29L-101.675 2123.65C-102.161 2123.2 -102.648 2122.75 -103.134 2122.3L-102.793 2121.93C-103.279 2121.48 -103.765 2121.02 -104.251 2120.57L-104.593 2120.93C-105.078 2120.48 -105.563 2120.02 -106.048 2119.57L-105.706 2119.2C-106.188 2118.75 -106.669 2118.3 -107.151 2117.84L-107.494 2118.21C-107.976 2117.75 -108.457 2117.3 -108.939 2116.84L-108.595 2116.48C-108.76 2116.32 -108.925 2116.17 -109.09 2116.01C-109.406 2115.71 -109.722 2115.41 -110.038 2115.11L-110.383 2115.47C-110.864 2115.01 -111.345 2114.55 -111.826 2114.1L-111.481 2113.73C-111.962 2113.28 -112.442 2112.82 -112.923 2112.36L-113.269 2112.72C-113.749 2112.26 -114.229 2111.8 -114.709 2111.33L-114.362 2110.97C-114.839 2110.52 -115.316 2110.06 -115.792 2109.6L-116.139 2109.96C-116.616 2109.5 -117.093 2109.04 -117.569 2108.58L-117.221 2108.22C-117.698 2107.76 -118.174 2107.29 -118.65 2106.83L-118.998 2107.19C-119.475 2106.73 -119.951 2106.26 -120.427 2105.8L-120.078 2105.44C-120.554 2104.98 -121.03 2104.51 -121.506 2104.05L-121.855 2104.41C-122.331 2103.94 -122.807 2103.48 -123.283 2103.01L-122.933 2102.65C-123.405 2102.19 -123.877 2101.73 -124.349 2101.26L-124.7 2101.62C-125.172 2101.15 -125.644 2100.69 -126.116 2100.22L-125.765 2099.87C-126.237 2099.4 -126.709 2098.94 -127.181 2098.47L-127.533 2098.83C-128.005 2098.36 -128.477 2097.89 -128.949 2097.42L-128.597 2097.07C-128.804 2096.86 -129.011 2096.66 -129.219 2096.45C-129.483 2096.19 -129.748 2095.93 -130.012 2095.66L-130.365 2096.02C-130.837 2095.55 -131.309 2095.08 -131.781 2094.61L-131.428 2094.25C-131.896 2093.79 -132.365 2093.32 -132.834 2092.85L-133.187 2093.21C-133.655 2092.74 -134.124 2092.27 -134.592 2091.8L-134.238 2091.45C-134.707 2090.98 -135.175 2090.51 -135.643 2090.04L-135.998 2090.39C-136.466 2089.92 -136.934 2089.45 -137.403 2088.98L-137.048 2088.63C-137.516 2088.15 -137.985 2087.68 -138.453 2087.21L-138.808 2087.56C-139.277 2087.09 -139.745 2086.62 -140.214 2086.14L-139.858 2085.79C-140.082 2085.57 -140.305 2085.34 -140.529 2085.11C-140.771 2084.87 -141.014 2084.62 -141.256 2084.38L-141.612 2084.73C-142.077 2084.26 -142.542 2083.79 -143.008 2083.31L-142.652 2082.96C-142.85 2082.76 -143.049 2082.56 -143.247 2082.36C-143.514 2082.09 -143.781 2081.82 -144.047 2081.55L-144.404 2081.9C-144.869 2081.42 -145.334 2080.95 -145.8 2080.48L-145.443 2080.13C-145.909 2079.65 -146.374 2079.18 -146.839 2078.7L-147.196 2079.05C-147.662 2078.58 -148.128 2078.1 -148.593 2077.63L-148.236 2077.28L-148.934 2076.56C-149.166 2076.33 -149.397 2076.09 -149.627 2075.85L-149.987 2076.2C-150.447 2075.72 -150.905 2075.24 -151.359 2074.75L-150.994 2074.41C-151.446 2073.93 -151.895 2073.44 -152.341 2072.95L-152.711 2073.29C-153.158 2072.8 -153.601 2072.3 -154.042 2071.81L-153.667 2071.47C-154.106 2070.98 -154.541 2070.48 -154.973 2069.98L-155.352 2070.3C-155.786 2069.8 -156.215 2069.29 -156.642 2068.79L-156.259 2068.46C-156.683 2067.96 -157.105 2067.45 -157.523 2066.93L-157.91 2067.25C-158.329 2066.73 -158.743 2066.22 -159.155 2065.7L-158.763 2065.39C-159.173 2064.87 -159.58 2064.35 -159.983 2063.82L-160.379 2064.13C-160.784 2063.6 -161.185 2063.07 -161.583 2062.54L-161.183 2062.24C-161.58 2061.71 -161.973 2061.18 -162.363 2060.64L-162.767 2060.94C-163.158 2060.4 -163.546 2059.86 -163.931 2059.32L-163.523 2059.03C-163.906 2058.49 -164.286 2057.94 -164.662 2057.39L-165.074 2057.68C-165.449 2057.13 -165.821 2056.59 -166.189 2056.04L-165.774 2055.76C-166.141 2055.21 -166.505 2054.66 -166.865 2054.1L-167.284 2054.38C-167.646 2053.82 -168.004 2053.26 -168.359 2052.7L-167.937 2052.43C-168.291 2051.87 -168.642 2051.31 -168.989 2050.75L-169.415 2051.01C-169.763 2050.44 -170.109 2049.88 -170.451 2049.3L-170.022 2049.05C-170.363 2048.48 -170.7 2047.91 -171.035 2047.33L-171.467 2047.58C-171.8 2047.01 -172.13 2046.43 -172.456 2045.86L-172.021 2045.61C-172.345 2045.04 -172.666 2044.46 -172.984 2043.88L-173.423 2044.12C-173.742 2043.54 -174.057 2042.96 -174.37 2042.37L-173.929 2042.14C-174.241 2041.56 -174.549 2040.97 -174.854 2040.38L-175.298 2040.61C-175.604 2040.02 -175.907 2039.43 -176.207 2038.83L-175.761 2038.61C-176.06 2038.02 -176.356 2037.42 -176.648 2036.82L-177.097 2037.04C-177.39 2036.45 -177.679 2035.85 -177.965 2035.24L-177.514 2035.03C-177.796 2034.44 -178.076 2033.84 -178.352 2033.24L-178.806 2033.45C-179.083 2032.85 -179.358 2032.25 -179.629 2031.64L-179.172 2031.44C-179.443 2030.83 -179.71 2030.23 -179.974 2029.62L-180.433 2029.82C-180.698 2029.21 -180.96 2028.6 -181.218 2027.99L-180.758 2027.79C-181.016 2027.18 -181.271 2026.57 -181.523 2025.95L-181.986 2026.14C-182.238 2025.52 -182.488 2024.9 -182.735 2024.28L-182.27 2024.1C-182.513 2023.49 -182.753 2022.87 -182.99 2022.25L-183.457 2022.43C-183.694 2021.82 -183.928 2021.2 -184.159 2020.58L-183.69 2020.4C-183.921 2019.79 -184.148 2019.17 -184.373 2018.54L-184.843 2018.71C-185.068 2018.09 -185.291 2017.46 -185.51 2016.84L-185.038 2016.67C-185.257 2016.04 -185.472 2015.42 -185.685 2014.79L-186.159 2014.95C-186.372 2014.31 -186.583 2013.68 -186.79 2013.05L-186.315 2012.89C-186.521 2012.26 -186.724 2011.63 -186.925 2010.99L-187.402 2011.14C-187.6 2010.51 -187.796 2009.88 -187.989 2009.25L-187.51 2009.11C-187.703 2008.48 -187.892 2007.84 -188.079 2007.21L-188.559 2007.35C-188.746 2006.72 -188.93 2006.08 -189.112 2005.44L-188.631 2005.3C-188.812 2004.67 -188.99 2004.03 -189.166 2003.39L-189.648 2003.52C-189.824 2002.88 -189.997 2002.23 -190.167 2001.59L-189.683 2001.46C-189.853 2000.82 -190.02 2000.17 -190.184 1999.52L-190.669 1999.65C-190.832 1999.01 -190.992 1998.36 -191.15 1997.72L-190.664 1997.6C-190.82 1996.96 -190.974 1996.32 -191.125 1995.68L-191.611 1995.79C-191.762 1995.15 -191.911 1994.5 -192.056 1993.85L-191.569 1993.74C-191.714 1993.1 -191.856 1992.45 -191.996 1991.8L-192.485 1991.91C-192.625 1991.26 -192.763 1990.61 -192.897 1989.96L-192.408 1989.86C-192.542 1989.2 -192.674 1988.55 -192.803 1987.9L-193.294 1988C-193.423 1987.34 -193.55 1986.68 -193.674 1986.03L-193.182 1985.93C-193.304 1985.29 -193.424 1984.64 -193.541 1983.99L-194.033 1984.08C-194.15 1983.43 -194.264 1982.77 -194.376 1982.12L-193.883 1982.04C-193.994 1981.39 -194.103 1980.74 -194.209 1980.08L-194.702 1980.16C-194.809 1979.51 -194.913 1978.85 -195.014 1978.19L-194.52 1978.12C-194.62 1977.46 -194.719 1976.81 -194.815 1976.15L-195.309 1976.22C-195.405 1975.56 -195.499 1974.9 -195.59 1974.24L-195.094 1974.17C-195.185 1973.51 -195.273 1972.85 -195.358 1972.19L-195.854 1972.25C-195.939 1971.6 -196.021 1970.94 -196.1 1970.29L-195.604 1970.23C-195.683 1969.57 -195.759 1968.92 -195.834 1968.26L-196.33 1968.32C-196.405 1967.66 -196.476 1967 -196.546 1966.34L-196.049 1966.29C-196.118 1965.63 -196.184 1964.97 -196.249 1964.31L-196.746 1964.36C-196.811 1963.7 -196.872 1963.03 -196.932 1962.37L-196.434 1962.32C-196.493 1961.66 -196.55 1961 -196.604 1960.34L-197.102 1960.38C-197.157 1959.71 -197.209 1959.04 -197.258 1958.38L-196.759 1958.34C-196.808 1957.68 -196.854 1957.03 -196.898 1956.37L-197.397 1956.4C-197.441 1955.74 -197.482 1955.08 -197.521 1954.42L-197.022 1954.39C-197.061 1953.73 -197.098 1953.07 -197.132 1952.41L-197.631 1952.43C-197.666 1951.77 -197.698 1951.11 -197.727 1950.45L-197.227 1950.42C-197.257 1949.76 -197.284 1949.1 -197.309 1948.43L-197.808 1948.45C-197.833 1947.79 -197.855 1947.12 -197.875 1946.45L-197.375 1946.44C-197.395 1945.77 -197.413 1945.11 -197.428 1944.44L-197.928 1944.45C-197.943 1943.79 -197.955 1943.13 -197.966 1942.46L-197.466 1942.46C-197.476 1941.8 -197.484 1941.14 -197.49 1940.48L-197.99 1940.48C-197.995 1939.82 -197.999 1939.16 -198 1938.49L-197.5 1938.49C-197.501 1937.83 -197.499 1937.17 -197.496 1936.5L-197.996 1936.5C-197.992 1935.84 -197.986 1935.17 -197.978 1934.51L-197.478 1934.51C-197.47 1933.85 -197.46 1933.18 -197.447 1932.52L-197.947 1932.51C-197.934 1931.84 -197.919 1931.17 -197.901 1930.51L-197.402 1930.52C-197.384 1929.86 -197.365 1929.2 -197.343 1928.53L-197.843 1928.52C-197.821 1927.86 -197.797 1927.2 -197.771 1926.53L-197.272 1926.55C-197.246 1925.89 -197.217 1925.23 -197.187 1924.57L-197.686 1924.55C-197.655 1923.89 -197.623 1923.22 -197.588 1922.56L-197.088 1922.59C-197.053 1921.92 -197.016 1921.26 -196.977 1920.6L-197.476 1920.57C-197.436 1919.9 -197.394 1919.24 -197.35 1918.58L-196.852 1918.61C-196.808 1917.95 -196.762 1917.28 -196.713 1916.62L-197.212 1916.58C-197.164 1915.92 -197.113 1915.25 -197.061 1914.59L-196.562 1914.63C-196.51 1913.97 -196.456 1913.31 -196.399 1912.66L-196.898 1912.61C-196.841 1911.95 -196.782 1911.29 -196.721 1910.63L-196.223 1910.68C-196.163 1910.02 -196.1 1909.36 -196.035 1908.7L-196.532 1908.65C-196.467 1907.99 -196.4 1907.33 -196.33 1906.67L-195.833 1906.72C-195.763 1906.06 -195.692 1905.4 -195.618 1904.74L-196.115 1904.69C-196.041 1904.02 -195.965 1903.36 -195.887 1902.7L-195.391 1902.76C-195.313 1902.1 -195.233 1901.44 -195.15 1900.78L-195.647 1900.71C-195.565 1900.06 -195.481 1899.4 -195.395 1898.75L-194.9 1898.81C-194.814 1898.15 -194.726 1897.5 -194.636 1896.84L-195.132 1896.78C-195.042 1896.12 -194.949 1895.46 -194.855 1894.81L-194.36 1894.88C-194.266 1894.22 -194.17 1893.56 -194.072 1892.91L-194.566 1892.83C-194.468 1892.18 -194.367 1891.52 -194.265 1890.86L-193.771 1890.94C-193.668 1890.28 -193.564 1889.63 -193.457 1888.97L-193.951 1888.89C-193.844 1888.23 -193.735 1887.58 -193.624 1886.92L-193.131 1887C-193.021 1886.35 -192.909 1885.7 -192.795 1885.04L-193.287 1884.96C-193.173 1884.3 -193.057 1883.65 -192.939 1883L-192.447 1883.09C-192.329 1882.44 -192.208 1881.79 -192.086 1881.14L-192.578 1881.04C-192.455 1880.39 -192.331 1879.74 -192.205 1879.09L-191.714 1879.18C-191.588 1878.53 -191.46 1877.88 -191.329 1877.23L-191.82 1877.13C-191.689 1876.48 -191.557 1875.83 -191.422 1875.18L-190.932 1875.28C-190.798 1874.63 -190.662 1873.98 -190.524 1873.33L-191.013 1873.22C-190.874 1872.57 -190.734 1871.92 -190.591 1871.27L-190.103 1871.38C-189.961 1870.73 -189.818 1870.09 -189.673 1869.44L-190.16 1869.33C-190.015 1868.68 -189.867 1868.04 -189.717 1867.39L-189.23 1867.5C-189.081 1866.86 -188.929 1866.21 -188.776 1865.57L-189.262 1865.45C-189.109 1864.81 -188.953 1864.16 -188.796 1863.52L-188.31 1863.64C-188.153 1862.99 -187.993 1862.35 -187.832 1861.7L-188.317 1861.58C-188.155 1860.94 -187.992 1860.29 -187.826 1859.65L-187.342 1859.77C-187.177 1859.13 -187.01 1858.49 -186.84 1857.84L-187.324 1857.72C-187.155 1857.07 -186.984 1856.43 -186.811 1855.79L-186.329 1855.92C-186.156 1855.28 -185.982 1854.64 -185.806 1854L-186.288 1853.87C-186.112 1853.23 -185.933 1852.59 -185.753 1851.95L-185.272 1852.09C-185.092 1851.45 -184.91 1850.81 -184.726 1850.18L-185.206 1850.04C-185.022 1849.4 -184.836 1848.76 -184.648 1848.13L-184.168 1848.27C-183.98 1847.63 -183.791 1847 -183.599 1846.36L-184.078 1846.22C-183.886 1845.58 -183.692 1844.94 -183.496 1844.31L-183.018 1844.45C-182.823 1843.82 -182.625 1843.19 -182.426 1842.55L-182.903 1842.4C-182.704 1841.77 -182.503 1841.14 -182.3 1840.51L-181.824 1840.66C-181.622 1840.03 -181.417 1839.4 -181.211 1838.77L-181.686 1838.61C-181.48 1837.98 -181.271 1837.35 -181.061 1836.72L-180.587 1836.88C-180.376 1836.25 -180.164 1835.62 -179.951 1834.99L-180.424 1834.83C-180.21 1834.2 -179.994 1833.58 -179.776 1832.95L-179.303 1833.11C-179.086 1832.49 -178.866 1831.86 -178.644 1831.23L-179.116 1831.07C-178.894 1830.44 -178.67 1829.82 -178.445 1829.19L-177.974 1829.36C-177.749 1828.74 -177.522 1828.11 -177.294 1827.49L-177.763 1827.32C-177.534 1826.69 -177.303 1826.07 -177.071 1825.45L-176.602 1825.63C-176.37 1825 -176.136 1824.38 -175.9 1823.77L-176.367 1823.59C-176.131 1822.97 -175.892 1822.35 -175.652 1821.73L-175.186 1821.91C-174.946 1821.29 -174.705 1820.67 -174.461 1820.06L-174.926 1819.87C-174.682 1819.25 -174.437 1818.64 -174.189 1818.02L-173.725 1818.21C-173.478 1817.59 -173.229 1816.98 -172.978 1816.36L-173.441 1816.17C-173.189 1815.56 -172.936 1814.94 -172.681 1814.33L-172.219 1814.52C-171.965 1813.91 -171.709 1813.3 -171.45 1812.69L-171.911 1812.49C-171.652 1811.88 -171.392 1811.27 -171.13 1810.66L-170.67 1810.86C-170.409 1810.25 -170.145 1809.64 -169.879 1809.03L-170.338 1808.83C-170.072 1808.22 -169.804 1807.62 -169.534 1807.01L-169.077 1807.21C-168.808 1806.61 -168.537 1806 -168.264 1805.4L-168.72 1805.19C-168.447 1804.59 -168.171 1803.98 -167.895 1803.38L-167.44 1803.59C-167.163 1802.98 -166.885 1802.38 -166.605 1801.78L-167.058 1801.57C-166.777 1800.97 -166.495 1800.37 -166.211 1799.77L-165.759 1799.98C-165.475 1799.38 -165.189 1798.78 -164.901 1798.18L-165.352 1797.97C-165.064 1797.37 -164.774 1796.77 -164.482 1796.17L-164.033 1796.39C-163.742 1795.8 -163.449 1795.2 -163.154 1794.61L-163.602 1794.39C-163.307 1793.79 -163.009 1793.2 -162.71 1792.6L-162.264 1792.83C-161.965 1792.24 -161.665 1791.65 -161.363 1791.06L-161.808 1790.83C-161.505 1790.24 -161.201 1789.65 -160.895 1789.06L-160.451 1789.29C-160.145 1788.7 -159.838 1788.11 -159.528 1787.53L-159.971 1787.29C-159.66 1786.71 -159.349 1786.12 -159.035 1785.53L-158.594 1785.77C-158.281 1785.19 -157.966 1784.6 -157.649 1784.02L-158.088 1783.78C-157.77 1783.2 -157.451 1782.61 -157.13 1782.03L-156.692 1782.27C-156.372 1781.69 -156.049 1781.11 -155.725 1780.54L-156.161 1780.29C-155.836 1779.71 -155.51 1779.13 -155.182 1778.56L-154.747 1778.8C-154.419 1778.23 -154.09 1777.65 -153.758 1777.08L-154.191 1776.83C-153.859 1776.25 -153.526 1775.68 -153.19 1775.11L-152.759 1775.36C-152.424 1774.79 -152.087 1774.22 -151.748 1773.65L-152.178 1773.39C-151.838 1772.82 -151.497 1772.25 -151.153 1771.68L-150.725 1771.94C-150.382 1771.37 -150.038 1770.8 -149.691 1770.24L-150.118 1769.98C-149.771 1769.41 -149.422 1768.84 -149.072 1768.28L-148.647 1768.54C-148.297 1767.98 -147.945 1767.42 -147.592 1766.86L-148.015 1766.59C-147.66 1766.03 -147.305 1765.47 -146.947 1764.91L-146.526 1765.18C-146.169 1764.62 -145.81 1764.06 -145.449 1763.51L-145.868 1763.24C-145.507 1762.68 -145.144 1762.12 -144.779 1761.57L-144.362 1761.84C-143.997 1761.29 -143.631 1760.74 -143.262 1760.19L-143.678 1759.91C-143.309 1759.36 -142.938 1758.8 -142.565 1758.25L-142.151 1758.53C-141.779 1757.99 -141.405 1757.44 -141.029 1756.89L-141.441 1756.61C-141.064 1756.06 -140.686 1755.51 -140.306 1754.97L-139.896 1755.26C-139.516 1754.71 -139.135 1754.17 -138.752 1753.63L-139.16 1753.34C-138.777 1752.8 -138.392 1752.26 -138.004 1751.72L-137.598 1752.01C-137.212 1751.47 -136.824 1750.93 -136.434 1750.4L-136.838 1750.1C-136.447 1749.57 -136.055 1749.03 -135.661 1748.5L-135.258 1748.8C-134.864 1748.26 -134.467 1747.73 -134.069 1747.2L-134.469 1746.9C-134.07 1746.37 -133.67 1745.84 -133.267 1745.31L-132.869 1745.61C-132.467 1745.08 -132.064 1744.56 -131.659 1744.03L-132.054 1743.73C-131.648 1743.2 -131.241 1742.68 -130.831 1742.15L-130.437 1742.46C-130.029 1741.94 -129.618 1741.42 -129.206 1740.9L-129.597 1740.59C-129.184 1740.07 -128.769 1739.55 -128.353 1739.04L-127.963 1739.35C-127.548 1738.83 -127.13 1738.32 -126.711 1737.81L-127.098 1737.49C-126.677 1736.98 -126.255 1736.47 -125.831 1735.95L-125.446 1736.27C-125.022 1735.76 -124.596 1735.25 -124.168 1734.75L-124.55 1734.42C-124.122 1733.92 -123.692 1733.41 -123.26 1732.9L-122.88 1733.23C-122.449 1732.73 -122.016 1732.22 -121.581 1731.72L-121.958 1731.39C-121.523 1730.89 -121.086 1730.39 -120.647 1729.9L-120.272 1730.23C-119.833 1729.73 -119.393 1729.23 -118.952 1728.74L-119.324 1728.41C-118.882 1727.91 -118.438 1727.42 -117.992 1726.93L-117.622 1727.26C-117.176 1726.77 -116.73 1726.29 -116.281 1725.8L-116.649 1725.46C-116.198 1724.97 -115.746 1724.48 -115.291 1724L-114.926 1724.34C-114.473 1723.86 -114.018 1723.37 -113.561 1722.89L-113.923 1722.55C-113.465 1722.07 -113.006 1721.59 -112.544 1721.11L-112.184 1721.46C-111.724 1720.98 -111.262 1720.5 -110.798 1720.03L-111.155 1719.68C-110.69 1719.2 -110.224 1718.73 -109.755 1718.26L-109.401 1718.61C-108.934 1718.14 -108.465 1717.68 -107.994 1717.21L-108.345 1716.86C-107.874 1716.39 -107.4 1715.92 -106.925 1715.46L-106.576 1715.82C-106.102 1715.36 -105.625 1714.9 -105.147 1714.44L-105.493 1714.08C-105.013 1713.62 -104.531 1713.16 -104.048 1712.7L-103.705 1713.07C-103.223 1712.61 -102.738 1712.16 -102.253 1711.71L-102.593 1711.34C-102.106 1710.89 -101.617 1710.44 -101.127 1709.99L-100.79 1710.36C-100.301 1709.91 -99.8096 1709.47 -99.3169 1709.02L-99.6513 1708.65C-99.1575 1708.21 -98.6621 1707.77 -98.165 1707.33L-97.8337 1707.7C-97.3375 1707.26 -96.8397 1706.82 -96.3402 1706.39L-96.6685 1706.01C-96.1679 1705.58 -95.6656 1705.14 -95.1617 1704.71L-94.8365 1705.09C-94.3327 1704.66 -93.8273 1704.23 -93.3202 1703.8L-93.6422 1703.42C-93.1339 1702.99 -92.6239 1702.57 -92.1122 1702.14L-91.7933 1702.53C-91.2827 1702.11 -90.7703 1701.69 -90.2563 1701.27L-90.572 1700.88C-90.0568 1700.46 -89.54 1700.04 -89.0215 1699.63L-88.7091 1700.02C-88.1916 1699.6 -87.6725 1699.19 -87.1517 1698.78L-87.4608 1698.39C-86.9389 1697.98 -86.4152 1697.57 -85.8899 1697.17L-85.5842 1697.56C-85.06 1697.16 -84.5341 1696.75 -84.0065 1696.35L-84.3089 1695.95C-83.7801 1695.55 -83.2496 1695.15 -82.7174 1694.76L-82.4185 1695.16C-81.8873 1694.76 -81.3544 1694.37 -80.8199 1693.97L-81.1154 1693.57C-80.5797 1693.18 -80.0424 1692.79 -79.5033 1692.4L-79.2113 1692.81C-78.6734 1692.42 -78.1339 1692.04 -77.5926 1691.65L-77.8811 1691.24C-77.3387 1690.86 -76.7946 1690.48 -76.2488 1690.1L-75.9639 1690.51C-75.4193 1690.14 -74.8731 1689.76 -74.3252 1689.39L-74.6065 1688.97C-74.0574 1688.6 -73.5066 1688.23 -72.9542 1687.86L-72.6765 1688.28C-72.1253 1687.91 -71.5724 1687.54 -71.0178 1687.18L-71.2918 1686.76C-70.7367 1686.4 -70.18 1686.04 -69.6216 1685.68L-69.3514 1686.1C-68.7943 1685.74 -68.2355 1685.38 -67.6751 1685.03L-67.9416 1684.61C-67.3799 1684.25 -66.8166 1683.9 -66.2516 1683.55L-65.989 1683.98C-65.4253 1683.63 -64.86 1683.29 -64.293 1682.94L-64.5518 1682.52C-63.9835 1682.17 -63.4136 1681.83 -62.8421 1681.49L-62.5871 1681.92C-62.0169 1681.58 -61.445 1681.25 -60.8714 1680.92L-61.1224 1680.48Z" stroke="#BF4643" stroke-dasharray="2 2"/>
<path d="M775.649 103.002C878.534 45.1761 1027.28 6.12405 1163 1.05978C1230.86 -1.47224 1295.44 4.49318 1349.39 20.84C1403.34 37.1878 1446.61 63.9034 1471.94 102.839C1573.56 259.067 1654.44 498.265 1552.42 693.827C1501.39 791.652 1442.38 847.583 1371.64 880.988C1300.88 914.404 1218.34 925.301 1120.19 932.969C913.03 949.153 778.83 834.842 640.788 693.709C571.928 623.307 554.176 504.57 579.415 388.895C604.652 273.233 672.841 160.785 775.649 103.002Z" stroke="#BF4643"/>
</svg>
