<svg width="2228" height="2138" viewBox="0 0 2228 2138" fill="none" xmlns="http://www.w3.org/2000/svg">
<g style="mix-blend-mode:multiply">
<path d="M1911.47 195.834C2064.13 331.006 2195.65 634.474 2082.95 758.51C1970.26 882.546 1779.23 1012.23 1581.56 982.349C1383.89 952.469 1325.97 851.722 1264.16 697.359C1198.85 534.261 1266.66 395.059 1357.06 245.706C1447.46 96.3535 1758.82 60.6627 1911.47 195.834Z" fill="#F5F1E9"/>
</g>
<g style="mix-blend-mode:multiply">
<path d="M456.438 416.041C508.562 374.441 565.404 362.432 616.41 375.268C667.421 388.105 712.664 425.812 741.542 483.775C756.061 512.915 784.072 538.998 813.316 563.331C820.545 569.346 827.848 575.253 835.045 581.074C857 598.833 877.96 615.788 892.786 632.54C902.622 643.654 909.714 654.634 912.604 665.648C915.489 676.638 914.201 687.695 907.214 699.016C900.214 710.358 887.482 721.984 867.44 734.046C847.403 746.104 820.092 758.578 783.979 771.63C711.651 797.768 666.262 831.244 637.448 866.83C608.633 902.417 596.424 940.079 590.399 974.536C587.387 991.762 585.92 1008.19 584.697 1023.15C584.583 1024.54 584.472 1025.92 584.361 1027.28C583.282 1040.61 582.306 1052.66 580.463 1062.99C578.432 1074.37 575.358 1083.57 569.994 1090.02C564.653 1096.43 556.995 1100.18 545.653 1100.55C497.436 1102.12 460.279 1078.39 428.679 1039.19C397.065 999.977 371.057 945.342 345.154 885.235C319.315 825.276 321.031 728.801 342.298 636.84C363.565 544.876 404.341 457.62 456.438 416.041Z" stroke="#BF4643"/>
</g>
<path d="M948.149 1624.37C727.395 1491.62 505.453 1143.43 630.417 961.586C755.382 779.741 980.895 572.232 1242.1 562.647C1503.31 553.062 1595.47 665.27 1701.77 843.591C1814.09 1032 1749.85 1222.15 1658.07 1430.35C1566.29 1638.56 1168.9 1757.13 948.149 1624.37Z" stroke="#BF4643" stroke-linecap="round" stroke-dasharray="2 11"/>
<g style="mix-blend-mode:multiply">
<path d="M1900.36 1354.85C1965.99 1366.67 2012.47 1401.53 2036.4 1448.37C2060.34 1495.21 2061.76 1554.08 2037.17 1613.99C2024.8 1644.11 2023.63 1682.36 2024.58 1720.4C2024.81 1729.8 2025.18 1739.18 2025.54 1748.43C2026.63 1776.65 2027.68 1803.59 2024.84 1825.78C2022.95 1840.5 2019.36 1853.07 2012.98 1862.5C2006.61 1871.9 1997.44 1878.22 1984.32 1880.42C1971.18 1882.62 1954.04 1880.7 1931.77 1873.56C1909.49 1866.42 1882.12 1854.09 1848.52 1835.51C1781.21 1798.3 1726.13 1786.19 1680.37 1787.95C1634.61 1789.71 1598.23 1805.32 1568.34 1823.49C1553.39 1832.56 1540.06 1842.28 1528 1851.21C1526.88 1852.04 1525.77 1852.87 1524.67 1853.68C1513.93 1861.65 1504.22 1868.85 1495.24 1874.26C1485.33 1880.23 1476.38 1883.98 1468 1884.19C1459.66 1884.4 1451.8 1881.1 1444.05 1872.81C1411.11 1837.56 1404.49 1793.97 1413.17 1744.38C1421.86 1694.76 1445.84 1639.21 1474.01 1580.13C1502.11 1521.2 1575.83 1458.95 1659.04 1414.38C1742.25 1369.82 1834.76 1343.03 1900.36 1354.85Z" stroke="#BF4643"/>
</g>
<g style="mix-blend-mode:plus-darker">
<path d="M540.398 1165.77C701.661 1196.34 912.43 1353.4 879.355 1487.29C846.28 1621.17 759.263 1791.8 606.2 1853.68C453.137 1915.56 372.95 1869.39 269.383 1787.37C159.956 1700.7 155.061 1575.01 162.444 1432.76C169.828 1290.51 379.135 1135.2 540.398 1165.77Z" fill="#FFC2BE" fill-opacity="0.32"/>
</g>
</svg>
