<svg width="712" height="690" viewBox="0 0 712 690" fill="none" xmlns="http://www.w3.org/2000/svg">
<path d="M143.709 76.2139C285.61 -9.01177 553.92 -38.8591 623.969 76.2139C694.017 191.287 749.831 367.575 679.446 511.758C609.062 655.942 516.593 676.755 381.324 688.047C238.402 699.979 145.826 615.686 50.7 511.758C-44.4265 407.831 1.80667 161.439 143.709 76.2139Z" fill="#F1F1F1"/>
<path d="M143.709 76.2139C285.61 -9.01177 553.92 -38.8591 623.969 76.2139C694.017 191.287 749.831 367.575 679.446 511.758C609.062 655.942 516.593 676.755 381.324 688.047C238.402 699.979 145.826 615.686 50.7 511.758C-44.4265 407.831 1.80667 161.439 143.709 76.2139Z" fill="white"/>
</svg>
