<svg width="93" height="97" viewBox="0 0 93 97" fill="none" xmlns="http://www.w3.org/2000/svg">
<path d="M77.8503 39.41C77.0903 28.1 67.0903 1.07 43.3603 0C55.5903 16.15 63.7603 39.63 61.0603 44.15C47.0603 52.23 -0.519677 61.83 0.000322956 63.77C0.280323 64.82 38.3703 55.85 38.9003 59.02C39.6303 63.38 1.43032 69.29 1.57032 69.99C1.93032 71.7 25.0703 67.23 34.5503 65.35C42.3403 63.81 54.9003 61.41 62.4503 58.54C62.7603 68.45 50.4603 92.45 46.9303 96.9C60.5803 90.56 82.8603 72.24 80.3703 52.04C84.7903 49.58 87.2103 46.75 87.9003 45.42C88.5903 44.09 88.0003 42.79 89.5803 41.99C88.8203 40.3 84.7803 36.88 77.8503 39.41Z" fill="#221815"/>
<path d="M89.5905 41.99C90.7705 42.15 91.5405 42.54 92.0905 42.94C89.7605 43.71 88.3105 44.37 88.3105 44.37C88.3105 44.37 88.2305 42.56 89.5905 41.99Z" fill="#FFE100"/>
<path d="M86.3508 39.26C84.6508 39.98 81.3108 46.82 83.4308 50.11C85.2908 49.08 87.7508 46.65 88.3108 44.36C88.6108 43.09 88.8608 42.48 89.5908 41.98C88.8108 40.44 87.7308 39.65 86.3508 39.26Z" fill="#E61C17"/>
</svg>
