<svg width="91" height="84" viewBox="0 0 91 84" fill="none" xmlns="http://www.w3.org/2000/svg">
<path d="M80.4704 51.91C86.0904 42.07 92.7104 14.02 73.5404 0C74.7904 20.22 68.6104 44.3 63.8703 46.57C47.7204 45.55 2.78035 27.23 2.14035 29.14C1.80035 30.17 38.4904 43.77 37.1804 46.7C35.3703 50.74 0.280349 34.52 0.0103494 35.19C-0.639651 36.81 21.1103 45.89 30.0503 49.57C37.3904 52.6 49.1804 57.54 57.0604 59.33C51.8404 67.76 28.3103 80.95 22.9103 82.7C37.7903 84.97 66.4904 82.03 75.5804 63.83C80.6204 64.23 84.2004 63.2 85.5104 62.48C86.8204 61.76 87.0503 60.35 88.8103 60.55C89.1104 58.73 87.6404 53.64 80.4604 51.91" fill="#221815"/>
<path d="M88.8204 60.5499C89.7104 61.3399 90.1404 62.0899 90.3804 62.7199C88.0204 62.0799 86.4404 61.8199 86.4404 61.8199C86.4404 61.8199 87.3704 60.2699 88.8204 60.5499Z" fill="#FFE100"/>
<path d="M87.6302 56.48C85.8102 56.14 79.2402 59.99 79.2002 63.9C81.3202 64.07 84.7102 63.4 86.4402 61.81C87.3902 60.92 87.9402 60.54 88.8202 60.54C89.0202 58.82 88.5602 57.57 87.6302 56.48Z" fill="#E61C17"/>
</svg>
