<svg width="92" height="85" viewBox="0 0 92 85" fill="none" xmlns="http://www.w3.org/2000/svg">
<path d="M10.2896 51.62C5.02956 41.59 -0.590439 13.32 19.0796 0C17.1096 20.16 22.4196 44.45 27.0796 46.89C43.2496 46.45 88.8196 29.75 89.3896 31.68C89.6996 32.72 52.5396 45 53.7496 47.97C55.4096 52.07 91.0596 37.13 91.2996 37.8C91.8896 39.45 69.8296 47.73 60.7596 51.09C53.3096 53.85 41.3596 58.37 33.4196 59.87C38.3396 68.48 61.3796 82.5 66.7096 84.45C51.7596 86.19 23.1896 82.22 14.7496 63.7C9.68956 63.92 6.15956 62.76 4.86956 61.99C3.58956 61.22 3.40956 59.81 1.63956 59.94C1.40956 58.11 3.04956 53.07 10.2896 51.61" fill="#221815"/>
<path d="M1.64 59.96C0.72 60.71 0.26 61.45 0 62.08C2.39 61.52 3.97 61.32 3.97 61.32C3.97 61.32 3.09 59.74 1.64 59.96Z" fill="#FFE100"/>
<path d="M2.97042 55.9399C4.80042 55.6599 11.2204 59.7499 11.1304 63.6599C9.00042 63.7499 5.64042 62.9699 3.97042 61.3099C3.05042 60.3799 2.52042 59.9899 1.64042 59.9599C1.51042 58.2399 2.01042 56.9999 2.98042 55.9399" fill="#E61C17"/>
</svg>
