<?xml version="1.0" encoding="UTF-8"?>
<svg id="_レイヤー_2" data-name="レイヤー 2" xmlns="http://www.w3.org/2000/svg" viewBox="0 0 237.95 75.61">
  <defs>
    <style>
      .cls-1 {
        fill: #221815;
      }

      .cls-2 {
        fill: #ffe100;
      }

      .cls-3 {
        fill: #fff;
      }

      .cls-4 {
        fill: #e61c17;
      }
    </style>
  </defs>
  <g id="_レイヤー_1-2" data-name="レイヤー 1">
    <g>
      <path class="cls-3" d="M220.21,9.74l-10.6.23c-5.68,12.97-6.26,38.96-.92,41.49,0,0,6.2-6.63,8.69-12.08s4.71-13.78,4.71-18.59-1.89-11.05-1.89-11.05Z"/>
      <path class="cls-1" d="M224.69,18.7c.06-4.62-2.27-10.54-3.6-10.21-1.38.34-1.3,1.16-1.1,2.09,1.29,6.3.18,17.75-1.57,22.38-1.91,5.05-7.14,17.56-10.77,16.66-2.34-.58-1.81-29.71,2.24-38.85.43-.97-.45-2.74-1.01-2.86-2.52-.14-4.3,4.18-5.58,11.79-1.63,9.67.71,18.56.97,24.35.18,3.85-7.8,25.82-6.99,25.99.88.19,7.08-19.19,9.16-18.74,2.99.64-.7,17.44,0,17.65.7.21,2.65-9.42,3.42-12.83.71-3.19.71-3.34,1.78-6.75,7.46-10.27,12.85-16.01,13.05-30.68"/>
      <path class="cls-1" d="M214.99.45c-5.2.1-6.59,4.32-6.1,7.46.18.84.53,1.53.98,2.11l-.12-.04c.14,1.23,2.17,2.69,2.14,3.48-.02.79,2.23,1.2,2.3,1.74s1.78-.89,2.32-1.36c.54-.48,1.3-.54,1.91-1.44.47-.68.83-1.32,1.14-1.89.8-.63,1.38-1.42,1.57-2.35.64-3.2-1.39-7.8-6.14-7.72Z"/>
      <path class="cls-4" d="M215.86,7.27c1.01.9,1.22,2.82-.13,3.33-1.27.48-4.57-.28-5.48-2.05-.47-.91-.03-2.35,1.31-2.54.98-.14,3.88.89,4.3,1.26Z"/>
      <path class="cls-2" d="M211.67,5.6c.38,1.14.86,1.66,1.22,2.23,1.27-.22,2.8-.69,3.07-.97-1.45-1.08-3.1-1.42-4.28-1.26Z"/>
      <path class="cls-3" d="M194.19,40.75c-17.64,1.78-35.26,3.88-53.6,4.28-7.97.18-15.62-.18-23.53-.4-1.1-.03-9.26-.44-12.74-.45-1.03.1-1.61.11-1.56.08.09-.06.68-.08,1.56-.08,1.05-.1,2.57-.31,4.34-.67.5-.1,2.28-.47,4.44-1.2,1.66-.56,3.92-1.46,6.31-2.88-3.85.8-9.54,1.87-16.51,2.76-8.74,1.11-44.44-1.89-49.87-1.89-13.83-.93-28.32-2.44-34.22-.87C7.98,42.05,2.08,43.61.1,44.31c-.5.58,1.01,2.02,1.72,2.26.3.1.67-.05.76-.09,3.18-1.21,16.23-3.92,16.23-3.92,10.34-1.92,15.79-.59,21.93-.35,22.4.87,56.15,5.21,77.79,5.39,10.41.09,22.47-.75,33.24.52,6.4,1.2,7.72.99,12.61,1.07,1.03.02,2.25.07,3.55.12,3.19.12,6.82.23,9.08-.24.98-.2-12.63-2.19-13.31-2.37,2.85-1.05,7.99-1.07,11.74-1.39,6.1-.52,12.2-1.05,18.29-1.57,6.1-.52,11.49-1.45,15.18-3.02,11.57-2.88,20.93-5.63,29.05-5.48-4.19-6.47-33.09,4.41-43.76,5.48h0Z"/>
      <path class="cls-1" d="M210.52,37.21c-.25-.16-.51-.23-.73-.25l-.07-1.28c0-.23-.2-.4-.44-.4-.23.02-.41.21-.4.44l.08,1.48c-.37.31-1.2,1.1-1.53,2.08-.07.22.04.45.26.53.22.07.46-.04.53-.26.21-.62.71-1.18,1.06-1.51.15.37.28,1.03-.06,1.97-.08.22.03.46.25.54.05.02.1.02.15.02.17,0,.33-.11.4-.28.35-.97.3-1.72.15-2.26.1.12.18.27.22.48.04.2.21.35.41.35h.07c.23-.04.38-.26.34-.49-.1-.53-.33-.92-.7-1.16"/>
      <path class="cls-1" d="M217.12,36.73c-.25-.16-.51-.23-.72-.25l-.07-1.28c0-.23-.2-.4-.44-.4-.23.02-.41.21-.4.44l.08,1.48c-.37.31-1.2,1.1-1.53,2.08-.07.22.04.45.26.53.22.07.46-.04.53-.26.21-.62.71-1.18,1.06-1.51.15.37.28,1.03-.06,1.97-.08.22.03.46.25.54.05.02.1.02.15.02.17,0,.33-.11.4-.28.35-.97.3-1.72.15-2.26.1.12.18.27.22.48.04.2.21.35.41.35h.07c.23-.04.38-.26.34-.49-.1-.53-.33-.92-.7-1.16"/>
      <path class="cls-1" d="M201.52,12.27c-.28-2.52-2.42-4.41-3.12-4.21C198.9,3.59,197.18-.05,192.09,0c-5.2.05-6.51,4.92-6.02,8.06-2.52-.14-4.88,3.47-6.13,11.92-1.63,11.05,1.53,19.69.55,25.53-.66,3.97-5.37,24.26-4.57,24.49.8.23,5.35-18.98,7.7-18.54,3,.56-2.26,24.06-1.33,24.15,1.46.14,4.66-23.6,6.52-26.09,5.97-7.98,14.78-19.08,12.71-37.25"/>
    </g>
  </g>
</svg>